<?xml version="1.0" encoding="UTF-8" standalone="no"?>
<!DOCTYPE svg  PUBLIC '-//W3C//DTD SVG 1.1//EN'  'http://www.w3.org/Graphics/SVG/1.1/DTD/svg11.dtd'>
<svg xmlns="http://www.w3.org/2000/svg">
<defs>
<font id="FranchiseFree-Bold" horiz-adv-x="370">
<font-face underline-position="-52" font-weight="700" descent="-116" panose-1="0 0 0 0 0 0 0 0 0 0" units-per-em="1000" unicode-range="U+0020-2212" bbox="0 -116 558.25 816" x-height="600" underline-thickness="61" font-family="FranchiseFree" ascent="884" cap-height="700"/>
<missing-glyph horiz-adv-x="1000"/>
<glyph glyph-name=".notdef" horiz-adv-x="1000"/>
<glyph glyph-name=".null" horiz-adv-x="0"/>
<glyph glyph-name="nonmarkingreturn" horiz-adv-x="333"/>
<glyph glyph-name="space" horiz-adv-x="132" unicode=" "/>
<glyph glyph-name="exclam" horiz-adv-x="208" unicode="!" d="M40 57q0 26 19 45t45 19t45 -19t19 -45t-19 -45t-45 -19t-45 19t-19 45zM125 170h-42q-13 0 -15 14l-22 210q-1 8 -1 28v264q0 14 14 14h90q14 0 14 -14v-264q0 -20 -1 -28l-22 -210q-2 -14 -15 -14z"/>
<glyph glyph-name="quotedbl" horiz-adv-x="278" unicode='&quot;' d="M205 476h-35q-14 0 -14 14v196q0 14 14 14h75q14 0 12 -14l-36 -196q-2 -14 -16 -14zM69 476h-35q-14 0 -14 14v196q0 14 14 14h75q14 0 12 -14l-36 -196q-2 -14 -16 -14z"/>
<glyph glyph-name="numbersign" horiz-adv-x="476" unicode="#" d="M265 310l13 82h-68l-13 -82h68zM442 392h-105l-13 -82h118q14 0 14 -14v-32q0 -14 -14 -14h-128l-21 -134q-2 -14 -16 -14h-31q-14 0 -12 14l21 134h-68l-21 -134q-2 -14 -16 -14h-31q-14 0 -12 14l21 134h-94q-14 0 -14 14v32q0 14 14 14h104l13 82h-117q-14 0 -14 14 v32q0 14 14 14h127l21 132q2 14 16 14h31q14 0 12 -14l-21 -132h68l21 132q2 14 16 14h31q14 0 12 -14l-21 -132h95q14 0 14 -14v-32q0 -14 -14 -14z"/>
<glyph glyph-name="dollar" horiz-adv-x="330" unicode="$" d="M206 465q-13 -4 -13 10v65q0 10 -7 17t-17 7h-8q-10 0 -17 -7t-7 -17v-55q2 -23 15 -35l131 -98q24 -20 27 -61v-135q0 -46 -29.5 -81t-74.5 -43v-38q0 -14 -14 -14h-54q-14 0 -14 14v38q-45 8 -74.5 43t-29.5 81v57q0 14 13 18l91 24q13 4 13 -10v-84q0 -10 7 -17t17 -7 h8q10 0 17 7t7 17v95q-2 28 -16 41l-129 99q-28 25 -28 65v84q0 46 29.5 81t74.5 43v37q0 14 14 14h54q14 0 14 -14v-37q45 -8 74.5 -43t29.5 -81v-38q0 -14 -13 -18z"/>
<glyph glyph-name="percent" horiz-adv-x="541" unicode="%" d="M429 77v188q0 14 -14 14h-8q-14 0 -14 -14v-188q0 -14 14 -14h8q14 0 14 14zM426 349q33 0 56.5 -23.5t23.5 -56.5v-196q0 -33 -23.5 -56.5t-56.5 -23.5h-30q-33 0 -56.5 23.5t-23.5 56.5v196q0 33 23.5 56.5t56.5 23.5h30zM148 435v188q0 14 -14 14h-8q-14 0 -14 -14 v-188q0 -14 14 -14h8q14 0 14 14zM145 707q33 0 56.5 -23.5t23.5 -56.5v-196q0 -33 -23.5 -56.5t-56.5 -23.5h-30q-33 0 -56.5 23.5t-23.5 56.5v196q0 33 23.5 56.5t56.5 23.5h30zM131 0h-54q-11 0 -11 10v1q1 1 1 2l325 674q4 13 18 13h54q11 0 11 -10l-1 -2v-2l-325 -673 q-4 -13 -18 -13z"/>
<glyph glyph-name="ampersand" horiz-adv-x="412" unicode="&amp;" d="M364 241q8 -2 8 -10v-33q0 -8 -8 -6l-34 7v-80q0 -52 -37 -89t-89 -37h-38q-52 0 -89 37t-37 89v177q0 21 5 43q7 18 16 26q13 11 29 17q-16 8 -29 20q-14 16 -19 40q-2 16 -2 26v113q0 52 37 89t89 37h38q52 0 89 -37t37 -89v-103q0 -14 -13 -10l-91 24q-13 4 -13 18v66 q0 10 -7 17t-17 7h-8q-10 0 -17 -7t-7 -17v-116q0 -16 5 -21q9 -9 18 -9h47q5 0 8.5 -4t3.5 -8v-74q0 -4 -3.5 -8t-8.5 -4h-47q-10 0 -18 -8q-5 -6 -5 -28v-172q0 -10 7 -17t17 -7h8q10 0 17 7t7 17v145q0 8 8 6z"/>
<glyph glyph-name="quotesingle" horiz-adv-x="142" unicode="&apos;" d="M69 476h-35q-14 0 -14 14v196q0 14 14 14h75q14 0 12 -14l-36 -196q-2 -14 -16 -14z"/>
<glyph glyph-name="parenleft" horiz-adv-x="235" unicode="(" d="M146 105q23 -88 76 -155q3 -3 3 -8q0 -6 -4 -10l-25 -25q-4 -4 -9 -4t-9 4q-85 77 -125 183q-43 108 -43 260q0 150 43 260q41 107 125 183q4 4 9 4t9 -4l25 -25q4 -4 4 -10q0 -5 -3 -8q-53 -67 -76 -155q-29 -103 -29 -245t29 -245z"/>
<glyph glyph-name="parenright" horiz-adv-x="235" unicode=")" d="M89 105q29 109 29 245t-29 245q-26 91 -76 155q-3 3 -3 8q0 6 4 10l25 25q4 4 9 4t9 -4q82 -74 125 -183q43 -114 43 -260q0 -148 -43 -260q-42 -108 -125 -183q-4 -4 -9 -4t-9 4l-25 25q-4 4 -4 10q0 5 3 8q50 64 76 155z"/>
<glyph glyph-name="asterisk" horiz-adv-x="262" unicode="*" d="M232 545q10 -5 10 -14l-2 -7l-14 -25l-2.5 -2.5t-7.5 -3.5t-13 3q-21 10 -49 34q7 -40 7 -60q0 -8 -4 -12t-8 -4l-4 -1h-28q-2 0 -4.5 0.5t-7 4.5t-4.5 12q0 20 7 60q-28 -24 -49 -34q-8 -3 -13 -2.5t-8 2.5l-2 3l-14 25q-2 3 -2 7q0 9 10 14q47 23 54 26q-7 3 -54 26 q-10 5 -10 14l2 7l14 25l2.5 2.5t7.5 3.5t13 -3q26 -15 49 -34q-7 40 -7 60q0 8 4 12t8 4l4 1h28q2 0 4.5 -0.5t7 -4.5t4.5 -12q0 -20 -7 -60q23 19 49 34q8 3 13 2.5t8 -2.5l2 -3l14 -25q2 -3 2 -7q0 -9 -10 -14q-47 -23 -54 -26q7 -3 54 -26z"/>
<glyph glyph-name="plus" horiz-adv-x="438" unicode="+" d="M394 418q14 0 14 -14v-76q0 -14 -14 -14h-123v-123q0 -14 -14 -14h-76q-14 0 -14 14v123h-123q-14 0 -14 14v76q0 14 14 14h123v123q0 14 14 14h76q14 0 14 -14v-123h123z"/>
<glyph glyph-name="comma" horiz-adv-x="177" unicode="," d="M53 -82v15q0 6 6 6q13 0 27 10.5t18 34.5q3 14 -3 17q-2 1 -4.5 0.5t-6.5 -1t-5 -0.5q-28 0 -47 17q-18 17 -18 46q0 22 16 39q18 19 45 19q29 0 49 -20t24 -49q2 -16 2 -25q0 -10 -1 -15q-8 -57 -52 -86q-15 -9 -26 -13l-3 -1q-3 0 -7 -1t-6 -1h-1q-7 0 -7 8z"/>
<glyph glyph-name="hyphen" horiz-adv-x="298" unicode="-" d="M44 314q-14 0 -14 14v76q0 14 14 14h210q14 0 14 -14v-76q0 -14 -14 -14h-210z"/>
<glyph glyph-name="period" horiz-adv-x="168" unicode="." d="M20 57q0 26 19 45t45 19t45 -19t19 -45t-19 -45t-45 -19t-45 19t-19 45z"/>
<glyph glyph-name="slash" horiz-adv-x="292" unicode="/" d="M65 0h-54q-11 0 -11 10v1q1 1 1 2l208 674q4 13 18 13h54q11 0 11 -10v-2l-1 -2l-208 -673q-4 -13 -18 -13z"/>
<glyph glyph-name="zero" d="M213 576q0 10 -7 17t-17 7h-8q-10 0 -17 -7t-7 -17v-452q0 -10 7 -17t17 -7h8q10 0 17 7t7 17v452zM330 119q0 -52 -37 -89t-89 -37h-38q-52 0 -89 37t-37 89v462q0 52 37 89t89 37h38q52 0 89 -37t37 -89v-462z" unicode="0"/>
<glyph glyph-name="one" horiz-adv-x="282" unicode="1" d="M229 700q13 -2 13 -14v-672q0 -14 -14 -14h-89q-14 0 -14 14v502q-35 -27 -69 -33q-7 -2 -11 2q-5 3 -5 10v75q0 12 12 14q9 4 23 11t39.5 35t29.5 62q3 8 11 8h74z"/>
<glyph glyph-name="two" horiz-adv-x="371" unicode="2" d="M232 249q-2 -3 -6 -9.5t-6 -9.5q-17 -28 -30.5 -57t-17.5 -45l-5 -15h155q9 0 9 -9v-95q0 -9 -9 -9h-264q-7 0 -9 9q-3 23 -3 46l4 59q2 23 9.5 47t14.5 37l6 12q30 56 62.5 105t49.5 71l17 21q4 11 4 23v15v13v118q0 10 -7 17t-17 7h-8q-10 0 -17 -7t-7 -17v-66 q0 -14 -13 -18l-91 -24q-13 -4 -13 10v103q0 52 37 89t89 37h38q52 0 89 -37t37 -89v-60v-59q0 -66 -32 -115q-11 -18 -34.5 -52t-31.5 -46z"/>
<glyph glyph-name="three" d="M330 296v-177q0 -52 -37 -89t-89 -37h-38q-52 0 -89 37t-37 89v109q0 14 13 18l91 24q13 4 13 -10v-136q0 -10 7 -17t17 -7h8q10 0 17 7t7 17v172q0 22 -5 28q-8 8 -18 8h-47q-5 0 -8.5 4t-3.5 8v74q0 4 3.5 8t8.5 4h47q9 0 18 9q5 5 5 21v116q0 10 -7 17t-17 7h-8 q-10 0 -17 -7t-7 -17v-66q0 -14 -13 -18l-91 -24q-13 -4 -13 10v103q0 52 37 89t89 37h38q52 0 89 -37t37 -89v-113q0 -10 -2 -26q-5 -24 -19 -40q-13 -12 -29 -20q16 -6 29 -17q9 -9 16 -26q5 -22 5 -43z" unicode="3"/>
<glyph glyph-name="four" horiz-adv-x="390" unicode="4" d="M187 250v230q-18 -104 -73 -230h73zM346 246q4 -4 4 -9v-83q0 -6 -4 -10q-6 -4 -9 -4h-32v-126q0 -14 -14 -14h-89q-14 0 -14 14v126h-155q-5 0 -9 4q-4 3 -4 10v85l2 10q47 92 79.5 194t42 153t13.5 91q1 13 14 13h120q14 0 14 -14v-436h32q3 0 9 -4z"/>
<glyph glyph-name="five" horiz-adv-x="371" unicode="5" d="M260 445q34 -10 52.5 -36t17.5 -62v-228q0 -52 -37 -89t-89 -37h-38q-52 0 -89 37t-37 89v41q0 14 13 18l91 24q13 4 13 -10v-68q0 -10 7 -17t17 -7h8q10 0 17 7t7 17v197q0 16 -6 22q-8 8 -18 8h-8q-9 0 -18 -9q-6 -6 -6 -21v-28q0 -5 -3.5 -7.5t-7.5 -1.5l-95 25 q-11 4 -11 14v363q0 14 14 14h59h181q14 0 14 -14v-85q0 -14 -14 -14h-137v-151q30 14 65 14q20 0 38 -5z"/>
<glyph glyph-name="six" d="M157 314v-190q0 -10 7 -17t17 -7h8q10 0 17 7t7 17v190q0 16 -6 22q-8 8 -18 8h-8q-9 0 -18 -9q-6 -6 -6 -21zM166 -7q-52 0 -89 37t-37 89v462q0 52 37 89t89 37h38q52 0 89 -37t37 -89v-41q0 -14 -13 -18l-91 -24q-13 -4 -13 10v68q0 10 -7 17t-17 7h-8q-10 0 -17 -7 t-7 -17v-147q30 14 65 14q20 0 38 -5q70 -20 70 -98v-221q0 -52 -37 -89t-89 -37h-38z" unicode="6"/>
<glyph glyph-name="seven" horiz-adv-x="317" unicode="7" d="M106 0q-5 0 -8.5 3.5t-3.5 6.5l-1 3q0 215 24 368q16 102 51 209h-135q-6 0 -9 4q-4 4 -4 9v84q0 3 4 9q4 4 9 4h245q6 0 10 -4q4 -6 4 -9v-93q-57 -151 -73 -336q-8 -91 -8 -245q0 -13 -13 -13h-92z"/>
<glyph glyph-name="eight" d="M213 467v109q0 10 -7 17t-17 7h-8q-10 0 -17 -7t-7 -17v-109q0 -16 5 -21q9 -9 18 -9h10q9 0 18 9q5 5 5 21zM213 124v167q0 22 -5 28q-8 8 -18 8h-10q-10 0 -18 -8q-5 -6 -5 -28v-167q0 -10 7 -17t17 -7h8q10 0 17 7t7 17zM309 402q-13 -12 -29 -20q16 -6 29 -17 q9 -9 16 -26q5 -22 5 -43v-177q0 -52 -37 -89t-89 -37h-38q-52 0 -89 37t-37 89v177q0 21 5 43q7 18 16 26q13 11 29 17q-16 8 -29 20q-14 16 -19 40q-2 16 -2 26v113q0 52 37 89t89 37h38q52 0 89 -37t37 -89v-113q0 -10 -2 -26q-5 -24 -19 -40z" unicode="8"/>
<glyph glyph-name="nine" d="M213 386v190q0 10 -7 17t-17 7h-8q-10 0 -17 -7t-7 -17v-190q0 -16 6 -22q8 -8 18 -8h8q9 0 18 9q6 6 6 21zM204 707q52 0 89 -37t37 -89v-462q0 -52 -37 -89t-89 -37h-38q-52 0 -89 37t-37 89v41q0 14 13 18l91 24q13 4 13 -10v-68q0 -10 7 -17t17 -7h8q10 0 17 7t7 17 v147q-31 -14 -65 -14q-20 0 -38 5q-70 19 -70 98v221q0 52 37 89t89 37h38z" unicode="9"/>
<glyph glyph-name="colon" horiz-adv-x="168" unicode=":" d="M20 217q0 26 19 45t45 19t45 -19t19 -45t-19 -45t-45 -19t-45 19t-19 45zM20 442q0 26 19 45t45 19t45 -19t19 -45t-19 -45t-45 -19t-45 19t-19 45z"/>
<glyph glyph-name="semicolon" horiz-adv-x="177" unicode=";" d="M20 442q0 26 19 45t45 19t45 -19t19 -45t-19 -45t-45 -19t-45 19t-19 45zM53 80v15q0 6 6 6q13 0 27 10.5t18 34.5q3 14 -3 17q-2 1 -4.5 0.5t-6.5 -1t-5 -0.5q-28 0 -47 17q-18 17 -18 46q0 22 16 39q18 19 45 19q29 0 49 -20t24 -49q2 -16 2 -25q0 -10 -1 -15 q-8 -57 -52 -86q-15 -9 -26 -13l-3 -1q-3 0 -7 -1t-6 -1h-1q-7 0 -7 8z"/>
<glyph glyph-name="less" horiz-adv-x="320" unicode="&lt;" d="M234 420l-81 -67q-1 -1 -1 -3t1 -3l81 -67l45 -38q11 -9 11 -23v-98q0 -8 -5 -8q-4 0 -6 2l-256 215q-3 2 -3 7v26q0 5 3 7l256 215q2 2 6 2q5 0 5 -8v-98q0 -14 -11 -23z"/>
<glyph glyph-name="equal" horiz-adv-x="352" unicode="=" d="M44 236q-14 0 -14 14v76q0 14 14 14h264q14 0 14 -14v-76q0 -14 -14 -14h-264zM44 386q-14 0 -14 14v76q0 14 14 14h264q14 0 14 -14v-76q0 -14 -14 -14h-264z"/>
<glyph glyph-name="greater" horiz-adv-x="320" unicode="&gt;" d="M41 458q-11 9 -11 23v98q0 8 5 8q4 0 6 -2l256 -215q3 -2 3 -7v-26q0 -5 -3 -7l-256 -215q-2 -2 -6 -2q-5 0 -5 8v98q0 14 11 23l126 105q1 1 1 3t-1 3z"/>
<glyph glyph-name="question" horiz-adv-x="382" unicode="?" d="M188 707q46 0 78.5 -15.5t49 -42.5t23.5 -56t7 -62v-12q-2 -58 -11.5 -77.5t-64.5 -83.5q-6 -7 -18 -20t-18.5 -20.5t-14.5 -19t-12 -21.5q-9 -21 -14 -80l-1 -15q0 -11 -12 -11h-42q-11 0 -13 11q-8 85 -8 95v5q0 26 11 49t39.5 60.5t37.5 50.5q16 24 19.5 37t3.5 35v7 q0 38 -8 55.5t-32 17.5q-36 0 -36 -51v-53q0 -12 -11 -14l-95 -23q-4 -1 -7.5 1.5t-3.5 7.5v76q0 81 40 125t113 44zM98 57q0 26 19 45t45 19t45 -19t19 -45t-19 -45t-45 -19t-45 19t-19 45z"/>
<glyph glyph-name="at" horiz-adv-x="536" unicode="@" d="M225 286q2 -12 13 -12q6 0 13 4q5 2 11 10q12 15 19 41l20 75q0 9 -2 17q-3 5 -6 7q-1 1 -7 1q-11 0 -22 -10q-12 -11 -22 -30q-21 -40 -21 -79q0 -14 4 -24zM217 202q-36 0 -56.5 26t-22.5 52l-2 26q0 53 20 97q22 48 61 75q27 19 58 19q26 0 44 -15l5 -5l2 5 q4 10 12 10h62q5 0 10 -5q4 -5 2 -12l-48 -166q-7 -21 -7 -35q0 -17 11 -18h5q13 0 30 13q12 7 22 25q22 39 22 101q0 85 -49 139q-44 48 -122 51h-3q-83 0 -130 -67q-53 -75 -53 -170q0 -109 49 -168q52 -63 137 -63q76 0 125 49q4 4 10 4t9 -4l24 -29q8 -10 -3 -21 q-58 -58 -162 -63h-10q-50 0 -95 21t-66 42l-20 21q-68 77 -68 213q0 127 74 214t182 87q58 0 108 -24q39 -19 73 -62q59 -76 59 -171q0 -57 -22 -107t-64 -75q-29 -17 -65 -17q-28 0 -46 11q-20 12 -29 34q-12 -14 -19 -19q-25 -19 -54 -19z"/>
<glyph glyph-name="A" horiz-adv-x="356" unicode="A" d="M155 234h46l-19 271h-8zM335 14q2 -14 -12 -14h-91q-13 0 -15 14l-8 108h-62l-8 -108q-2 -14 -15 -14h-91q-14 0 -12 14l75 672q2 14 16 14h132q14 0 16 -14z"/>
<glyph glyph-name="B" horiz-adv-x="365" unicode="B" d="M218 447v122q0 10 -7 17t-17 7h-32v-170h32q10 0 17 7t7 17zM218 131v159q0 10 -7 17t-17 7h-32v-207h32q10 0 17 7t7 17zM307 349q28 -27 28 -75v-148q0 -52 -37 -89t-89 -37h-150q-14 0 -14 14v672q0 14 14 14h150q52 0 89 -37t37 -89v-100q0 -46 -28 -77 q-15 -16 -36 -26q22 -8 36 -22z"/>
<glyph glyph-name="C" horiz-adv-x="355" unicode="C" d="M199 707q52 0 89 -37t37 -89v-80q0 -14 -13 -18l-91 -14q-13 -4 -13 10v97q0 10 -7 17t-17 7h-8q-10 0 -17 -7t-7 -17v-452q0 -10 7 -17t17 -7h8q10 0 17 7t7 17v140q0 14 13 10l91 -12q13 -4 13 -18v-125q0 -52 -37 -89t-89 -37h-38q-52 0 -89 37t-37 89v462q0 52 37 89 t89 37h38z"/>
<glyph glyph-name="D" d="M218 131v438q0 10 -7 17t-17 7h-32v-486h32q10 0 17 7t7 17zM209 700q52 0 89 -37t37 -89v-448q0 -52 -37 -89t-89 -37h-150q-14 0 -14 14v672q0 14 14 14h150z" unicode="D"/>
<glyph glyph-name="E" horiz-adv-x="330" unicode="E" d="M276 117q14 0 14 -14v-89q0 -14 -14 -14h-217q-14 0 -14 14v672q0 14 14 14h217q14 0 14 -14v-89q0 -14 -14 -14h-114v-144h99q14 0 14 -14v-89q0 -14 -14 -14h-99v-205h114z"/>
<glyph glyph-name="F" horiz-adv-x="320" unicode="F" d="M276 700q14 0 14 -14v-89q0 -14 -14 -14h-114v-144h99q14 0 14 -14v-89q0 -14 -14 -14h-99v-308q0 -14 -14 -14h-89q-14 0 -14 14v672q0 14 14 14h217z"/>
<glyph glyph-name="G" horiz-adv-x="360" unicode="G" d="M199 707q52 0 89 -37t37 -89v-32q0 -14 -13 -18l-91 -33q-13 -4 -13 10v68q0 10 -7 17t-17 7h-8q-10 0 -17 -7t-7 -17v-452q0 -10 7 -17t17 -7h8q10 0 17 7t7 17v178h-28v114h131q14 0 14 -14v-283q0 -52 -37 -89t-89 -37h-38q-52 0 -89 37t-37 89v462q0 52 37 89t89 37 h38z"/>
<glyph glyph-name="H" horiz-adv-x="390" unicode="H" d="M331 700q14 0 14 -14v-672q0 -14 -14 -14h-89q-14 0 -14 14v286h-66v-286q0 -14 -14 -14h-89q-14 0 -14 14v672q0 14 14 14h89q14 0 14 -14v-269h66v269q0 14 14 14h89z"/>
<glyph glyph-name="I" horiz-adv-x="207" unicode="I" d="M162 686v-672q0 -14 -14 -14h-89q-14 0 -14 14v672q0 14 14 14h89q14 0 14 -14z"/>
<glyph glyph-name="J" horiz-adv-x="355" unicode="J" d="M301 700q14 0 14 -14v-567q0 -52 -37 -89t-89 -37h-38q-52 0 -89 37t-37 89v127q0 14 13 18l91 24q13 4 13 -10v-154q0 -10 7 -17t17 -7h8q10 0 17 7t7 17v562q0 14 14 14h89z"/>
<glyph glyph-name="K" horiz-adv-x="403" unicode="K" d="M373 700q9 0 9 -9q0 -3 -1 -5l-134 -295l132 -377q2 -5 -1 -9.5t-9 -4.5h-99q-15 0 -18 12l-73 226l-17 -42v-182q0 -14 -14 -14h-89q-14 0 -14 14v672q0 14 14 14h89q14 0 14 -14v-215l92 217q5 12 19 12h100z"/>
<glyph glyph-name="L" horiz-adv-x="330" unicode="L" d="M291 117q14 0 14 -14v-89q0 -14 -14 -14h-135h-2h-1h-89q-14 0 -14 14v672q0 14 14 14h89q14 0 14 -14v-569h124z"/>
<glyph glyph-name="M" horiz-adv-x="480" unicode="M" d="M421 700q14 0 14 -14v-672q0 -14 -14 -14h-96q-14 0 -14 14v316l-66 -258q-1 -3 -3 -4.5t-4 0t-3 4.5l-66 258v-316q0 -14 -14 -14h-96q-14 0 -14 14v672q0 14 14 14h85q13 0 17 -14l79 -358l79 358q4 14 17 14h85z"/>
<glyph glyph-name="N" horiz-adv-x="410" unicode="N" d="M351 700q14 0 14 -14v-672q0 -14 -14 -14h-64q-15 0 -19 13l-106 331v-330q0 -14 -14 -14h-89q-14 0 -14 14v672q0 14 14 14h66q15 0 19 -13l104 -321v320q0 14 14 14h89z"/>
<glyph glyph-name="O" horiz-adv-x="360" unicode="O" d="M208 576q0 10 -7 17t-17 7h-8q-10 0 -17 -7t-7 -17v-452q0 -10 7 -17t17 -7h8q10 0 17 7t7 17v452zM325 119q0 -52 -37 -89t-89 -37h-38q-52 0 -89 37t-37 89v462q0 52 37 89t89 37h38q52 0 89 -37t37 -89v-462z"/>
<glyph glyph-name="P" horiz-adv-x="355" unicode="P" d="M218 416v153q0 10 -7 17t-17 7h-32v-201h32q10 0 17 7t7 17zM209 700q52 0 89 -37t37 -89v-163q0 -52 -37 -89t-89 -37h-47v-271q0 -14 -14 -14h-89q-14 0 -14 14v672q0 14 14 14h150z"/>
<glyph glyph-name="Q" horiz-adv-x="364" unicode="Q" d="M152 124q0 -10 7 -17t17 -7h8q10 0 17 7t7 17v452q0 10 -7 17t-17 7h-8q-10 0 -17 -7t-7 -17v-452zM326 -40q2 -4 2 -7q0 -8 -7 -11l-69 -31q-8 -2 -9 -2q-8 0 -13 8l-51 76h-18q-52 0 -89 37t-37 89v462q0 52 37 89t89 37h38q52 0 89 -37t37 -89v-462q0 -57 -42 -94z "/>
<glyph glyph-name="R" horiz-adv-x="376" unicode="R" d="M161 593v-201h32q10 0 17 7t7 17v153q0 10 -7 17t-17 7h-32zM354 14v-2l1 -2q0 -10 -11 -10h-91q-15 0 -19 14l-73 245v-249q-3 -10 -14 -10h-89q-14 0 -14 14v672q0 14 14 14h150q52 0 89 -37t37 -89v-163q0 -36 -19 -66t-50 -46z"/>
<glyph glyph-name="S" horiz-adv-x="350" unicode="S" d="M194 707q52 0 89 -37t37 -89v-38q0 -14 -13 -18l-91 -24q-13 -4 -13 10v65q0 10 -7 17t-17 7h-8q-10 0 -17 -7t-7 -17v-91q2 -23 15 -35l131 -98q24 -20 27 -61v-172q0 -52 -37 -89t-89 -37h-38q-52 0 -89 37t-37 89v96q0 14 13 18l91 24q13 4 13 -10v-123q0 -10 7 -17 t17 -7h8q10 0 17 7t7 17v132q-2 28 -16 41l-129 99q-28 25 -28 65v120q0 52 37 89t89 37h38z"/>
<glyph glyph-name="T" horiz-adv-x="336" unicode="T" d="M297 700q14 0 14 -14v-89q0 -14 -14 -14h-71v-569q0 -14 -14 -14h-89q-5 0 -9.5 4t-4.5 10v569h-70q-14 0 -14 14v89q0 14 14 14h258z"/>
<glyph glyph-name="U" horiz-adv-x="360" unicode="U" d="M311 700q14 0 14 -14v-567q0 -52 -37 -89t-89 -37h-38q-52 0 -89 37t-37 89v567q0 14 14 14h89q14 0 14 -14v-562q0 -10 7 -17t17 -7h8q10 0 17 7t7 17v562q0 14 14 14h89z"/>
<glyph glyph-name="V" horiz-adv-x="378" unicode="V" d="M355 700q14 0 12 -14l-118 -672q-2 -14 -16 -14h-88q-14 0 -16 14l-118 672q-2 14 12 14h108q13 0 15 -14l41 -424h4l41 424q2 14 15 14h108z"/>
<glyph glyph-name="W" horiz-adv-x="569" unicode="W" d="M546 700q14 0 12 -14l-118 -672q-2 -14 -16 -14h-88q-14 0 -16 14l-35 249h-1l-35 -249q-2 -14 -16 -14h-88q-14 0 -16 14l-118 672q-2 14 12 14h108q13 0 15 -14l45 -408h4l34 408q2 14 15 14h81q13 0 15 -14l34 -408h4l45 408q2 14 15 14h108z"/>
<glyph glyph-name="X" horiz-adv-x="378" unicode="X" d="M347 14q3 -14 -11 -14h-93q-14 0 -16 14l-38 198l-38 -198q-2 -14 -16 -14h-93q-14 0 -11 14l82 337l-82 335q-2 5 1.5 9.5t9.5 4.5h93q14 0 16 -14l38 -198l38 198q2 14 16 14h93q6 0 9.5 -4.5t1.5 -9.5l-82 -335z"/>
<glyph glyph-name="Y" d="M349 700q11 0 11 -10v-2l-1 -2l-115 -414v-258q0 -14 -14 -14h-90q-14 0 -14 14v258l-115 414l-1 2v2q0 10 11 10h106q14 0 16 -14l40 -252h4l40 252q2 14 16 14h106z" unicode="Y"/>
<glyph glyph-name="Z" horiz-adv-x="353" unicode="Z" d="M309 112q14 0 14 -14v-84q0 -14 -14 -14h-265q-14 0 -11 14l139 574h-128q-14 0 -14 14v84q0 14 14 14h263q6 0 9.5 -4.5t1.5 -9.5l-139 -574h130z"/>
<glyph glyph-name="bracketleft" horiz-adv-x="230" unicode="[" d="M206 720h-96v-740h96q14 0 14 -14v-68q0 -14 -14 -14h-182q-14 0 -14 14v904q0 14 14 14h182q14 0 14 -14v-68q0 -14 -14 -14z"/>
<glyph glyph-name="backslash" horiz-adv-x="292" unicode="\" d="M281 0h-54q-14 0 -18 13l-208 673l-1 2v2q0 10 11 10h54q14 0 18 -13l208 -674q0 -1 1 -3q0 -10 -11 -10z"/>
<glyph glyph-name="bracketright" horiz-adv-x="230" unicode="]" d="M24 720q-14 0 -14 14v68q0 14 14 14h182q14 0 14 -14v-904q0 -14 -14 -14h-182q-14 0 -14 14v68q0 14 14 14h96v740h-96z"/>
<glyph glyph-name="asciicircum" horiz-adv-x="278" unicode="^" d="M274 555q3 -5 3 -10q0 -4 -1 -6q-2 -6 -12 -6h-63q-8 0 -11 5l-51 70l-51 -70q-5 -5 -11 -5h-63q-10 0 -12 6q-1 2 -1 6q0 5 3 10l124 140q3 5 10 5h2q5 0 10 -5z"/>
<glyph glyph-name="underscore" horiz-adv-x="418" unicode="_" d="M34 -90q-14 0 -14 14v62q0 14 14 14h350q14 0 14 -14v-62q0 -14 -14 -14h-350z"/>
<glyph glyph-name="a" horiz-adv-x="356" unicode="a" d="M155 224h46l-19 221h-8zM335 14q2 -14 -12 -14h-91q-13 0 -15 14l-8 98h-62l-8 -98q-2 -14 -15 -14h-91q-14 0 -12 14l75 572q2 14 16 14h132q14 0 16 -14z"/>
<glyph glyph-name="b" horiz-adv-x="365" unicode="b" d="M218 381v88q0 10 -7 17t-17 7h-32v-136h32q10 0 17 7t7 17zM218 131v93q0 10 -7 17t-17 7h-32v-141h32q10 0 17 7t7 17zM307 283q28 -27 28 -75v-82q0 -52 -37 -89t-89 -37h-147q-17 0 -17 14v572q0 14 14 14h150q52 0 89 -37t37 -89v-66q0 -46 -28 -77q-15 -16 -36 -26 q22 -8 36 -22z"/>
<glyph glyph-name="c" horiz-adv-x="355" unicode="c" d="M199 607q52 0 89 -37t37 -89v-60q0 -14 -13 -18l-91 -14q-13 -4 -13 10v77q0 10 -7 17t-17 7h-8q-10 0 -17 -7t-7 -17v-352q0 -10 7 -17t17 -7h8q10 0 17 7t7 17v120q0 14 13 10l91 -12q13 -4 13 -18v-105q0 -52 -37 -89t-89 -37h-38q-52 0 -89 37t-37 89v362q0 52 37 89 t89 37h38z"/>
<glyph glyph-name="d" d="M218 131v338q0 10 -7 17t-17 7h-32v-386h32q10 0 17 7t7 17zM209 600q52 0 89 -37t37 -89v-348q0 -52 -37 -89t-89 -37h-150q-14 0 -14 14v572q0 14 14 14h150z" unicode="d"/>
<glyph glyph-name="e" horiz-adv-x="330" unicode="e" d="M276 117q14 0 14 -14v-89q0 -14 -14 -14h-217q-14 0 -14 14v572q0 14 14 14h217q14 0 14 -14v-89q0 -14 -14 -14h-114v-114h99q14 0 14 -14v-89q0 -14 -14 -14h-99v-135h114z"/>
<glyph glyph-name="f" horiz-adv-x="320" unicode="f" d="M276 600q14 0 14 -14v-89q0 -14 -14 -14h-114v-114h99q14 0 14 -14v-89q0 -14 -14 -14h-99v-238q0 -14 -14 -14h-89q-14 0 -14 14v572q0 14 14 14h217z"/>
<glyph glyph-name="g" horiz-adv-x="360" unicode="g" d="M199 607q52 0 89 -37t37 -89v-22q0 -14 -13 -18l-91 -33q-13 -4 -13 10v58q0 10 -7 17t-17 7h-8q-10 0 -17 -7t-7 -17v-352q0 -10 7 -17t17 -7h8q10 0 17 7t7 17v108h-28v114h131q14 0 14 -14v-213q0 -52 -37 -89t-89 -37h-38q-52 0 -89 37t-37 89v362q0 52 37 89t89 37 h38z"/>
<glyph glyph-name="h" horiz-adv-x="390" unicode="h" d="M331 600q14 0 14 -14v-572q0 -14 -14 -14h-89q-14 0 -14 14v226h-66v-226q0 -14 -14 -14h-89q-14 0 -14 14v572q0 14 14 14h89q14 0 14 -14v-229h66v229q0 14 14 14h89z"/>
<glyph glyph-name="i" horiz-adv-x="207" unicode="i" d="M162 586v-572q0 -14 -14 -14h-89q-14 0 -14 14v572q0 14 14 14h89q14 0 14 -14z"/>
<glyph glyph-name="j" horiz-adv-x="355" unicode="j" d="M301 600q14 0 14 -14v-467q0 -52 -37 -89t-89 -37h-38q-52 0 -89 37t-37 89v107q0 14 13 18l91 24q13 4 13 -10v-134q0 -10 7 -17t17 -7h8q10 0 17 7t7 17v462q0 14 14 14h89z"/>
<glyph glyph-name="k" horiz-adv-x="403" unicode="k" d="M373 600q9 0 9 -9q0 -3 -1 -5l-136 -255l134 -317q2 -5 -1 -9.5t-9 -4.5h-99q-15 0 -18 12l-73 166l-17 -32v-132q0 -14 -14 -14h-89q-14 0 -14 14v572q0 14 14 14h89q14 0 14 -14v-175l92 177q5 12 19 12h100z"/>
<glyph glyph-name="l" horiz-adv-x="330" unicode="l" d="M291 117q14 0 14 -14v-89q0 -14 -14 -14h-135h-2h-1h-89q-14 0 -14 14v572q0 14 14 14h89q14 0 14 -14v-469h124z"/>
<glyph glyph-name="m" horiz-adv-x="480" unicode="m" d="M421 600q14 0 14 -14v-572q0 -14 -14 -14h-96q-14 0 -14 14v266l-66 -238q-1 -3 -3 -4.5t-4 0t-3 4.5l-66 238v-266q0 -14 -14 -14h-96q-14 0 -14 14v572q0 14 14 14h85q13 0 17 -14l79 -308l79 308q4 14 17 14h85z"/>
<glyph glyph-name="n" horiz-adv-x="410" unicode="n" d="M351 600q14 0 14 -14v-572q0 -14 -14 -14h-64q-15 0 -19 13l-106 261v-260q0 -14 -14 -14h-89q-14 0 -14 14v572q0 14 14 14h66q15 0 19 -13l104 -291v290q0 14 14 14h89z"/>
<glyph glyph-name="o" horiz-adv-x="360" unicode="o" d="M208 476q0 10 -7 17t-17 7h-8q-10 0 -17 -7t-7 -17v-352q0 -10 7 -17t17 -7h8q10 0 17 7t7 17v352zM325 119q0 -52 -37 -89t-89 -37h-38q-52 0 -89 37t-37 89v362q0 52 37 89t89 37h38q52 0 89 -37t37 -89v-362z"/>
<glyph glyph-name="p" horiz-adv-x="355" unicode="p" d="M218 346v123q0 10 -7 17t-17 7h-32v-171h32q10 0 17 7t7 17zM209 600q52 0 89 -37t37 -89v-133q0 -52 -37 -89t-89 -37h-47v-201q0 -14 -14 -14h-89q-14 0 -14 14v572q0 14 14 14h150z"/>
<glyph glyph-name="q" horiz-adv-x="364" unicode="q" d="M152 124q0 -10 7 -17t17 -7h8q10 0 17 7t7 17v352q0 10 -7 17t-17 7h-8q-10 0 -17 -7t-7 -17v-352zM326 -40q2 -4 2 -7q0 -8 -7 -11l-69 -31q-8 -2 -9 -2q-8 0 -13 8l-51 76h-18q-52 0 -89 37t-37 89v362q0 52 37 89t89 37h38q52 0 89 -37t37 -89v-362q0 -57 -42 -94z "/>
<glyph glyph-name="r" horiz-adv-x="376" unicode="r" d="M162 493v-161h32q10 0 17 7t7 17v113q0 10 -7 17t-17 7h-32zM162 199v-185q0 -14 -15 -14h-89q-13 0 -13 14v572q0 14 14 14h150q52 0 89 -37t37 -89v-123q0 -35 -21.5 -65t-53.5 -47l95 -225l1 -2v-2q0 -10 -11 -10h-91q-16 0 -19 14z"/>
<glyph glyph-name="s" horiz-adv-x="350" unicode="s" d="M194 607q52 0 89 -37t37 -89v-38q0 -14 -13 -18l-91 -24q-13 -4 -13 10v65q0 10 -7 17t-17 7h-8q-10 0 -17 -7t-7 -17v-61q2 -23 15 -35l131 -98q24 -20 27 -61v-102q0 -52 -37 -89t-89 -37h-38q-52 0 -89 37t-37 89v56q0 14 13 18l91 24q13 4 13 -10v-83q0 -10 7 -17 t17 -7h8q10 0 17 7t7 17v62q-2 28 -16 41l-129 99q-28 25 -28 65v90q0 52 37 89t89 37h38z"/>
<glyph glyph-name="t" horiz-adv-x="336" unicode="t" d="M297 600q14 0 14 -14v-89q0 -14 -14 -14h-71v-469q0 -14 -14 -14h-89q-5 0 -9.5 4t-4.5 10v469h-70q-14 0 -14 14v89q0 14 14 14h258z"/>
<glyph glyph-name="u" horiz-adv-x="360" unicode="u" d="M311 600q14 0 14 -14v-467q0 -52 -37 -89t-89 -37h-38q-52 0 -89 37t-37 89v467q0 14 14 14h89q14 0 14 -14v-462q0 -10 7 -17t17 -7h8q10 0 17 7t7 17v462q0 14 14 14h89z"/>
<glyph glyph-name="v" horiz-adv-x="378" unicode="v" d="M355 600q14 0 12 -14l-118 -572q-2 -14 -16 -14h-88q-14 0 -16 14l-118 572q-2 14 12 14h108q13 0 15 -14l41 -374h4l41 374q2 14 15 14h108z"/>
<glyph glyph-name="w" horiz-adv-x="549" unicode="w" d="M526 600q14 0 12 -14l-108 -572q-2 -14 -16 -14h-88q-14 0 -16 14l-35 209h-1l-35 -209q-2 -14 -16 -14h-88q-14 0 -16 14l-108 572q-2 14 12 14h108q13 0 15 -14l35 -338h4l38 338q2 14 15 14h73q13 0 15 -14l38 -338h4l35 338q2 14 15 14h108z"/>
<glyph glyph-name="x" horiz-adv-x="378" unicode="x" d="M347 14q3 -14 -11 -14h-93q-14 0 -16 14l-38 148l-38 -148q-2 -14 -16 -14h-93q-14 0 -11 14l82 287l-82 285q-2 5 1.5 9.5t9.5 4.5h93q14 0 16 -14l38 -148l38 148q2 14 16 14h93q6 0 9.5 -4.5t1.5 -9.5l-82 -285z"/>
<glyph glyph-name="y" d="M349 600q11 0 11 -10v-2l-1 -2l-115 -354v-218q0 -14 -14 -14h-90q-14 0 -14 14v218l-115 354l-1 2v2q0 10 11 10h106q14 0 16 -14l40 -192h4l40 192q2 14 16 14h106z" unicode="y"/>
<glyph glyph-name="z" horiz-adv-x="353" unicode="z" d="M309 112q14 0 14 -14v-84q0 -14 -14 -14h-265q-14 0 -11 14l139 474h-128q-14 0 -14 14v84q0 14 14 14h263q6 0 9.5 -4.5t1.5 -9.5l-139 -474h130z"/>
<glyph glyph-name="braceleft" horiz-adv-x="296" unicode="{" d="M208 691h-2q-8 0 -16.5 -2t-19.5 -13.5t-11 -30.5q0 -30 21 -79q3 -8 15.5 -35t17.5 -41q14 -31 14 -65q0 -60 -56 -75q56 -15 56 -75q0 -15 -3.5 -31.5t-7.5 -25.5l-3 -8q-5 -15 -17.5 -42t-15.5 -34q-21 -49 -21 -79q0 -19 10.5 -30.5t19 -13.5t17.5 -2h2h33q7 0 11 -4 t4 -10v-57q0 -8 -4 -13t-8 -6l-3 -1q-17 -3 -32 -3q-18 0 -35.5 3.5t-25.5 7.5l-9 4q-3 2 -8.5 5t-19.5 14t-24.5 24t-19.5 35t-9 47v8q2 64 38 131q35 66 35 82q0 34 -42 34h-5h-29q-7 0 -11 4t-4 11v50q0 7 4 11t11 4h29h5q42 0 42 34q0 16 -35 82q-36 67 -38 131v8 q0 25 8.5 47t20 35.5t23.5 23.5t20 15l9 4q30 15 70 15q15 0 32 -3q15 -3 15 -20v-57q0 -6 -4 -10t-11 -4h-33z"/>
<glyph glyph-name="bar" horiz-adv-x="160" unicode="|" d="M106 -95h-52q-14 0 -14 14v862q0 14 14 14h52q14 0 14 -14v-862q0 -14 -14 -14z"/>
<glyph glyph-name="braceright" horiz-adv-x="296" unicode="}" d="M88 691h-33q-7 0 -11 4t-4 10v57q0 8 4 13t8 6l3 1q17 3 32 3q18 0 35.5 -3.5t25.5 -7.5l9 -4q3 -2 8.5 -5t19.5 -14t24.5 -24.5t19.5 -36t9 -47.5v-6q-2 -60 -38 -131q-1 -2 -9 -16t-12.5 -23t-9 -21.5t-4.5 -20.5q0 -35 42 -35h5h29q7 0 11 -4t4 -11v-50q0 -7 -4 -11 t-11 -4h-29h-5q-42 0 -42 -35q0 -8 4.5 -20.5t9 -21.5t12.5 -23t9 -16q36 -71 38 -131v-6q0 -25 -8.5 -47t-20 -36t-23.5 -24.5t-20 -15.5l-9 -4q-30 -15 -70 -15q-15 0 -32 3q-15 3 -15 20v57q0 6 4 10t11 4h33h2q9 0 17.5 2t19 13.5t10.5 30.5q0 30 -21 79q-3 7 -15.5 34 t-17.5 42q-14 31 -14 65q0 60 56 75q-56 15 -56 75q0 15 3.5 31.5t7.5 25.5l3 8q5 14 17.5 41t15.5 35q21 49 21 79q0 19 -11 30.5t-19.5 13.5t-16.5 2h-2z"/>
<glyph glyph-name="cent" horiz-adv-x="360" unicode="¢" d="M221 420q-13 -4 -13 10v46q0 10 -7 17t-17 7h-8q-10 0 -17 -7t-7 -17v-248q0 -10 7 -17t17 -7h8q10 0 17 7t7 17v91q0 14 13 10l91 -12q13 -4 13 -18v-76q0 -46 -29.5 -81t-74.5 -43v-85q0 -14 -14 -14h-54q-14 0 -14 14v85q-45 8 -74.5 43t-29.5 81v258q0 46 29.5 81 t74.5 43v81q0 14 14 14h54q14 0 14 -14v-81q45 -8 74.5 -43t29.5 -81v-29q0 -14 -13 -18z"/>
<glyph glyph-name="copyright" horiz-adv-x="260" unicode="©" d="M135 673q13 0 22.5 -9.5t9.5 -22.5v-21q0 -4 -3 -4l-24 -4q-1 -1 -2 0t-1 3v25q0 6 -6 6h-2q-6 0 -6 -6v-85q0 -6 6 -6h2q6 0 6 6v28q0 3 3 3l24 -4q3 -2 3 -4v-24q0 -14 -9.5 -23t-22.5 -9h-10q-13 0 -22.5 9t-9.5 23v87q0 13 9.5 22.5t22.5 9.5h10zM130 507 q38 0 64 26.5t26 63.5t-26 63.5t-64 26.5t-64 -26.5t-26 -63.5t26 -63.5t64 -26.5zM130 707q46 0 78 -32t32 -78t-32 -78t-78 -32t-78 32t-32 78t32 78t78 32z"/>
<glyph glyph-name="registered" horiz-adv-x="260" unicode="®" d="M130 507q38 0 64 26.5t26 63.5t-26 63.5t-64 26.5t-64 -26.5t-26 -63.5t26 -63.5t64 -26.5zM130 707q46 0 78 -32t32 -78t-32 -78t-78 -32t-78 32t-32 78t32 78t78 32zM138 618v18q0 6 -6 6h-8v-30h8q6 0 6 6zM146 592l23 -61q1 -3 -2 -3h-23q-2 0 -4 3l-16 51v-52 q0 -2 -3 -2h-19q-3 0 -3 3v134q0 4 3 4h33q12 0 20.5 -9.5t8.5 -22.5v-18q0 -21 -18 -27z"/>
<glyph glyph-name="degree" horiz-adv-x="168" unicode="°" d="M84 612q16 0 27 11t11 27t-11 27t-27 11t-27 -11t-11 -27t11 -27t27 -11zM84 714q26 0 45 -19t19 -45t-19 -45t-45 -19t-45 19t-19 45t19 45t45 19z"/>
<glyph glyph-name="paragraph" horiz-adv-x="481" unicode="¶" d="M213 392v201h-32q-10 0 -17 -7t-7 -17v-153q0 -10 7 -17t17 -7h32zM427 700q14 0 14 -14v-672q0 -14 -14 -14h-45q-14 0 -14 14v579h-38v-579q0 -14 -14 -14h-89q-14 0 -14 14v271h-47q-52 0 -89 37t-37 89v163q0 52 37 89t89 37h261z"/>
<glyph glyph-name="questiondown" horiz-adv-x="382" unicode="¿" d="M194 -7q-46 0 -78.5 15.5t-49 42.5t-23.5 56t-7 62v12q1 57 11 76.5t65 84.5q6 7 18 20t18.5 20.5t14 19t12.5 21.5q9 21 14 80l1 15q0 11 12 11h42q11 0 13 -11q7 -85 8 -95v-5q0 -26 -11 -49t-39.5 -60.5t-37.5 -50.5q-16 -24 -19.5 -37t-3.5 -35v-7q0 -38 8 -55.5 t32 -17.5q36 0 36 51v53q0 10 11 14l95 23q11 2 11 -9v-76q0 -81 -40 -125t-113 -44zM284 643q0 -26 -19 -45t-45 -19t-45 19t-19 45t19 45t45 19t45 -19t19 -45z"/>
<glyph glyph-name="multiply" horiz-adv-x="355" unicode="×" d="M259 366l87 -87q4 -4 4 -10t-4 -10l-54 -54q-4 -4 -10 -4t-10 4l-87 87l-87 -87q-4 -4 -10 -4t-10 4l-54 54q-4 4 -4 10t4 10l87 87l-87 87q-4 4 -4 10t4 10l54 54q4 4 10 4t10 -4l87 -87l87 87q4 4 10 4t10 -4l54 -54q4 -4 4 -10t-4 -10z"/>
<glyph glyph-name="divide" horiz-adv-x="438" unicode="÷" d="M219 451q-26 0 -45 19t-19 45t19 45t45 19t45 -19t19 -45t-19 -45t-45 -19zM219 281q26 0 45 -19t19 -45t-19 -45t-45 -19t-45 19t-19 45t19 45t45 19zM394 418q14 0 14 -14v-76q0 -14 -14 -14h-350q-14 0 -14 14v76q0 14 14 14h350z"/>
<glyph glyph-name="endash" horiz-adv-x="352" unicode="–" d="M44 314q-14 0 -14 14v76q0 14 14 14h264q14 0 14 -14v-76q0 -14 -14 -14h-264z"/>
<glyph glyph-name="emdash" horiz-adv-x="438" unicode="—" d="M44 314q-14 0 -14 14v76q0 14 14 14h350q14 0 14 -14v-76q0 -14 -14 -14h-350z"/>
<glyph glyph-name="quoteleft" horiz-adv-x="137" unicode="‘" d="M104 699v-15q0 -6 -6 -6q-38 -3 -45 -45q-3 -14 3 -17q2 -1 4.5 -0.5t6.5 1t5 0.5q28 0 47 -17q18 -16 18 -46q0 -22 -16 -39q-18 -19 -46 -19q-30 0 -49 19.5t-23 49.5q-2 16 -2 25q0 10 1 15q8 57 52 86q15 9 26 13h3q3 1 7 2t6 1h1q7 0 7 -8z"/>
<glyph glyph-name="quotesinglbase" horiz-adv-x="217" unicode="‚" d="M73 -82v15q0 6 6 6q13 0 27 10.5t18 34.5q3 14 -3 17q-2 1 -4.5 0.5t-6.5 -1t-5 -0.5q-28 0 -47 17q-18 17 -18 46q0 22 16 39q18 19 45 19q29 0 49 -20t24 -49q2 -16 2 -25q0 -10 -1 -15q-8 -57 -52 -86q-15 -9 -26 -13l-3 -1q-3 0 -7 -1t-6 -1h-1q-7 0 -7 8z"/>
<glyph glyph-name="quotedblleft" horiz-adv-x="305" unicode="“" d="M104 699v-15q0 -6 -6 -6q-38 -3 -45 -45q-3 -14 3 -17q2 -1 4.5 -0.5t6.5 1t5 0.5q28 0 47 -17q18 -16 18 -46q0 -22 -16 -39q-18 -19 -46 -19q-30 0 -49 19.5t-23 49.5q-2 16 -2 25q0 10 1 15q8 57 52 86q15 9 26 13h3q3 1 7 2t6 1h1q7 0 7 -8zM272 699v-15q0 -6 -6 -6 q-38 -3 -45 -45q-3 -14 3 -17q2 -1 4.5 -0.5t6.5 1t5 0.5q28 0 47 -17q18 -16 18 -46q0 -22 -16 -39q-18 -19 -46 -19q-30 0 -49 19.5t-23 49.5q-2 16 -2 25q0 10 1 15q8 57 52 86q15 9 26 13h3q3 1 7 2t6 1h1q7 0 7 -8z"/>
<glyph glyph-name="quotedblright" horiz-adv-x="305" unicode="”" d="M201 504v15q0 6 6 6q13 0 27 10.5t18 34.5q3 14 -3 17q-2 1 -4.5 0.5t-6.5 -1t-5 -0.5q-28 0 -47 17q-18 17 -18 46q0 22 16 39q18 19 46 19q29 0 48.5 -19.5t23.5 -49.5q2 -16 2 -25q0 -10 -1 -15q-8 -57 -52 -86q-15 -9 -26 -13l-3 -1q-3 0 -7 -1t-6 -1h-1q-7 0 -7 8z M33 504v15q0 6 6 6q13 0 27 10.5t18 34.5q3 14 -3 17q-2 1 -4.5 0.5t-6.5 -1t-5 -0.5q-28 0 -47 17q-18 17 -18 46q0 22 16 39q18 19 46 19q29 0 48.5 -19.5t23.5 -49.5q2 -16 2 -25q0 -10 -1 -15q-8 -57 -52 -86q-15 -9 -26 -13l-3 -1q-3 0 -7 -1t-6 -1h-1q-7 0 -7 8z"/>
<glyph glyph-name="ellipsis" horiz-adv-x="500" unicode="…" d="M352 57q0 26 19 45t45 19t45 -19t19 -45t-19 -45t-45 -19t-45 19t-19 45zM186 57q0 26 19 45t45 19t45 -19t19 -45t-19 -45t-45 -19t-45 19t-19 45zM20 57q0 26 19 45t45 19t45 -19t19 -45t-19 -45t-45 -19t-45 19t-19 45z"/>
<glyph glyph-name="fraction" horiz-adv-x="292" unicode="⁄" d="M65 0h-54q-11 0 -11 10v1q1 1 1 2l208 674q4 13 18 13h54q11 0 11 -10v-2l-1 -2l-208 -673q-4 -13 -18 -13z"/>
<glyph glyph-name="trademark" horiz-adv-x="269" unicode="™" d="M107 700q4 0 4 -4v-29q0 -4 -4 -4h-23v-153q0 -4 -4 -4h-29q-4 0 -4 4v153h-23q-4 0 -4 4v29q0 4 4 4h83zM245 700q4 0 4 -4v-186q0 -4 -5 -4h-30q-5 0 -5 4v86l-21 -82q-2 -3 -3 0l-21 82v-86q0 -4 -4 -4h-31q-4 0 -4 4v186q0 4 4 4h28q3 0 5 -4l25 -100l25 100q0 4 5 4 h28z"/>
<glyph glyph-name="minus" horiz-adv-x="438" unicode="−" d="M394 314h-350q-14 0 -14 14v76q0 14 14 14h350q14 0 14 -14v-76q0 -14 -14 -14z"/>
</font>
</defs>
</svg>
