<?xml version="1.0" encoding="UTF-8" standalone="no"?>
<!DOCTYPE svg  PUBLIC '-//W3C//DTD SVG 1.1//EN'  'http://www.w3.org/Graphics/SVG/1.1/DTD/svg11.dtd'>
<svg xmlns="http://www.w3.org/2000/svg">
<defs>
<font id="JasmineUPCBold-Regular" horiz-adv-x="1548">
<font-face underline-position="-123" font-weight="700" descent="-820" panose-1="2 2 8 3 7 5 5 2 3 4" units-per-em="4096" unicode-range="U+0020-2122" bbox="-119 -705 3389 2730" x-height="1200" underline-thickness="20" font-family="JasmineUPCBold" ascent="3276" cap-height="1831"/>
<missing-glyph d="M136 0v2730h1089v-2730h-1089zM272 136h817v2458h-817v-2458z" horiz-adv-x="1497"/>
<glyph glyph-name=".notdef" d="M136 0v2730h1089v-2730h-1089zM272 136h817v2458h-817v-2458z" horiz-adv-x="1497"/>
<glyph glyph-name="glyph1" horiz-adv-x="0"/>
<glyph glyph-name="glyph2" horiz-adv-x="0"/>
<glyph glyph-name="space" horiz-adv-x="909" unicode=" "/>
<glyph glyph-name="space" horiz-adv-x="909" unicode=" "/>
<glyph glyph-name="exclam" horiz-adv-x="901" unicode="!" d="M565 610q-12 -73 -31.5 -106t-82.5 -33q-64 0 -81 33.5t-30 118.5l-152 1060q0 185 263 185q258 0 258 -197l-13 -135zM217 152q0 90 73.5 141t168.5 51q55 0 109 -24t89 -67.5t35 -100.5q0 -88 -78 -138.5t-168 -50.5q-81 0 -155 54t-74 135z"/>
<glyph glyph-name="quotedbl" horiz-adv-x="1450" unicode='&quot;' d="M946 1069l-110 598q0 84 49.5 142.5t118.5 58.5t116 -58.5t47 -142.5l-106 -598h-115zM389 1069l-110 598q0 81 49.5 141t117.5 60q71 0 119.5 -59.5t48.5 -141.5l-110 -598h-115z"/>
<glyph glyph-name="numbersign" horiz-adv-x="1700" unicode="#" d="M762 1135l-107 -299h291l103 299h-287zM1040 389q-25 -76 -49.5 -111.5t-85.5 -35.5q-49 0 -81.5 33.5t-32.5 80.5q0 11 12 62l69 200h-286l-82 -229q-21 -68 -47.5 -107.5t-83.5 -39.5q-53 0 -88 33t-35 85q0 26 16 66l66 192h-123q-135 0 -135 107q0 106 131 106h201 l102 304h-131q-131 0 -131 106q0 107 127 107h213l65 188q29 83 51 115t84 32q50 0 84.5 -35.5t34.5 -82.5q0 -24 -16 -66l-49 -151h286l66 192q30 81 52 112t83 31q47 0 79 -34.5t32 -83.5q0 -32 -13 -62l-53 -155h119q131 0 131 -107q0 -106 -127 -106h-197l-102 -304h123 q135 0 135 -106q0 -107 -131 -107h-205z"/>
<glyph glyph-name="dollar" horiz-adv-x="1700" unicode="$" d="M754 2023q0 71 18.5 107.5t83.5 36.5q64 0 81 -36t17 -103v-218q161 -8 312 -88.5t151 -218.5q0 -63 -38.5 -103t-100.5 -40q-80 0 -104 33.5t-50 114t-78.5 122t-181.5 41.5q-130 0 -218.5 -59t-88.5 -182q0 -131 97 -185.5t349 -147.5t378 -207.5t126 -332.5 q0 -145 -77 -259.5t-205 -179t-271 -69.5v-155q0 -109 -17.5 -155t-80.5 -46q-61 0 -81.5 35t-20.5 104v217q-180 13 -320 74q-101 53 -179.5 148.5t-78.5 191.5q0 94 139 94q62 0 89.5 -26.5t54.5 -92.5q55 -128 102 -168q87 -86 266 -86q146 0 247.5 64t101.5 203 q0 109 -91 180q-91 66 -315 147l-94 37q-199 69 -295 156q-67 58 -109.5 156t-42.5 188q0 142 72 250.5t191 170t262 74.5v213z"/>
<glyph glyph-name="percent" horiz-adv-x="2347" unicode="%" d="M745 1380q0 430 -180 430q-176 0 -176 -442q0 -463 176 -463q180 0 180 475zM1962 492q0 430 -176 430t-176 -459q0 -447 176 -447t176 476zM684 82q-49 -68 -70.5 -83t-89.5 -15q-98 0 -98 41q0 16 49 81l1208 1651q48 65 70.5 79.5t93.5 14.5q86 0 86 -28 q0 -30 -41 -78zM1278 479q0 234 138 395.5t370 161.5q157 0 272.5 -76.5t175.5 -205t60 -283.5q0 -163 -59 -291.5t-176 -203t-281 -74.5q-234 0 -367 167.5t-133 409.5zM61 1368q0 152 60.5 279t175 202.5t268.5 75.5q156 0 271.5 -76.5t176 -205.5t60.5 -283 q0 -163 -58 -292t-173.5 -203t-280.5 -74q-234 0 -367 167.5t-133 409.5z"/>
<glyph glyph-name="ampersand" horiz-adv-x="2097" unicode="&amp;" d="M1110 1483q0 90 -59 147.5t-150 57.5q-84 0 -142.5 -55.5t-58.5 -137.5q0 -77 38 -146t118 -178q254 141 254 312zM598 836q-180 -139 -180 -324q0 -150 99 -247t249 -97q90 0 150.5 24.5t148.5 81.5zM1368 541l33 -37q160 192 160 303q0 39 -19 57.5t-60 39t-57 35 t-16 44.5q0 70 111 70h389q110 0 110 -82q0 -40 -57 -66q-64 -26 -89 -48.5t-63 -90.5l-286 -397q160 -168 356 -168q30 0 81 10t71 10q24 0 42.5 -20t18.5 -45q0 -69 -90 -111q-137 -74 -315 -74q-234 0 -467 168q-248 -176 -549 -176q-151 0 -297 54t-238 163.5t-92 265.5 q0 352 426 545q-160 212 -160 410q0 107 55 203t150 157q178 107 410 107q205 0 358.5 -98.5t153.5 -290.5q0 -160 -136 -278.5t-319 -192.5z"/>
<glyph glyph-name="quotesingle" horiz-adv-x="651" unicode="&apos;" d="M266 1069l-110 598q0 81 50 141t118 60q70 0 119 -59t49 -142l-111 -598h-115z"/>
<glyph glyph-name="parenleft" horiz-adv-x="848" unicode="(" d="M680 -524q-109 0 -229 164q-161 208 -255 495.5t-94 556.5q0 405 213 787q111 192 242 323q66 66 148 66q32 0 56.5 -18.5t24.5 -51.5q0 -28 -57 -160q-225 -464 -225 -933q0 -497 221 -1004q53 -123 53 -152q0 -37 -30.5 -55t-67.5 -18z"/>
<glyph glyph-name="parenright" horiz-adv-x="848" unicode=")" d="M156 1868q104 0 225 -160q165 -215 258.5 -501.5t93.5 -555.5q0 -410 -217 -786q-106 -187 -237 -324q-65 -65 -148 -65q-82 0 -82 69q0 18 57 164q226 463 226 930q0 481 -221 1003q-54 105 -54 156q0 33 31 51.5t68 18.5z"/>
<glyph glyph-name="asterisk" horiz-adv-x="999" unicode="*" d="M561 1184q37 -72 37 -123q0 -45 -28 -78t-74 -33q-42 0 -70.5 29.5t-28.5 73.5q0 46 25 110l29 82q28 74 28 86q0 25 -16 25q-15 0 -33 -17.5t-27 -30t-30 -42.5q-57 -77 -88 -110.5t-76 -33.5q-43 0 -73 28t-30 71q0 66 55.5 88t153.5 39q27 0 75 11.5t48 33.5 q0 25 -55.5 35t-95.5 10q-89 10 -141 32t-52 91q0 37 29 63.5t70 26.5q50 0 86.5 -35.5t96.5 -108.5t83 -73q16 0 16 24q0 19 -24 70l-25 69q-37 83 -37 127q0 46 28.5 72.5t69.5 26.5q43 0 71 -32t28 -71q0 -51 -39 -146t-39 -116q0 -20 12 -20q24 0 78.5 75.5t90.5 114.5 t89 39q45 0 72 -25.5t27 -68.5q0 -74 -67 -100t-170 -41t-103 -35q0 -25 111.5 -38.5t176 -35t64.5 -90.5q0 -98 -98 -98q-35 0 -70 24t-57.5 50t-65.5 77q-49 70 -78 70q-12 0 -12 -21q0 -23 20 -73z"/>
<glyph glyph-name="plus" horiz-adv-x="1651" unicode="+" d="M713 836v532h237v-532h533v-238h-533v-532h-237v532h-529v238h529z"/>
<glyph glyph-name="comma" horiz-adv-x="897" unicode="," d="M463 -4q-115 0 -188.5 61.5t-73.5 184.5q38 176 258 176q88 0 155 -37q107 -71 107 -209q0 -122 -74 -229q-79 -115 -177 -191t-151 -76q-17 0 -24 21q0 30 48 73t67 70q53 71 53 156z"/>
<glyph glyph-name="hyphen" horiz-adv-x="1683" unicode="-" d="M283 672v299h1147v-299h-1147z"/>
<glyph glyph-name="period" horiz-adv-x="848" unicode="." d="M426 0q-121 0 -189.5 66t-68.5 155q0 87 68 152t190 65q123 0 190.5 -65t67.5 -156q0 -87 -68 -152t-190 -65z"/>
<glyph glyph-name="slash" horiz-adv-x="1790" unicode="/" d="M1667 1638l-1163 -1638h-344l1167 1638h340z"/>
<glyph glyph-name="zero" horiz-adv-x="1987" unicode="0" d="M1008 1561q-195 0 -278 -198t-83 -462q0 -263 83 -461t278 -198q196 0 278 196t82 463q0 268 -82 464t-278 196zM1819 901q0 -250 -79.5 -454t-262 -329t-469.5 -126q-422 0 -616.5 258t-194.5 651q0 251 80 455.5t262 329t469 124.5q288 0 470 -124.5t261.5 -329.5 t79.5 -455z"/>
<glyph glyph-name="one" horiz-adv-x="1987" unicode="1" d="M537 119q0 42 22.5 76t58.5 34h58q75 0 110 41q25 29 25 119v914q0 65 -16 90q-26 20 -74 20h-164q-65 0 -78 12q-8 13 -8 164q5 14 125.5 25t214.5 41q118 36 200 95.5t144 59.5q107 0 107 -135v-1286q0 -81 28 -115q34 -45 82 -45h62q94 0 94 -110q0 -119 -90 -119 h-811q-90 0 -90 119z"/>
<glyph glyph-name="two" horiz-adv-x="1987" unicode="2" d="M467 1143q-119 0 -182.5 61t-63.5 156q0 60 17 102q126 344 725 353q238 0 422.5 -60t288 -170.5t112.5 -261.5q0 -140 -62 -231.5t-161 -150.5t-272.5 -133.5t-266.5 -123.5q-167 -80 -262 -161.5t-98 -133.5q0 -52 10.5 -67t50.5 -15h668q103 0 168 37q45 29 92 90.5 t92 61.5q33 -9 33 -90l-29 -287q0 -63 -37 -90q-45 -29 -151 -29h-1217q-111 0 -131 33t-20 110q0 175 81 316q66 108 152.5 193.5t200 159.5t274.5 151q283 145 360.5 199.5t77.5 160.5q-20 229 -381 229q-131 0 -235.5 -46.5t-104.5 -133.5q0 -15 4.5 -42.5t4.5 -47.5 q0 -115 -160 -139z"/>
<glyph glyph-name="three" horiz-adv-x="1987" unicode="3" d="M483 1311q-81 0 -130.5 41.5t-49.5 113.5q0 26 16 82q86 248 644 267q211 0 381.5 -44t269 -135.5t98.5 -230.5q-2 -212 -184 -290t-303 -87q56 0 182 -28.5t245 -128.5t122 -293q0 -201 -111.5 -333t-298.5 -192.5t-418 -60.5q-180 0 -330 45.5t-249.5 132t-128.5 203.5 q-5 33 -5 86q0 115 70 180q57 57 148 57q130 0 172 -102q16 -33 16 -66q0 -29 -12.5 -69.5t-12.5 -57.5q0 -44 54 -82q90 -73 254 -73q67 0 147 12q141 24 199.5 103t58.5 217q-4 126 -72 196.5t-154 93t-189.5 30t-116.5 11.5q-50 20 -50 90q0 71 50 103q21 14 103.5 19 t149 20.5t136.5 70.5q61 49 61 136q0 68 -39 125t-108 75q-87 21 -172 21q-163 0 -234 -66q-26 -23 -35.5 -77t-39.5 -81t-134 -34z"/>
<glyph glyph-name="four" horiz-adv-x="1987" unicode="4" d="M1090 1298q0 82 -41 82q-94 0 -340 -258q-226 -237 -226 -385q17 -24 99 -24h508v585zM1536 496v-107q0 -81 29 -115q32 -45 86 -45h57q41 0 67.5 -29t26.5 -77q0 -123 -90 -123h-807q-82 0 -82 106q0 123 86 123h45q74 0 115 41q21 29 21 119v107h-865q-90 0 -106 36 q-13 28 -13 62q0 113 120.5 307t314.5 397q144 152 311.5 268.5t314.5 180t230 63.5q139 0 139 -106v-991h250q77 0 82 -107q0 -110 -78 -110h-254z"/>
<glyph glyph-name="five" horiz-adv-x="1987" unicode="5" d="M1700 1798q0 -94 -68 -193.5t-272 -134.5q-73 -12 -156 -12q-121 0 -252.5 18t-241 43t-116.5 29l-107 -436q9 7 82 38q92 40 233 71.5t324 31.5q331 -12 501.5 -182.5t170.5 -443.5q-1 -217 -104 -358.5t-278 -209t-396 -75.5q-15 0 -46 -2t-44 -2q-291 0 -498 106.5 t-207 327.5q0 92 62 146t164 54q106 -13 134.5 -65t41.5 -152q11 -88 100 -132t211 -44q121 0 225 41q106 44 161.5 143t55.5 218q0 212 -147 315q-121 82 -307 82q-127 0 -247 -37t-175 -82q-78 -57 -139 -57q-33 0 -50 8q-69 25 -69 111l196 847q102 -14 308.5 -37 t388.5 -28q169 0 347.5 32.5t188.5 32.5q19 0 25 -12z"/>
<glyph glyph-name="six" horiz-adv-x="1987" unicode="6" d="M1008 942q-179 -3 -280 -106t-101 -242t101 -242t280 -106q183 3 282 101.5t99 234.5q0 90 -45 173.5t-131.5 135t-204.5 51.5zM1454 1679q-9 -5 -122.5 -28.5t-232.5 -76.5t-231 -161q-136 -128 -184 -332q6 5 46.5 36.5t134 57t245.5 25.5q320 0 514.5 -163t194.5 -496 q-17 -276 -246.5 -416.5t-581.5 -140.5q-260 0 -444.5 97.5t-279.5 265.5t-95 374q0 34 8 106q37 311 193.5 514.5t350.5 303t362.5 135.5t273.5 39q61 0 96 -23.5t35 -54.5q0 -37 -37 -62z"/>
<glyph glyph-name="seven" horiz-adv-x="1987" unicode="7" d="M254 1294q11 46 28 206.5t21 240.5q4 61 103 61h1314q111 0 119 -37q0 -73 -60 -186.5t-195 -335.5t-195 -342q-105 -204 -164.5 -376.5t-95.5 -322t-48 -169.5q-18 -37 -262 -37q-221 0 -233 37q-13 26 -13 69q0 69 31 169t95 226.5t165 276.5q134 194 225.5 306.5 t187 222.5t103.5 139q0 61 -57 61h-729q-82 0 -107 -16q-35 -19 -56 -47t-44 -75.5t-35 -66.5q-19 -32 -65 -32q-33 0 -33 28z"/>
<glyph glyph-name="eight" horiz-adv-x="1987" unicode="8" d="M1389 1393q0 90 -84.5 135t-223.5 45q-348 -7 -348 -201q0 -99 147.5 -154t204.5 -55q49 0 175.5 60t128.5 170zM889 897q-12 0 -102 -45t-166 -123t-80 -184q0 -137 125 -214t313 -77q172 7 290 68.5t132 185.5q0 202 -192 287.5t-320 101.5zM618 999q-23 0 -108.5 39 t-160.5 126.5t-75 224.5q17 245 241.5 337.5t524.5 92.5q306 -3 509.5 -112.5t203.5 -309.5q-5 -288 -344 -361q180 -38 299.5 -152t130.5 -290q0 -326 -207 -465t-637 -145q-397 0 -599.5 147t-202.5 410q5 131 65 222.5t136.5 141.5t142.5 72t81 22z"/>
<glyph glyph-name="nine" horiz-adv-x="1987" unicode="9" d="M963 860q180 0 282.5 105t102.5 247q0 141 -99 240.5t-286 99.5q-117 -1 -202.5 -50t-128 -126t-42.5 -164q0 -138 100.5 -243.5t272.5 -108.5zM324 111q14 9 116.5 22.5t208 36.5t229.5 75t240 144q83 71 122.5 139.5t50 124t12.5 68.5q-6 -5 -46 -36t-134 -57t-246 -26 q-208 0 -367 70t-250.5 218.5t-91.5 375.5q16 176 127.5 300.5t293 188.5t406.5 64q413 0 616.5 -187t203.5 -526q0 -30 -9 -131q-37 -373 -252.5 -596t-490.5 -311t-514 -88q-78 0 -111 4q-143 12 -143 82q0 27 29 45z"/>
<glyph glyph-name="colon" horiz-adv-x="1016" unicode=":" d="M520 1196q-121 0 -189.5 66t-68.5 155q0 87 68 152t190 65q123 0 190.5 -65t67.5 -156q0 -87 -68 -152t-190 -65zM520 0q-121 0 -189.5 66t-68.5 155q0 87 68 152t190 65q123 0 190.5 -65t67.5 -156q0 -87 -68 -152t-190 -65z"/>
<glyph glyph-name="semicolon" horiz-adv-x="1016" unicode=";" d="M537 -4q-117 0 -194 51t-77 141q0 12 8 54q24 90 95 133t159 43q76 0 144 -37q110 -69 110 -221q0 -114 -69 -217q-74 -106 -173 -184t-147 -78q-19 0 -24 16q0 30 47.5 72.5t66.5 70.5q54 73 54 156zM528 1196q-121 0 -189.5 66t-68.5 155q0 87 68 152t190 65 q123 0 190.5 -65t67.5 -156q0 -87 -68 -152t-190 -65z"/>
<glyph glyph-name="less" horiz-adv-x="1569" unicode="&lt;" d="M1335 156l-1106 663l1098 672v-254l-696 -418l704 -401v-262z"/>
<glyph glyph-name="equal" horiz-adv-x="1765" unicode="=" d="M299 1184h1204v-226h-1204v226zM299 684h1204v-225h-1204v225z"/>
<glyph glyph-name="greater" horiz-adv-x="1569" unicode="&gt;" d="M283 418l704 401l-696 418v254l1098 -672l-1106 -663v262z"/>
<glyph glyph-name="question" horiz-adv-x="1712" unicode="?" d="M401 1130q-188 7 -188 246q8 110 89.5 197.5t232 137.5t350.5 50q304 0 478.5 -112t180.5 -297q0 -204 -153.5 -310.5t-309.5 -148.5q-37 -9 -45 -111l-24 -229h-275l-28 283q0 69 8 86q10 16 125.5 58.5t200.5 108t104 189.5q0 269 -283 274q-144 0 -237 -43t-103 -129 q0 -28 32.5 -47.5t47 -34t14.5 -65.5q-10 -103 -217 -103zM881 0q-95 0 -152 61.5t-57 147.5q0 81 53 141t147 60q97 0 153 -61.5t56 -147.5q0 -82 -52.5 -141.5t-147.5 -59.5z"/>
<glyph glyph-name="at" horiz-adv-x="2150" unicode="@" d="M1147 856q35 68 70.5 174.5t35.5 169.5q0 34 -18 60t-51 26q-94 0 -183 -115.5t-145.5 -268.5t-56.5 -238q0 -103 86 -103q128 0 262 295zM1372 750q-45 -104 -45 -144q0 -49 70 -49q155 0 295 172q147 167 147 369q0 187 -102 328.5t-270.5 217.5t-356.5 76 q-154 0 -305.5 -61t-263.5 -164q-121 -112 -187.5 -269t-66.5 -321q0 -220 113 -402.5t306 -285t420 -102.5q220 0 411.5 102t301.5 283h148q-105 -261 -343 -399t-538 -138q-265 0 -492 126t-359 344.5t-132 475.5q0 399 291 676q287 283 716 283q230 0 429.5 -96.5 t319.5 -273t120 -400.5q0 -173 -91 -337t-245 -266t-336 -102q-180 0 -180 160q-154 -147 -332 -147q-137 0 -210 92.5t-73 230.5q0 156 76.5 324.5t212.5 280.5t301 112q144 0 221 -107l25 66h262z"/>
<glyph glyph-name="A" horiz-adv-x="1847" unicode="A" d="M1081 799l-12 37l-266 626l-283 -663h561zM156 0q-92 0 -134 16.5t-42 69.5q0 33 49 74q55 32 77 82l91 278q92 288 352 864q80 185 184 377q33 58 68.5 72t111.5 14q103 0 144 -28.5t82 -122.5l512 -1200l86 -258q13 -33 23.5 -44t49.5 -38q50 -26 50 -70 q0 -86 -127 -86h-422q-156 0 -156 82q0 42 55.5 71.5t55.5 55.5q0 64 -103 344l-12 41h-700q-4 -16 -33 -100.5t-45.5 -143t-16.5 -92.5q0 -37 16.5 -56.5t48.5 -38t49 -34.5t17 -47q0 -50 -47 -66t-145 -16h-139z"/>
<glyph glyph-name="B" horiz-adv-x="1847" unicode="B" d="M643 365q0 -107 37 -144q41 -37 172 -37q189 0 320 86.5t131 266.5q0 122 -84 218t-203 130l-373 -90v-430zM643 995q214 45 383.5 153t169.5 286q0 225 -344 225q-139 0 -184 -45q-25 -33 -25 -135v-484zM176 0q-123 0 -123 86q0 31 13.5 43.5t48.5 34.5l28 16 q45 29 45 135v1196q0 111 -45 140l-28 12q-62 38 -62 82t37.5 65t85.5 21h909q254 0 385 -78q197 -112 197 -328q0 -141 -102.5 -249t-249.5 -168q133 -27 240.5 -91.5t171 -166t63.5 -234.5q0 -244 -193 -385q-173 -131 -454 -131h-967z"/>
<glyph glyph-name="C" horiz-adv-x="1901" unicode="C" d="M1413 1589q-118 94 -270 94q-270 0 -434 -237q-144 -213 -144 -512q0 -296 131 -508q143 -242 459 -242q243 0 430 193q22 23 46.5 48t51.5 41.5t58 16.5q35 0 60.5 -26.5t25.5 -63.5q0 -80 -83 -162t-179 -137q-215 -131 -500 -131q-265 0 -490.5 115t-359 324.5 t-133.5 478.5q0 204 82.5 385.5t226 316t330.5 210t389 75.5q332 0 582 -168q65 -35 82 -82q24 -67 24 -275q0 -43 -30 -70.5t-76 -27.5q-45 0 -66.5 29t-56.5 98q-70 153 -156 217z"/>
<glyph glyph-name="D" horiz-adv-x="2048" unicode="D" d="M643 418q0 -146 29.5 -194t163.5 -48q299 0 460.5 207t161.5 518q0 203 -72 374t-216.5 273.5t-350.5 102.5q-86 0 -123 -20t-45 -60.5t-8 -132.5v-1020zM901 1831q227 0 398 -41.5t319 -159.5q328 -251 328 -704q0 -195 -63 -369.5t-191 -302.5q-249 -254 -709 -254 h-807q-123 0 -123 86q0 31 13.5 43.5t48.5 34.5l28 16q45 29 45 135v1196q0 111 -45 140l-28 12q-62 38 -62 82t37.5 65t85.5 21h725z"/>
<glyph glyph-name="E" horiz-adv-x="1651" unicode="E" d="M643 459q0 -138 22 -191t94 -69.5t253 -18.5q130 0 205 22t151 101q50 60 83 91.5t77 31.5q35 0 62.5 -24.5t27.5 -57.5q0 -67 -53 -229q-23 -77 -51 -96t-113 -19h-1225q-123 0 -123 86q0 31 13.5 43.5t48.5 34.5l28 16q45 29 45 135v1196q0 111 -45 140l-28 12 q-62 38 -62 82t37.5 65t85.5 21h1167q107 0 140 -33q41 -51 41 -237q0 -107 -90 -107q-49 0 -115 74q-71 83 -156 102q-80 21 -250 21q-163 0 -208 -21q-62 -20 -62 -74v-462h377q75 0 104.5 15.5t63 45t65.5 29.5q90 0 90 -172q0 -104 -17 -156.5t-73 -52.5q-34 0 -69.5 29 t-62.5 43t-101 14h-377v-430z"/>
<glyph glyph-name="F" d="M639 315q0 -106 45 -135l29 -16q57 -37 57 -78q0 -86 -119 -86h-475q-123 0 -123 86q0 30 11.5 41.5t46.5 36.5l28 16q45 23 45 135v1196q0 117 -45 140l-28 12q-58 40 -58 82q0 86 123 86h1081q132 0 168 -21q21 -14 34.5 -44.5t19.5 -62t9.5 -69t6.5 -61.5 q0 -139 -65 -139q-54 0 -111 65q-89 101 -175 126.5t-251 25.5q-176 0 -217 -33q-37 -37 -37 -156v-422h365q76 0 106 15t64.5 45t66.5 30q86 0 86 -172q0 -105 -16 -156.5t-70 -51.5q-34 0 -68.5 28t-63.5 43t-105 15h-365v-521z" unicode="F"/>
<glyph glyph-name="G" horiz-adv-x="1950" unicode="G" d="M1815 1360q-22 -82 -95 -82q-62 0 -98 82q-75 156 -152 213q-120 102 -299 102q-199 0 -336 -115t-203.5 -293.5t-66.5 -373.5q0 -272 144 -498.5t401 -226.5q172 0 266 94q74 78 74 299q0 90 -11 130t-49 57.5t-124 17.5q-108 0 -152.5 17.5t-44.5 76.5q0 103 184 103 h402q136 0 200 -17q41 -15 41 -69q0 -16 -12 -115l-16 -176q0 -127 28 -242q9 -22 9 -53q0 -114 -303 -230q-279 -98 -512 -98q-283 0 -513 110.5t-362.5 322.5t-132.5 497q0 291 138.5 512.5t378.5 342t527 120.5q144 0 297.5 -35t264.5 -100q76 -42 106 -91 q21 -45 21 -221v-61z"/>
<glyph glyph-name="H" horiz-adv-x="2048" unicode="H" d="M647 315q0 -106 45 -135l29 -16q57 -36 57 -78q0 -86 -123 -86h-471q-123 0 -123 86q0 31 13 44.5t45 33.5l28 16q46 29 46 135v1196q0 111 -46 140l-28 12q-58 35 -58 82q0 86 123 86h471q123 0 123 -86q0 -47 -57 -82l-29 -12q-45 -29 -45 -140v-426h746v426 q0 111 -45 140l-29 12q-62 38 -62 82t37.5 65t85.5 21h475q123 0 123 -86q0 -45 -61 -82l-25 -12q-45 -23 -45 -140v-1196q0 -112 45 -135l25 -16q61 -39 61 -78q0 -86 -123 -86h-475q-123 0 -123 86q0 31 13.5 43.5t48.5 34.5l29 16q45 29 45 135v586h-746v-586z"/>
<glyph glyph-name="I" horiz-adv-x="848" unicode="I" d="M188 1511q0 117 -45 140l-24 12q-62 38 -62 82q0 86 123 86h475q49 0 86 -20.5t37 -65.5t-61 -82l-29 -12q-45 -29 -45 -140v-1196q0 -106 45 -135l29 -16q61 -39 61 -78q0 -86 -123 -86h-475q-123 0 -123 86q0 31 13.5 43.5t48.5 34.5l24 16q45 23 45 135v1196z"/>
<glyph glyph-name="J" horiz-adv-x="1401" unicode="J" d="M770 1511q0 111 -45 140l-29 12q-57 36 -57 82q0 86 119 86h475q123 0 123 -86q0 -47 -58 -82l-28 -12q-45 -23 -45 -140v-950q0 -153 -27.5 -261.5t-116.5 -188.5q-85 -74 -218 -111t-265 -37q-149 0 -284.5 43.5t-222.5 141t-87 249.5t103 246t253 94q81 0 147 -36.5 t66 -110.5q0 -50 -29 -70t-89.5 -39.5t-91.5 -49t-31 -95.5q0 -81 61.5 -130.5t147.5 -49.5q137 0 183 95.5t46 252.5v1007z"/>
<glyph glyph-name="K" horiz-adv-x="1950" unicode="K" d="M655 315q0 -112 45 -135l29 -16q57 -41 57 -78q0 -86 -122 -86h-476q-122 0 -122 86q0 39 61 78l29 16q45 29 45 135v1196q0 111 -45 140l-29 12q-61 37 -61 82q0 86 122 86h476q122 0 122 -86q0 -43 -57 -82l-29 -12q-45 -23 -45 -140v-573l410 328q287 265 287 344 q0 24 -14 38t-40 28.5t-39.5 30.5t-13.5 46q0 78 115 78h307q58 0 98 -16q58 -24 58 -82q0 -53 -82 -91q-72 -37 -112.5 -76t-117.5 -132l-323 -336q292 -309 573 -807q50 -92 115 -127q40 -21 55 -36t15 -54q0 -74 -119 -74h-479q-152 0 -152 82q0 41 43 74t43 53 q0 83 -164 312t-270 335l-193 -147v-394z"/>
<glyph glyph-name="L" horiz-adv-x="1499" unicode="L" d="M193 1511q0 111 -46 140l-28 12q-58 35 -58 82q0 86 123 86h471q123 0 123 -86q0 -47 -57 -82l-29 -12q-45 -29 -45 -140v-1175q0 -105 31 -127t145 -29h95q128 0 203.5 22.5t148.5 100.5q63 69 91.5 96t72.5 27q35 0 62.5 -24.5t27.5 -57.5q0 -72 -54 -229 q-24 -78 -51.5 -96.5t-115.5 -18.5h-1119q-123 0 -123 86q0 31 13 44.5t45 33.5l28 16q46 29 46 135v1196z"/>
<glyph glyph-name="M" horiz-adv-x="2298" unicode="M" d="M1544 1700q35 85 60.5 108t103.5 23h467q35 0 58.5 -24t23.5 -66q0 -43 -22.5 -60t-71.5 -34q-47 -13 -60.5 -40t-13.5 -83v-1209q0 -106 45 -135l29 -16q57 -37 57 -78q0 -86 -123 -86h-475q-119 0 -119 86q0 31 13 44.5t45 33.5l28 16q45 29 45 135v1086l-405 -1004 q-34 -79 -46 -101t-42.5 -38t-91.5 -16q-89 0 -122.5 16.5t-66.5 85.5l-442 1028v-1061q8 -58 16 -82q9 -22 23.5 -34t33.5 -19.5t37 -15.5q66 -25 66 -82q0 -78 -172 -78h-217q-168 0 -168 78q0 59 61 82q46 18 65 28.5t30 40.5q8 24 16 82v1200q0 33 -8 54q-22 69 -99 90 q-50 17 -72 33t-22 57q0 86 144 86h487q79 0 105 -37.5t63 -142.5l348 -897z"/>
<glyph glyph-name="N" horiz-adv-x="1901" unicode="N" d="M1503 1516q0 21 -12 81q-22 48 -98 70q-62 32 -62 86q0 78 172 78h217q168 0 168 -78q0 -55 -61 -86q-77 -23 -94 -70q-10 -21 -17 -81v-1356q0 -112 -25.5 -144t-134.5 -32q-90 0 -126 36q-33 33 -185 263l-782 1077v-1049q8 -58 16 -82q9 -22 23.5 -34t33.5 -19.5 t37 -15.5q66 -25 66 -82q0 -78 -172 -78h-217q-168 0 -168 78q0 59 61 82q46 18 65 28.5t30 40.5q8 24 16 82v1106q-1 40 -1 80q-1 40 -10 70.5t-30.5 52.5t-65.5 35q-50 17 -72 33t-22 57q0 86 144 86h340q74 0 98.5 -8.5t73.5 -57.5q66 -71 141 -168.5t139.5 -186.5 t177.5 -247l336 -475v828z"/>
<glyph glyph-name="O" horiz-adv-x="2150" unicode="O" d="M1577 909q0 182 -47.5 356t-161.5 292t-299 118q-266 0 -405 -274q-99 -198 -99 -475q0 -178 47.5 -354.5t159.5 -298t293 -121.5q186 0 301 115t163 286.5t48 355.5zM360 233q-278 268 -278 685q0 203 75.5 378.5t211.5 305t314.5 198t381.5 68.5q204 0 387.5 -68.5 t321 -195t214 -302t76.5 -384.5q0 -271 -136.5 -490.5t-368.5 -342t-502 -122.5q-188 0 -373.5 71t-323.5 199z"/>
<glyph glyph-name="P" horiz-adv-x="1700" unicode="P" d="M639 881q226 30 391.5 132.5t165.5 301.5q0 159 -101.5 249.5t-258.5 90.5q-119 0 -160 -45q-37 -37 -37 -148v-581zM639 311q8 -58 16 -82q13 -31 29.5 -40t65.5 -29q61 -25 61 -82q0 -78 -168 -78h-467q-123 0 -123 86q0 30 11.5 41.5t46.5 36.5l28 16q45 23 45 135 v1196q0 117 -45 140l-28 12q-58 40 -58 82q0 86 123 86h770q296 0 475 -90q124 -64 193 -168t69 -242q0 -167 -103 -296t-269 -212q-136 -67 -300.5 -95.5t-371.5 -39.5v-377z"/>
<glyph glyph-name="Q" horiz-adv-x="2150" unicode="Q" d="M987 414q0 143 98 143q61 0 74.5 -36t24.5 -124q5 -94 61 -213q174 65 247 271t73 438q0 293 -117.5 537.5t-382.5 244.5q-268 0 -384 -226.5t-116 -522.5q0 -170 45 -340.5t151 -290.5t275 -131q-49 143 -49 250zM1008 -37q-260 0 -473.5 124t-335 341t-121.5 477 q0 275 132.5 496t361 344t501.5 123q200 0 380.5 -65t315.5 -197q132 -127 207.5 -308.5t75.5 -371.5q0 -201 -83.5 -385t-234.5 -317.5t-345 -194.5q138 -103 290 -103q38 0 106 10.5t107 10.5q60 0 98 -38t38 -97q0 -83 -84 -119.5t-183 -36.5q-370 0 -618 315z"/>
<glyph glyph-name="R" horiz-adv-x="1847" unicode="R" d="M643 954q221 4 403.5 98.5t182.5 290.5q0 155 -100.5 231.5t-260.5 76.5q-139 0 -184 -49q-41 -37 -41 -164v-484zM647 315q0 -106 45 -135l29 -16q57 -36 57 -78q0 -86 -123 -86h-475q-123 0 -123 86q0 31 13.5 43.5t48.5 34.5l24 16q45 23 45 135v1192q0 117 -45 140 l-24 16q-36 23 -49 35t-13 43q0 86 123 86l889 4q275 0 414 -70q104 -51 168.5 -150.5t64.5 -217.5q0 -304 -381 -484q190 -204 348 -610q31 -68 50.5 -95t68.5 -57q38 -22 50 -32.5t12 -40.5q0 -74 -131 -74h-488q-68 0 -109.5 14.5t-41.5 67.5q0 38 53 71t53 68 q0 88 -110.5 286.5t-196.5 295.5l-246 -41v-447z"/>
<glyph glyph-name="S" horiz-adv-x="1700" unicode="S" d="M1085 1135q257 -63 365 -152q180 -147 180 -373q0 -295 -241 -479q-224 -168 -558 -168q-265 0 -479 94q-114 58 -206.5 151.5t-92.5 192.5q0 55 35.5 97.5t87.5 42.5q83 0 139 -95q14 -19 41 -58t42.5 -58t39.5 -40.5t49 -39.5q138 -90 320 -90q145 0 265 76t120 215 q0 135 -127 192q-96 51 -320 90q-267 53 -401 139q-221 156 -221 402q0 127 64.5 248.5t172.5 201.5q194 144 504 144q303 0 553 -131q57 -34 66 -74q20 -57 20 -225q0 -103 -94 -103q-41 0 -76.5 52t-87 130t-136 126.5t-224.5 48.5q-121 0 -216.5 -64.5t-95.5 -177.5 q0 -119 82.5 -172.5t233.5 -93.5z"/>
<glyph glyph-name="T" horiz-adv-x="1700" unicode="T" d="M614 1507q0 79 -15 107t-83 28q-125 0 -183.5 -37.5t-118 -102t-103.5 -64.5q-95 0 -95 94q0 42 13 78q32 183 61 205q21 16 111 16h1282q90 0 110 -16q47 -37 62 -205q12 -37 12 -78q0 -94 -94 -94q-44 0 -104 64.5t-118.5 102t-183.5 37.5q-67 0 -82.5 -28t-15.5 -107 v-1192q0 -106 45 -135l29 -16q57 -36 57 -78q0 -86 -119 -86h-475q-123 0 -123 86q0 31 13 44.5t45 33.5l28 16q45 29 45 135v1192z"/>
<glyph glyph-name="U" horiz-adv-x="1901" unicode="U" d="M606 786q0 -286 66 -417q102 -213 381 -213q108 0 212 51.5t152 140.5q66 123 66 434v774q0 52 -17 70t-65 41q-66 29 -66 78q0 86 148 86h217q147 0 147 -86q0 -46 -65 -78q-51 -23 -68.5 -41t-17.5 -70v-737q0 -213 -26 -363.5t-122 -262.5q-191 -230 -618 -230 q-158 0 -318.5 45.5t-263.5 143.5q-117 115 -156.5 272t-39.5 362v725q0 116 -46 140l-24 12q-62 38 -62 82q0 86 123 86h480q135 0 135 -86q0 -50 -58 -78q-63 -24 -73.5 -45t-20.5 -115v-721z"/>
<glyph glyph-name="V" horiz-adv-x="1847" unicode="V" d="M1036 324h4q189 442 238 577q180 472 180 631q0 47 -22 71.5t-67.5 49t-66 43.5t-20.5 57q0 78 143 78h283q139 0 139 -86q0 -45 -49 -86q-47 -38 -62.5 -64.5t-31.5 -91.5q-62 -231 -135.5 -414.5t-253.5 -613.5q-109 -265 -172 -377q-45 -79 -88 -107t-133 -28 q-81 0 -119.5 10.5t-63 37.5t-71.5 100q-196 319 -332 684l-234 753q-10 51 -27.5 78t-38.5 42.5t-38.5 32.5t-17.5 44q0 86 159 86h414q156 0 156 -86q0 -33 -18 -49t-55 -35t-56 -38.5t-19 -57.5q0 -156 193 -639z"/>
<glyph glyph-name="W" horiz-adv-x="2499" unicode="W" d="M1020 311q-53 -166 -123 -270q-58 -78 -176 -78q-85 0 -132 23t-70.5 61.5t-67.5 136.5q-181 420 -320 1159l-33 185q-11 64 -18.5 84t-46.5 47q-53 44 -53 86q0 86 176 86h405q123 0 123 -90q0 -40 -61 -78q-39 -17 -52.5 -36.5t-13.5 -65.5q0 -202 102 -598l177 -562 q116 292 178.5 543.5t62.5 513.5q0 164 -73 213q-16 13 -29 23t-21 23t-8 28q0 86 127 86h451q114 0 114 -90q0 -29 -14.5 -42.5t-44.5 -31t-46.5 -40t-16.5 -62.5q0 -180 131 -611l213 -561l176 516q110 401 110 607q0 59 -22 89t-67 55.5t-60 39t-15 49.5q0 82 181 82h217 q123 0 123 -78q0 -31 -45 -78q-69 -62 -86 -135l-41 -254q-23 -158 -84.5 -391t-120.5 -408l-94 -245q-83 -192 -107 -222q-48 -57 -176 -57q-87 0 -132 24.5t-89 98.5q-68 123 -119.5 253.5t-96.5 265.5t-104 313z"/>
<glyph glyph-name="X" horiz-adv-x="1847" unicode="X" d="M131 0q-135 0 -135 82q0 52 86 90q54 29 77 55.5t83 108.5l409 565q-221 242 -467 660q-44 70 -90 94q-86 42 -86 94q0 66 82 82h537q66 -10 94.5 -21.5t28.5 -60.5q0 -36 -41 -68t-41 -51q0 -30 64.5 -122t143 -194t132.5 -171q307 383 307 463q0 25 -16 40.5t-47.5 33 t-45.5 33t-14 44.5q0 74 111 74h282q164 0 164 -86q0 -46 -82 -94q-45 -25 -78 -66l-102 -147l-348 -443l458 -594l74 -114q42 -62 59 -79.5t68 -43.5q70 -32 70 -82q0 -82 -144 -82h-561q-69 27 -69 86q0 40 45 67t45 40q0 43 -165.5 266.5t-236.5 294.5 q-90 -113 -200.5 -286t-110.5 -239q0 -28 13 -43.5t40 -34.5t42.5 -36t15.5 -41q0 -60 -74 -74h-377z"/>
<glyph glyph-name="Y" horiz-adv-x="1847" unicode="Y" d="M1278 1233l82 135q110 163 110 225q0 25 -15.5 40.5t-47 35t-45.5 35t-14 41.5q0 86 135 86h217q84 0 122 -15.5t38 -70.5q0 -36 -50 -78q-49 -36 -61.5 -48.5t-44.5 -62.5l-549 -806v-435q0 -77 13.5 -103t64.5 -48q61 -31 61 -78q0 -86 -123 -86h-471q-135 0 -135 86 q0 44 58 74q57 34 67 56t10 103v410l-516 799q-31 56 -51.5 74.5t-79.5 52.5q-73 36 -73 90q0 55 62.5 70.5t207.5 15.5h381q131 0 131 -90q0 -25 -13 -39t-44.5 -31.5t-42.5 -27t-11 -29.5q0 -81 119 -258l287 -422z"/>
<glyph glyph-name="Z" d="M1339 1831q83 0 130 -17t47 -85q0 -166 -476 -828l-389 -545q-78 -94 -78 -139q0 -24 66 -24h246q159 0 258 26t188 117q69 78 115 78q86 0 86 -82q0 -42 -29 -189l-12 -82q-20 -42 -45.5 -51.5t-77.5 -9.5h-1122q-94 0 -151.5 25t-57.5 106q0 114 217 418l291 422 l270 372l103 160q69 98 69 119q0 29 -65 29h-172q-105 0 -242 -21q-71 -16 -109.5 -39t-79.5 -75q-70 -82 -114 -82q-86 0 -86 82q0 197 33 274q16 41 110 41h1077z" unicode="Z"/>
<glyph glyph-name="bracketleft" horiz-adv-x="799" unicode="[" d="M176 1708q0 63 10.5 87t37.5 30t100 6h249q172 0 172 -90q0 -52 -69 -82q-92 -30 -113.5 -65t-21.5 -160v-1536q0 -98 15 -138.5t67 -58.5q60 -19 91 -37t31 -61q0 -90 -172 -90h-249q-73 0 -100 5.5t-37.5 28.5t-10.5 84v2077z"/>
<glyph glyph-name="backslash" horiz-adv-x="1597" unicode="\" d="M319 1892h181l782 -1892h-180z"/>
<glyph glyph-name="bracketright" horiz-adv-x="799" unicode="]" d="M479 1831q101 0 124.5 -17.5t23.5 -105.5v-2077q0 -84 -23.5 -101t-124.5 -17h-246q-180 0 -180 90q0 42 30 59t97 39q86 29 86 123q0 11 -2 39t-2 43v1528q0 122 -22 157.5t-113 67.5q-74 32 -74 82q0 90 180 90h246z"/>
<glyph glyph-name="asciicircum" horiz-adv-x="1651" unicode="^" d="M74 446l635 1385h225l639 -1385h-238l-520 1135l-508 -1135h-233z"/>
<glyph glyph-name="underscore" horiz-adv-x="1249" unicode="_" d="M1151 -123v-242h-1045v242h1045z"/>
<glyph glyph-name="grave" horiz-adv-x="950" unicode="`" d="M422 1827q70 -3 92.5 -21.5t58.5 -85.5l132 -229q36 -63 36 -82q0 -22 -17 -35.5t-40 -13.5q-28 0 -102 53l-320 238q-23 18 -39.5 31.5t-27.5 32.5t-11 42q0 70 127 70h111z"/>
<glyph glyph-name="a" horiz-adv-x="1450" unicode="a" d="M840 635q-147 0 -252 -73.5t-105 -213.5q0 -74 41.5 -127t114.5 -53q111 0 192 119q54 86 54 266v82h-45zM1290 344q0 -106 13 -139q12 -26 53 -49q61 -28 61 -74q0 -53 -35 -67.5t-96 -14.5h-250q-91 0 -111.5 29.5t-23.5 126.5q-119 -193 -389 -193 q-186 0 -318.5 102.5t-132.5 282.5q0 164 115.5 263.5t280.5 139.5t329 40h86q0 119 -59 190.5t-174 71.5q-51 0 -85.5 -20t-77.5 -59.5t-79.5 -60t-89.5 -20.5q-64 0 -109.5 30t-45.5 93q0 111 179.5 158t336.5 47q258 0 417 -91q205 -118 205 -393v-393z"/>
<glyph glyph-name="b" d="M561 524q0 -389 217 -389q142 0 202 134.5t60 299.5q0 163 -56.5 313t-188.5 150q-120 0 -189 -102q-45 -62 -45 -209v-197zM553 1094q158 127 352 127q260 0 412.5 -165.5t152.5 -432.5q0 -205 -100.5 -355t-272.5 -227.5t-376 -77.5q-254 0 -418 111q-96 72 -128 173 t-32 249v880q0 131 -4 189q-12 52 -73 90q-62 34 -62 69q0 43 41.5 61t110.5 34q222 73 295 73q65 0 83.5 -62t18.5 -183v-553z" unicode="b"/>
<glyph glyph-name="c" horiz-adv-x="1298" unicode="c" d="M807 176h8q160 0 287 127q60 62 102 62q31 0 52.5 -23t21.5 -55q0 -85 -139 -193q-207 -131 -410 -131q-180 0 -335 75.5t-246 215t-91 324.5q0 192 90 338t246.5 225.5t343.5 79.5q93 0 214 -28.5t209.5 -91t88.5 -155.5q0 -61 -41 -98t-102 -37q-62 0 -97.5 27.5 t-79 85t-82 87t-102.5 29.5q-134 0 -193 -142.5t-65 -311.5h5q0 -165 79.5 -287.5t235.5 -122.5z"/>
<glyph glyph-name="d" d="M979 778q0 121 -53 185q-64 77 -168 77q-149 0 -214 -140.5t-65 -309.5q0 -166 60 -296t206 -130q129 0 193 102q41 64 41 180v332zM979 1376q0 131 -8 189q-13 53 -74 90q-61 34 -61 69q0 43 40.5 60t110.5 35q225 73 295 73q65 0 83.5 -60t18.5 -185v-1303 q0 -106 13 -139q12 -24 53 -49q66 -30 66 -74q0 -53 -36.5 -67.5t-99.5 -14.5h-250q-87 0 -106.5 29t-28.5 127q-115 -193 -368 -193q-251 0 -414.5 176.5t-163.5 433.5q0 180 81.5 328.5t227 234t326.5 85.5q154 0 295 -82v237z" unicode="d"/>
<glyph glyph-name="e" horiz-adv-x="1401" unicode="e" d="M926 885q0 74 -37.5 119t-110.5 45q-140 0 -217.5 -139.5t-77.5 -311.5q166 12 304.5 80t138.5 207zM831 164q169 0 336 147q58 58 103 58q26 0 49.5 -21.5t23.5 -48.5q0 -59 -67 -126t-137 -107q-182 -103 -414 -103q-173 0 -327.5 72t-249.5 207t-95 311 q0 200 104 352.5t277.5 234t368.5 81.5q197 0 354.5 -92.5t157.5 -272.5q0 -125 -100.5 -209.5t-239.5 -130.5q-67 -20 -134 -33t-148 -25t-185 -28q25 -119 113.5 -192.5t209.5 -73.5z"/>
<glyph glyph-name="f" horiz-adv-x="901" unicode="f" d="M631 336q0 -103 12 -135q13 -27 57 -45q58 -30 58 -74q0 -54 -35.5 -68t-99.5 -14h-390q-64 0 -99.5 14.5t-35.5 67.5q0 44 58 74q44 18 57 45q12 32 12 135v672h-32q-77 0 -110.5 16.5t-33.5 81.5q0 41 25 65q28 29 106 29h49q0 149 11 254.5t51 196.5q109 241 409 241 q95 0 179 -42.5t84 -129.5q0 -60 -39.5 -101.5t-100.5 -41.5q-41 0 -95.5 37t-59.5 37q-37 0 -37 -144v-307h74q100 0 142 -16t42 -74q0 -65 -39.5 -83.5t-136.5 -18.5h-82v-672z"/>
<glyph glyph-name="g" horiz-adv-x="1499" unicode="g" d="M942 668q0 147 -51 272t-174 125t-178.5 -134.5t-55.5 -279.5q0 -154 46 -279.5t171 -125.5q138 0 190 130.5t52 291.5zM918 1212l229 -12h139q80 0 122 -16.5t42 -85.5q0 -90 -152 -90h-65q139 -153 139 -357q0 -301 -254 -463q295 -72 295 -294q0 -213 -219.5 -297 t-480.5 -84q-220 0 -429.5 48t-209.5 193q0 98 84.5 149.5t189.5 51.5q135 0 135 -66q0 -12 -8 -28q-12 -19 -12 -37q0 -56 83.5 -79.5t158.5 -23.5q323 0 323 185q0 116 -168 188q-85 -28 -192 -28q-170 0 -310 65.5t-222.5 192.5t-82.5 299q0 134 51.5 255t153.5 203 q182 140 487 140z"/>
<glyph glyph-name="h" d="M1401 315q0 -98 12 -131q4 -7 45 -41q45 -29 45 -65q0 -78 -94 -78h-422q-94 0 -94 78q0 36 45 65q41 34 45 41q12 33 12 131v418q0 129 -41.5 208t-162.5 79q-100 0 -168 -74q-54 -64 -54 -176v-455q0 -98 13 -131q5 -11 45 -41q45 -30 45 -65q0 -78 -94 -78h-422 q-95 0 -95 78q0 35 45 65q40 31 46 41q12 33 12 131v1061q0 131 -8 189q-13 53 -74 90q-62 34 -62 69q0 43 41 60t111 35q225 73 295 73q65 0 83.5 -60t18.5 -185v-545q172 119 365 119q232 0 356 -136q111 -114 111 -372v-398z" unicode="h"/>
<glyph glyph-name="i" horiz-adv-x="750" unicode="i" d="M197 709q0 131 -9 184q-12 53 -73 90q-18 12 -32 21.5t-22 20.5t-8 28q0 45 39.5 62.5t112.5 35.5q207 70 295 70q65 0 83.5 -59t18.5 -183v-664q0 -98 8 -131q3 -3 49 -41q46 -29 46 -65q0 -78 -95 -78h-422q-94 0 -94 78q0 39 45 65q40 30 45 41q13 33 13 131v394z M119 1552q0 93 73 151t168 58q101 0 173.5 -52t72.5 -148q0 -90 -78 -143.5t-172 -53.5q-89 0 -163 51.5t-74 136.5z"/>
<glyph glyph-name="j" horiz-adv-x="750" unicode="j" d="M221 709q0 131 -8 183.5t-70 90.5l-28.5 19t-24.5 22t-8 29q0 44 39 62t112 36q207 70 295 70q64 0 83.5 -62t19.5 -180v-877q0 -274 -78 -389q-58 -93 -157 -146.5t-212 -53.5q-109 0 -206 44.5t-97 139.5q0 56 38.5 95.5t96.5 39.5q63 0 120 -47t61 -47q24 0 24 102 v869zM156 1552q0 93 73 151t168 58q101 0 173.5 -52t72.5 -148q0 -89 -79.5 -143t-170.5 -54q-89 0 -163 51.5t-74 136.5z"/>
<glyph glyph-name="k" horiz-adv-x="1499" unicode="k" d="M1004 782l-33 -28q208 -188 389 -512q26 -54 74 -82q57 -37 57 -78q0 -82 -119 -82h-409q-127 0 -127 82q0 31 38.5 55.5t38.5 46.5q0 37 -47 114.5t-110.5 156t-100.5 106.5l-90 -53v-193q0 -98 8 -131q6 -7 50 -41q45 -30 45 -65q0 -78 -95 -78h-421q-99 0 -99 78 q0 35 45 65q41 26 49 41q9 33 9 131v1061q0 131 -4 189q-13 53 -74 90q-62 34 -62 69q0 43 41 60t111 35q225 73 295 73q65 0 83.5 -60t18.5 -185v-963q83 30 232 151.5t149 180.5q0 26 -33 45q-57 24 -57 69q0 48 66 62q57 8 254 8q196 0 196 -70q0 -26 -12 -42t-35 -30.5 t-39 -25.5q-62 -33 -147 -127z"/>
<glyph glyph-name="l" horiz-adv-x="750" unicode="l" d="M184 1376q0 131 -8 189q-12 52 -74 90q-61 35 -61 69q0 43 41.5 61t110.5 34q222 73 294 73q65 0 84 -60t19 -185v-1311q0 -103 12 -135q7 -22 53 -45q62 -32 62 -74q0 -54 -35.5 -68t-99.5 -14h-394q-62 0 -98.5 14.5t-36.5 67.5q0 42 62 74q44 18 53 45q16 32 16 135 v1040z"/>
<glyph glyph-name="m" horiz-adv-x="2298" unicode="m" d="M2150 315q0 -98 13 -131q5 -11 45 -41q45 -30 45 -65q0 -78 -94 -78h-422q-95 0 -95 78q0 36 46 65q40 33 45 41q12 33 12 131v390q0 132 -28.5 211t-135.5 79q-110 0 -172 -82q-45 -61 -45 -221v-377q0 -98 8 -131q2 -3 49 -41q45 -29 45 -65q0 -78 -94 -78h-422 q-94 0 -94 78q0 40 45 65q40 30 45 41q12 33 12 131v390q0 132 -28.5 211t-134.5 79q-110 0 -172 -82q-45 -61 -45 -221v-377q0 -98 8 -131q6 -8 49 -41q45 -30 45 -65q0 -78 -94 -78h-422q-98 0 -98 78q0 36 45 65q42 27 49 41q8 33 8 131v480q0 83 -13 116.5t-61 59.5 q-53 18 -53 65q0 60 155 122.5t230 62.5q56 0 78.5 -51t36.5 -130q154 181 401 181t356 -201q139 201 426 201q195 0 316 -115q110 -101 110 -340v-451z"/>
<glyph glyph-name="n" d="M1401 315q0 -98 12 -131q4 -7 45 -41q45 -29 45 -65q0 -78 -94 -78h-422q-94 0 -94 78q0 36 45 65q41 34 45 41q12 33 12 131v406q0 138 -32.5 214.5t-151.5 76.5q-133 0 -193 -103q-36 -61 -36 -204v-390q0 -98 8 -131q8 -15 49 -41q45 -29 45 -65q0 -78 -98 -78h-422 q-94 0 -94 78q0 36 45 65q47 38 49 41q8 33 8 131v480q0 83 -13 116.5t-61 59.5q-53 18 -53 65q0 60 155 122.5t230 62.5q86 0 111 -181q150 181 397 181q231 0 356 -131q107 -118 107 -361v-414z" unicode="n"/>
<glyph glyph-name="o" d="M1057 614q0 171 -63 298.5t-216 127.5q-104 0 -167.5 -67t-89 -165.5t-25.5 -205.5q0 -467 278 -467q283 0 283 479zM287 119q-221 175 -221 467q0 263 213 454q204 181 516 181q133 0 258.5 -45t222.5 -126.5t154 -197t57 -254.5q0 -187 -101 -332t-266 -224t-350 -79 q-293 0 -483 156z" unicode="o"/>
<glyph glyph-name="p" horiz-adv-x="1597" unicode="p" d="M606 -123q0 -106 12 -135q10 -28 54 -45q61 -39 61 -78q0 -51 -36.5 -64.5t-98.5 -13.5h-393q-65 0 -100 13.5t-35 64.5q0 39 61 78q44 17 53 45q13 29 13 135v918q0 83 -13.5 116.5t-60.5 59.5q-53 17 -53 65q0 60 155 122.5t230 62.5q88 0 110 -181q169 181 385 181 q179 0 311.5 -82t203.5 -224t71 -317q0 -176 -79 -321.5t-219.5 -229.5t-311.5 -84q-86 0 -172 36.5t-86 111.5q0 61 53 61q18 0 57 -4t58 -4q107 0 188 102q82 121 82 316q0 159 -63 292.5t-203 133.5q-110 0 -176 -78q-58 -66 -58 -238v-815z"/>
<glyph glyph-name="q" d="M983 717q0 132 -51 227.5t-170 95.5q-150 0 -210 -141.5t-60 -316.5q0 -167 60.5 -301t205.5 -134q113 0 180 95q45 57 45 184v291zM983 98q-141 -135 -360 -135q-158 0 -287.5 78t-202 213.5t-72.5 294.5q0 184 83 338t231.5 244t329.5 90q205 0 376 -119 q143 119 222 119q58 0 72 -34.5t14 -101.5v-1224q0 -103 12 -135q13 -27 57 -45q58 -30 58 -74q0 -54 -35.5 -68t-100.5 -14h-389q-64 0 -99.5 14.5t-35.5 67.5q0 44 57 74q43 16 58 45q12 32 12 135v237z" unicode="q"/>
<glyph glyph-name="r" horiz-adv-x="1098" unicode="r" d="M631 336q0 -103 12 -135q13 -27 57 -45q58 -30 58 -74q0 -54 -35.5 -68t-99.5 -14h-390q-64 0 -99.5 14.5t-35.5 67.5q0 44 58 74q44 18 57 45q12 32 12 135v459q0 21 -16 65q-9 41 -27 57.5t-63 36.5q-66 30 -66 82q0 62 123 115q232 70 262 70q71 0 95.5 -66.5 t48.5 -191.5q50 104 137 181t186 77q84 0 136.5 -51.5t52.5 -133.5q0 -65 -35.5 -118.5t-95.5 -53.5q-35 0 -87.5 16.5t-80.5 16.5q-73 0 -115 -94q-49 -88 -49 -266v-201z"/>
<glyph glyph-name="s" horiz-adv-x="1249" unicode="s" d="M803 745q174 -43 269 -117.5t95 -234.5q0 -205 -196 -332q-163 -98 -389 -98q-191 0 -328 66q-201 86 -201 213q0 47 30.5 80.5t76.5 33.5q54 0 114 -69q76 -83 125 -115.5t133 -32.5q78 0 145.5 38t67.5 110q0 82 -62.5 107.5t-239 68.5t-263 113.5t-86.5 222.5 q0 212 174 317t400 105q252 0 393 -95q53 -32 53 -168q0 -122 -74 -122q-44 0 -97.5 71.5t-97.5 108.5t-149 37q-75 0 -133.5 -35.5t-58.5 -104.5q0 -90 184 -135z"/>
<glyph glyph-name="t" horiz-adv-x="950" unicode="t" d="M606 369q0 -96 25 -136t114 -40q82 0 127.5 -17t45.5 -82q0 -94 -168 -94h-344q-124 0 -166.5 34t-42.5 159v811h-50q-74 0 -112.5 17t-38.5 81q0 76 102 90q127 15 168 78q38 60 70 225q13 75 38.5 101t96.5 26q85 0 106 -20.5t21 -98.5v-303h147q76 0 116 -16t40 -82 q0 -98 -151 -98h-144v-635z"/>
<glyph glyph-name="u" d="M152 836q0 87 -9.5 118t-44.5 54q-45 30 -45 65q0 36 41 57q45 31 246 70q10 21 86 21q87 0 111 -51.5t24 -153.5v-570q0 -131 29.5 -204.5t138.5 -73.5t184 90q45 53 45 193v385q0 75 -9 108.5t-48 63.5q-41 33 -41 65q0 39 37 57q52 32 246 70q87 17 114 17 q82 0 107 -58v-815q0 -106 12 -139q15 -28 58 -49q61 -32 61 -74q0 -53 -36.5 -67.5t-98.5 -14.5h-217q-88 0 -115 29t-41 123q-177 -189 -426 -189q-243 0 -360 189q-49 63 -49 270v414z" unicode="u"/>
<glyph glyph-name="v" horiz-adv-x="1348" unicode="v" d="M918 569q35 74 68.5 194t33.5 187q0 39 -15.5 61t-44.5 42t-42 34.5t-13 42.5q0 70 135 70h140q86 0 120.5 -11.5t34.5 -49.5q0 -46 -32 -78q-41 -40 -52 -60.5t-26 -87.5l-29 -106q-77 -291 -233 -586q-70 -147 -127 -209q-44 -49 -148 -49q-85 0 -129.5 21.5 t-91.5 89.5q-223 342 -365 868q-19 76 -53 107q-57 31 -57 73q0 78 147 78h324q160 0 160 -74q0 -28 -12 -42t-38 -34t-39.5 -38t-13.5 -45q0 -75 45.5 -208.5t112.5 -276t113 -212.5z"/>
<glyph glyph-name="w" horiz-adv-x="1999" unicode="w" d="M1855 1200q152 0 152 -70q0 -38 -33 -69q-49 -58 -69 -127l-209 -643q-80 -199 -156 -275q-53 -53 -160 -53q-72 0 -113 17t-79 69q-87 111 -197 410q-98 -267 -196 -402q-41 -55 -80.5 -74.5t-108.5 -19.5q-110 0 -158 44t-108 169q-144 295 -221 643l-29 127 q-17 74 -33 86q-61 46 -61 90q0 78 115 78h360q63 0 95 -13.5t32 -64.5q0 -30 -10 -42.5t-32.5 -26.5t-33 -26t-10.5 -36q0 -92 78 -385q59 -212 139 -344q152 294 152 606q0 73 -9.5 112.5t-52.5 72.5q-45 45 -45 77q0 70 115 70h332q135 0 135 -78q0 -32 -21.5 -48.5 t-43 -33.5t-21.5 -49q0 -103 73 -340l148 -389q70 131 139.5 344t69.5 332q0 47 -16 71.5t-45 44t-41.5 33.5t-12.5 48q0 65 139 65h131z"/>
<glyph glyph-name="x" horiz-adv-x="1401" unicode="x" d="M184 0q-172 0 -172 82q0 48 58 74q57 32 70 45t69 86l250 286l-307 398q-30 47 -86 78q-58 32 -58 77q0 74 111 74h430q119 0 119 -70q0 -27 -27 -56t-27 -46q0 -20 33 -64.5t79 -97.5t73 -84q43 39 101 116.5t58 117.5q0 21 -43 49t-43 65q0 44 33 57t111 13h143 q144 0 144 -65q0 -46 -66 -86q-42 -31 -74 -78q-106 -151 -262 -307l254 -316q23 -33 49.5 -70.5t54.5 -68t56 -45.5q82 -42 82 -90q0 -31 -27.5 -52.5t-62.5 -21.5h-447q-131 0 -131 78q0 33 28.5 61.5t28.5 36.5q0 24 -76 116t-108 122l-37 41q-40 -40 -99.5 -123.5 t-59.5 -118.5q0 -22 11.5 -32.5t38 -25.5t41.5 -32.5t15 -48.5q0 -45 -41.5 -59.5t-134.5 -14.5h-152z"/>
<glyph glyph-name="y" horiz-adv-x="1348" unicode="y" d="M438 1200q160 0 160 -82q0 -26 -30 -56t-43 -49t-13 -71q0 -220 82 -450q29 -91 83 -187t114 -96q70 0 123.5 138.5t83.5 313t30 252.5q0 66 -10 92.5t-55 51.5q-54 30 -54 73q0 44 33 57t111 13h143q156 0 156 -61q0 -33 -41 -82q-3 -6 -11.5 -16.5t-13.5 -19.5t-8 -17 q-11 -32 -41 -230q-38 -249 -153.5 -544t-305.5 -506t-430 -211q-80 0 -152.5 41t-72.5 114q0 59 44.5 95t102.5 36q48 0 113 -26.5t80 -26.5q73 0 184 123q66 72 111 168q-58 -17 -119 -17q-171 0 -307 136q-101 104 -154.5 314t-99.5 501q-9 61 -47.5 93t-38.5 66 q0 70 123 70h323z"/>
<glyph glyph-name="z" horiz-adv-x="1249" unicode="z" d="M233 0q-192 0 -192 111q0 75 106 221l562 712h-189q-93 0 -148.5 -18t-101.5 -84q-53 -82 -102 -82q-70 0 -70 78q0 117 41 217q21 45 119 45h758q80 0 126 -15.5t46 -78.5q0 -83 -148 -275l-499 -663h188q107 0 164 20q76 23 135 111q45 70 90 70q66 0 66 -66 q0 -129 -41 -229q-22 -74 -139 -74h-771z"/>
<glyph glyph-name="braceleft" horiz-adv-x="848" unicode="{" d="M242 381q0 135 -54 205q-56 67 -151 94q67 5 131 61q51 42 62.5 93.5t11.5 144.5v446q0 230 73 312q68 64 164.5 79t270.5 15q-144 -68 -144 -307v-475q0 -163 -45.5 -251.5t-179.5 -117.5q131 -34 178 -115t47 -233v-512q0 -125 33.5 -195.5t110.5 -111.5 q-165 0 -244.5 10.5t-161.5 58.5q-65 46 -83.5 113t-18.5 178v508z"/>
<glyph glyph-name="bar" horiz-adv-x="1651" unicode="|" d="M741 1892h172v-1892h-172v1892z"/>
<glyph glyph-name="braceright" horiz-adv-x="848" unicode="}" d="M242 332q0 153 45.5 233.5t175.5 114.5q-134 29 -177.5 117t-43.5 252v475q0 239 -144 307q175 0 270.5 -15t159.5 -79q78 -82 78 -312v-446q0 -93 12.5 -145t61.5 -93q64 -56 131 -61q-96 -27 -152 -94q-53 -70 -53 -205v-508q0 -215 -102 -291q-80 -48 -161.5 -58.5 t-244.5 -10.5q78 41 111 111.5t33 195.5v512z"/>
<glyph glyph-name="asciitilde" horiz-adv-x="1651" unicode="~" d="M1552 831q-114 -157 -196 -230t-217 -73q-104 0 -258 62l-136 49q-149 61 -217 61q-60 0 -104 -30.5t-69.5 -67t-75.5 -119.5l-185 123q94 150 191.5 235t238.5 85q73 0 155 -23.5t201 -70.5t164.5 -62.5t94.5 -15.5q71 0 120.5 51.5t108.5 144.5z"/>
<glyph glyph-name="exclamdown" horiz-adv-x="901" unicode="¡" d="M682 1011q0 -47 -20 -83t-55 -60q-33 -24 -77 -36t-90 -13h-2q-41 0 -82 14q-41 13 -74 39t-54 62t-21 77q1 45 23 80t57 59t79 38q44 12 87 12q39 0 79 -14t74 -39q32 -25 54 -60t22 -76zM711 -520q0 -185 -263 -185q-258 0 -258 197l13 135l131 926q6 36 12 62 q6 25 18 43t32 26t52 8t52 -8t31 -27q11 -18 17 -47t11 -70z"/>
<glyph glyph-name="cent" horiz-adv-x="1380" unicode="¢" d="M811 1030q-24 10 -66 10q-69 0 -117 -41t-78 -106t-45 -146t-18 -161q3 -78 21 -148t55 -128zM1249 946q0 -30 -11 -55t-30 -43q-20 -18 -46 -28t-56 -9q-35 0 -59 8q-25 7 -45 23t-40 40t-47 58l-250 -729q30 -17 65 -26t77 -9q87 0 159 32t136 95q60 62 102 62 q30 0 52 -23t22 -55q0 -42 -26 -82t-72 -76q-44 -37 -101 -67t-118 -52t-121 -34t-111 -13q-37 -1 -73 3t-72 10l-144 -421h-138l157 456q-87 32 -161 85t-126 125q-54 72 -84 162t-31 195q-1 142 51 260t143 204q91 85 215 132t271 47q29 0 63 -3t72 -10l181 523h134 l-190 -552q49 -17 95 -39t81 -51t55 -65t21 -78z"/>
<glyph glyph-name="sterling" horiz-adv-x="1379" unicode="£" d="M449 220q-50 36 -86 50t-75 14q-60 0 -96 -30t-37 -79q1 -21 9 -39t24 -33q16 -14 36 -22q21 -8 47 -8q51 1 97 33t81 114zM1322 465q0 -119 -32 -212t-86 -157q-56 -64 -132 -99q-76 -34 -164 -34q-42 0 -78 6q-36 7 -75 23t-85 46t-103 80q-35 -44 -67 -74t-65 -48 t-68 -26t-75 -7q-54 0 -98 18q-44 19 -77 49t-51 70t-19 86q-1 48 19 92t56 76t90 52q52 20 118 20q31 0 62 -4t73 -18q0 38 -5 70t-15 73l-96 304h-292v204h249q-10 73 -15 129t-5 101q0 81 18 157t52 140q33 66 80 120q46 54 104 92t124 60q66 21 138 21q86 0 160 -29 t130 -76t88 -107t32 -121q0 -41 -12 -75q-12 -35 -36 -59t-56 -38t-72 -13q-38 1 -71 13t-58 36t-39 56q-14 33 -14 74q0 24 4 58t4 62q0 68 -32 98t-79 31q-23 0 -43 -9q-20 -8 -36 -28t-24 -51q-9 -31 -9 -75q-1 -36 5 -86t15 -108t21 -121t23 -125q15 -81 15 -127h296 v-204h-278l2 -144q0 -93 -18 -179t-47 -177q42 -11 77 -17q34 -6 68 -10t70 -4q36 -2 79 -2q60 0 108 6t85 24q38 17 64 45t43 72h55z"/>
<glyph glyph-name="currency" horiz-adv-x="1379" unicode="¤" d="M1108 910q0 84 -33 160t-90 133t-134 91t-164 34q-86 0 -163 -32q-76 -32 -134 -90q-58 -57 -92 -133t-33 -163q-1 -87 33 -164q34 -76 91 -134t134 -91t164 -33t163 32t134 90q58 57 90 134q34 77 34 166zM1355 1448l-188 -189q116 -164 116 -349q0 -181 -116 -357 l173 -174l-124 -122l-176 173q-50 -30 -92 -52t-82 -36t-84 -20q-43 -6 -95 -6q-53 0 -97 6t-86 20t-84 36t-87 52l-180 -173l-118 122l177 174q-118 154 -118 351q0 94 28 186t90 169l-183 181l124 125l180 -182q166 120 350 120q177 0 366 -120l185 182z"/>
<glyph glyph-name="yen" horiz-adv-x="1379" unicode="¥" d="M1377 1826v-59q-27 -7 -51 -18t-48 -39t-49 -77q-25 -50 -54 -134l-230 -669h432v-102h-469l-19 -53v-183h488v-102h-488v-60q1 -62 3 -98t7 -56t11 -32t15 -25q19 -32 63 -51t120 -19h49v-49h-957v49h47q55 -1 95 7t66 20q28 12 44 31q16 18 25 39q19 39 19 189v55h-496 v102h496v183l-19 53h-477v102h441l-247 686q-25 70 -45 116q-19 46 -41 75t-48 43t-60 17v59h663v-59q-39 0 -65 -5t-40 -14t-21 -20q-6 -11 -7 -23q0 -30 39 -136l269 -739l221 641q27 79 39 133t14 85q0 19 -6 33t-21 25q-15 10 -41 15t-63 5v59h396z"/>
<glyph glyph-name="brokenbar" horiz-adv-x="608" unicode="¦" d="M390 1869v-984h-176v984h176zM390 390v-986h-176v986h176z"/>
<glyph glyph-name="section" horiz-adv-x="1379" unicode="§" d="M1028 477q0 73 -46 145t-133 137l-363 269q-129 -110 -129 -234q1 -33 9 -65q8 -31 28 -65t54 -70q32 -36 80 -78l370 -273q70 64 100 122t30 112zM1155 1542q1 -34 -11 -64t-32 -52t-50 -36q-28 -13 -62 -13q-32 0 -60 11q-28 10 -47 30q-20 20 -31 46t-11 56q0 10 2 26 t5 34t5 36t2 34q-1 27 -11 50t-30 40t-52 27q-31 10 -72 10q-50 0 -94 -17t-76 -45t-50 -64t-19 -74q0 -28 3 -53t14 -50q12 -25 32 -51q20 -27 54 -57t86 -66q50 -36 121 -80q484 -300 484 -602q1 -60 -15 -114t-50 -108q-34 -52 -90 -104q-55 -52 -135 -104q53 -50 91 -96 t64 -91q25 -45 37 -93t12 -100q0 -89 -35 -163q-36 -73 -100 -127t-156 -84t-203 -30q-105 0 -187 27t-139 72t-87 103t-29 123q0 35 12 65t33 52t50 36q29 12 64 12q30 0 58 -12t49 -32t33 -45t13 -50q1 -13 -5 -35t-12 -45t-12 -44t-6 -33q0 -18 10 -36t32 -32t52 -23 t71 -9q56 0 102 16q47 16 79 42t50 62t18 76q0 52 -14 92t-47 78q-34 38 -92 80t-147 97q-106 67 -198 139t-159 148q-67 74 -105 149t-38 147q0 60 16 116t50 110q34 56 88 114t134 123q-108 91 -156 179t-48 186q0 82 38 158t104 134t156 91q90 34 196 34q100 -1 183 -29 t143 -74t94 -106q34 -58 33 -118z"/>
<glyph glyph-name="dieresis" horiz-adv-x="950" unicode="¨" d="M402 1540q0 -37 -14.5 -69.5t-39 -57t-57 -39t-69.5 -14.5q-35 0 -67 14t-56.5 38t-39 57t-14.5 71q0 36 14 68t38.5 57t56.5 39.5t68 14.5q37 0 69.5 -14t57 -38t39 -57t14.5 -70zM905 1540q0 -34 -13.5 -66.5t-37.5 -57.5t-56.5 -40.5t-71.5 -15.5q-35 0 -67.5 14.5 t-57.5 39t-40 57.5t-15 69t15 68t40 57t57.5 39.5t67.5 14.5q36 0 68.5 -14t57 -38.5t39 -57t14.5 -69.5z"/>
<glyph glyph-name="copyright" horiz-adv-x="2060" unicode="©" d="M1485 1489v-355h-51q-13 64 -43 118q-31 54 -73 92t-96 59t-118 21q-72 0 -136 -29t-112 -89t-74 -152q-27 -92 -27 -220q1 -136 27 -232t72 -156t108 -88t133 -28q195 0 353 186v-94q-80 -85 -186 -128t-242 -43q-126 1 -230 41t-179 113t-117 174t-41 221q0 128 45 236 t124 188q80 78 188 122t234 45q120 0 266 -55q42 -16 63 -16q23 0 39 16t22 53h51zM1869 914q0 105 -28 208q-28 104 -80 196q-53 92 -127 171t-166 137t-200 90t-229 32q-103 0 -205 -26t-196 -78q-93 -50 -173 -123t-139 -166q-58 -93 -92 -204t-34 -237q0 -100 26 -202 t76 -195t123 -173t165 -139t204 -93t240 -34q108 0 212 28t196 82q92 52 172 127q78 75 134 167t89 202q32 109 32 230zM1991 914q1 -120 -31 -238t-92 -224t-144 -196q-86 -90 -192 -157q-106 -66 -232 -103t-266 -37q-120 0 -238 31t-223 90q-107 59 -197 143 q-90 85 -156 191t-102 232q-38 126 -38 268q0 127 34 247t96 226t149 195q87 88 193 152t228 100t254 35q119 1 236 -31q118 -32 224 -91t197 -144t157 -191t105 -232q38 -126 38 -266z"/>
<glyph glyph-name="ordfeminine" horiz-adv-x="950" unicode="ª" d="M562 1516h-27q-43 0 -81 -11t-68 -33t-48 -54t-17 -74q0 -22 6 -42t18 -34q12 -16 29 -24t40 -8q28 0 54 12t48 39t34 71t12 109v49zM805 1577v-236q0 -31 1 -49t5 -30t12 -18q8 -8 22 -15q36 -18 36 -45q0 -32 -21 -40t-57 -9h-150q-29 -1 -45 3t-23 14q-8 10 -10 30 q-2 18 -3 47q-71 -116 -234 -116q-55 -1 -104 15t-86 46q-36 30 -58 72q-22 43 -22 98q0 51 20 91q20 39 52 69t76 50t92 32t98 18t97 6h51q0 72 -36 114t-104 43q-26 0 -50 -15t-48 -33t-48 -33t-53 -15q-18 0 -35 4q-18 4 -30 13t-20 23t-8 34q0 34 32 58t80 38 q48 15 102 21t96 6q178 0 276 -72t97 -219z"/>
<glyph glyph-name="guillemotleft" horiz-adv-x="1379" unicode="«" d="M1328 1248l-316 -616l316 -622h-102l-565 622l571 616h96zM724 1248l-322 -609l322 -629h-106l-569 622l569 616h106z"/>
<glyph glyph-name="logicalnot" horiz-adv-x="1571" unicode="¬" d="M1528 1214v-612h-173v440h-1300v172h1473z"/>
<glyph glyph-name="minus" horiz-adv-x="918" unicode="­" d="M853 773v-279h-786v279h786z"/>
<glyph glyph-name="registered" horiz-adv-x="2060" unicode="®" d="M1200 1174q0 110 -57 172t-182 62h-51v-466q46 -6 77 -6q42 0 81 17t68 48q28 31 46 75t18 98zM1489 1173q1 -45 -13 -87t-44 -80q-30 -36 -74 -65q-46 -29 -110 -47l184 -337q32 -57 64 -90t79 -43v-47h-327l-275 496h-63v-265q0 -56 6 -92t24 -56t50 -28t81 -8v-47 h-569v47q44 0 72 9t44 30t22 57t5 88v634q0 52 -4 84t-17 52q-12 20 -36 30t-64 14v45h488q144 0 236 -22q92 -21 146 -61t74 -94q21 -54 21 -117zM1869 914q0 105 -28 208q-28 104 -80 196q-53 92 -127 171t-166 137t-200 90t-229 32h-5q-102 0 -204 -26t-194 -78 q-92 -50 -172 -123t-138 -166t-92 -204t-34 -237q0 -100 26 -202t76 -195t123 -173t165 -139t204 -93t240 -34q108 0 212 28t196 82q92 52 172 127q78 75 134 167t89 202q32 109 32 230zM1991 914q1 -120 -31 -238t-92 -224t-144 -196q-86 -90 -192 -157q-106 -66 -232 -103 t-266 -37q-120 0 -238 31t-223 90q-107 59 -197 143q-90 85 -156 191t-102 232q-38 126 -38 268q0 127 34 247t96 226t149 195q87 88 193 152t228 100t254 35q119 1 236 -31q118 -32 224 -91t197 -144t157 -191t105 -232q38 -126 38 -266z"/>
<glyph glyph-name="macron" horiz-adv-x="1379" unicode="¯" d="M1404 2144v-175h-1431v175h1431z"/>
<glyph glyph-name="degree" horiz-adv-x="1104" unicode="°" d="M834 1399q0 58 -23 111q-23 52 -63 92t-92 64t-111 23q-61 0 -113 -23q-52 -22 -92 -62t-62 -93q-23 -53 -23 -112q-1 -59 23 -111t64 -92t92 -62q52 -24 111 -24t111 22t92 61t63 91t23 115zM1012 1397q0 -91 -36 -175t-98 -148t-148 -104q-86 -38 -185 -38 q-95 0 -179 37t-148 101t-101 148t-37 179q0 93 36 177t98 149t147 103t184 39q55 0 111 -15t108 -43t98 -69t78 -93q34 -53 53 -115t19 -133z"/>
<glyph glyph-name="plusminus" horiz-adv-x="1651" unicode="±" d="M1483 941v-238h-533v-465h533v-238h-1298v238h528v465h-529v238h529v532h237v-532h533z"/>
<glyph glyph-name="twosuperior" horiz-adv-x="890" unicode="²" d="M832 1126l-13 -137q-1 -39 -25 -53t-77 -14h-579q-31 0 -48 4t-25 14q-7 10 -9 24t-2 34v4q0 42 10 82t31 74q24 40 52 73t64 61q35 28 81 56q46 27 105 55q69 33 109 54t61 37t27 32t6 37q-9 98 -170 98q-27 -1 -54 -5t-48 -14q-20 -10 -34 -23q-14 -14 -14 -32 q0 -7 2 -21t2 -22q0 -66 -86 -78q-63 0 -97 32t-34 83q0 29 9 53q32 84 120 130t236 46q90 0 164 -18t126 -50t82 -78t32 -100q0 -58 -18 -96t-52 -67t-81 -52t-103 -48q-59 -25 -110 -51t-89 -50q-37 -24 -59 -44q-22 -21 -22 -37q0 -17 3 -22t14 -5h318q40 0 65 12t48 43 q26 35 55 35q27 -8 27 -56z"/>
<glyph glyph-name="threesuperior" horiz-adv-x="890" unicode="³" d="M824 1209q0 -76 -32 -131q-32 -54 -86 -90q-56 -36 -130 -53t-159 -17q-75 0 -139 16t-111 47q-47 29 -74 73t-27 98q0 55 32 90t83 35q45 0 73 -25t29 -67q0 -12 -5 -31t-7 -30q0 -12 11 -23t30 -19q20 -8 44 -14q24 -5 50 -5q99 -1 140 35t41 111q0 39 -16 65 q-17 26 -41 40q-24 15 -54 22t-56 10q-27 2 -49 4t-30 5q-31 12 -31 55q0 16 3 28t11 22q8 8 26 13q16 5 43 6q22 1 49 5q26 4 50 16q24 10 40 28t16 48q0 26 -11 44t-31 29t-44 15q-26 4 -55 5q-49 0 -79 -13t-37 -46q-3 -15 -7 -26t-14 -19q-10 -9 -27 -13t-46 -6 q-45 0 -71 23t-27 63q0 85 83 129t243 49q80 0 148 -13t117 -39q48 -26 76 -65t28 -91q0 -38 -12 -66t-34 -48t-54 -36q-32 -15 -71 -27q31 -8 67 -23t65 -40q29 -24 49 -62t20 -91z"/>
<glyph glyph-name="acute" horiz-adv-x="950" unicode="´" d="M740 1757q-1 -36 -23 -58.5t-55 -47.5l-320 -238q-72 -53 -102 -53q-23 0 -40 13.5t-17 35.5q0 19 36 82l132 229q19 33 31 53.5t26.5 32.5t35.5 16.5t58 4.5h111q127 0 127 -70z"/>
<glyph glyph-name="mu" horiz-adv-x="1589" unicode="µ" d="M1542 359q0 -89 -26 -161t-72 -124t-111 -82q-64 -29 -140 -29q-46 -1 -87 11q-42 12 -76 37t-61 65t-45 97q-56 -61 -104 -101t-96 -64q-46 -24 -93 -35q-47 -10 -99 -10q-29 0 -50 2q-22 1 -42 9t-45 23t-62 40v-48q-1 -27 1 -47t7 -46q5 -25 14 -60t24 -91 q14 -51 23 -90t10 -63q0 -88 -43 -137t-118 -49q-69 0 -107 44t-38 113q0 17 6 49t13 72q9 40 19 86t19 88q9 44 17 83t10 66q6 53 10 137t4 205v910h375v-935q0 -56 8 -90q9 -34 23 -54t36 -26q22 -7 48 -7q122 0 222 163v949h373v-912q0 -55 7 -91t19 -56t29 -28t37 -7 q38 1 65 49t37 145h59z"/>
<glyph glyph-name="paragraph" horiz-adv-x="1489" unicode="¶" d="M1493 1826v-59h-59q-79 -1 -120 -25t-59 -69q-17 -40 -17 -180v-2089h-132v2320h-245v-2320h-135v1173q-175 1 -310 45t-227 126q-91 82 -139 202q-48 118 -48 266q0 70 8 126t24 103q18 47 44 87t64 82q42 46 80 80t81 56q43 24 95 39t122 23t164 11q93 3 218 3h591z "/>
<glyph glyph-name="cedilla" horiz-adv-x="950" unicode="¸" d="M653 -277q0 -34 -11 -66.5t-30.5 -60t-46.5 -49t-59 -33.5q-48 -18 -126 -24t-184 -8v63q62 0 105.5 10.5t71.5 30t40.5 47t12.5 61.5q0 38 -31 66t-91 28l157 228h90l-63 -98q78 -12 121.5 -64.5t43.5 -130.5z"/>
<glyph glyph-name="onesuperior" horiz-adv-x="890" unicode="¹" d="M708 989q0 -68 -55 -68h-386q-54 0 -54 68q0 25 14 45t36 20h27q25 0 39 12t14 52v435q-1 26 -7 33t-24 7h-78q-35 0 -48 13q-5 8 -5 85q2 7 21 12q20 5 46 9t54 8t49 11q27 9 51 21t44 24t38 21t33 10q65 0 65 -77v-612q0 -36 13 -50t27 -14h29q57 0 57 -65z"/>
<glyph glyph-name="ordmasculine" horiz-adv-x="950" unicode="º" d="M643 1503q-1 49 -9 95t-28 82t-51 58q-32 22 -79 21q-50 0 -82 -24q-32 -23 -52 -61t-27 -85q-8 -47 -8 -93q0 -280 166 -280q170 0 170 287zM901 1494q0 -83 -35 -153q-35 -71 -94 -121t-137 -78t-164 -29q-85 -1 -161 25t-135 74q-58 48 -92 118t-34 157q1 76 33 145 q32 70 90 122t138 83t176 31q82 0 156 -27t132 -76t92 -118t35 -153z"/>
<glyph glyph-name="guillemotright" horiz-adv-x="1379" unicode="»" d="M718 628l-569 -618h-98l316 618l-316 620h104zM1332 628l-569 -618h-108l322 610l-322 628h108z"/>
<glyph glyph-name="onequarter" horiz-adv-x="2040" unicode="¼" d="M1509 565q0 27 -7 27q-41 0 -154 -119q-101 -107 -104 -171q7 -4 35 -4h230v267zM663 989q0 -68 -55 -68h-386q-54 0 -54 68q0 25 14 45t36 20h27q25 0 39 12t14 52v435q0 26 -6 33t-25 7h-78q-35 0 -48 13q-5 8 -5 85q2 7 21 12t45 9t56 8q28 4 48 11q26 9 50 21t44 24 t38 21t34 10q65 0 65 -77v-612q0 -36 13 -50t27 -14h29q57 0 57 -65zM1742 1833l-1289 -1898h-208l1286 1898h211zM1903 235q0 -64 -49 -64h-109v-39q1 -34 13 -49t29 -15h28q25 0 41 -17t16 -46q0 -70 -55 -70h-385q-50 0 -50 62q0 71 52 71h22q12 0 22 2t17 8t11 20 q4 12 3 34v39h-400q-23 0 -37 5t-20 13q-6 9 -9 19q-2 10 -2 22q-1 25 13 60q14 34 38 76t57 87t73 89t86 86t93 75q40 27 79 49t74 37t64 23t49 9q78 0 78 -63v-460h107q23 0 37 -16t14 -47z"/>
<glyph glyph-name="onehalf" horiz-adv-x="2069" unicode="½" d="M638 989q0 -68 -55 -68h-386q-54 0 -54 68q0 25 14 45t36 20h27q25 0 39 12t14 52v435q-1 26 -7 33t-24 7h-78q-35 0 -48 13q-5 8 -5 85q2 7 21 12q20 5 46 9t54 8t49 11q27 9 51 21t44 24t38 21t33 10q65 0 65 -77v-612q0 -36 13 -50t27 -14h29q57 0 57 -65zM1717 1833 l-1289 -1898h-208l1286 1898h211zM1958 141l-13 -137q-1 -39 -25 -53t-77 -14h-579q-31 1 -48 5t-25 14q-7 10 -9 23q-2 14 -2 34v4q0 42 10 82t31 74q24 40 52 73q28 34 64 62q35 28 81 55t105 55q69 33 109 54q40 22 61 38t27 32t6 36q-9 98 -170 98q-27 0 -54 -4t-48 -14 q-20 -10 -34 -24t-14 -32q0 -8 2 -22t2 -21q0 -66 -86 -78q-63 0 -97 32t-34 83q0 29 9 53q32 85 120 131t236 45q90 1 164 -17t126 -50t82 -78t32 -101q0 -57 -18 -95t-52 -68q-34 -29 -81 -52t-103 -48q-59 -26 -110 -52t-89 -48q-37 -24 -59 -45t-22 -37q0 -17 3 -22 t14 -5h318q40 -1 65 11t48 44q26 35 55 35q27 -8 27 -56z"/>
<glyph glyph-name="threequarters" horiz-adv-x="2069" unicode="¾" d="M1581 565q0 27 -7 27q-41 0 -154 -119q-101 -107 -104 -171q7 -4 35 -4h230v267zM851 1209q1 -76 -31 -131q-32 -54 -87 -90t-129 -53t-160 -17q-75 0 -139 16t-111 47q-47 29 -74 73t-27 98q0 55 32 90t83 35q46 0 74 -25t28 -67q0 -12 -5 -31t-7 -30q0 -12 11 -23 t30 -19t43 -14q24 -5 51 -5q99 -1 140 35t41 111q0 39 -16 65t-40 40q-24 15 -54 22t-57 10q-27 2 -49 4t-30 5q-31 12 -31 55q0 16 3 28q4 12 12 22q8 8 24 13t44 6q22 1 49 5t51 16q24 10 39 28q16 18 16 48q0 26 -11 44q-10 18 -30 29t-46 15t-54 5q-50 0 -80 -13 t-36 -46q-3 -15 -7 -26t-14 -19q-10 -9 -27 -13t-46 -6q-46 0 -72 23t-26 63q0 85 83 129t243 49q80 0 148 -13t117 -39t77 -65t27 -91q0 -38 -12 -66t-34 -48q-21 -20 -53 -36q-32 -15 -72 -27q30 -8 66 -23t66 -40q30 -24 50 -62t19 -91zM1814 1833l-1289 -1898h-208 l1286 1898h211zM1975 235q0 -64 -49 -64h-109v-39q1 -34 13 -49t29 -15h28q25 0 41 -17t16 -46q0 -70 -55 -70h-385q-50 0 -50 62q0 71 52 71h22q12 0 22 2t17 8t11 20q4 12 3 34v39h-400q-23 0 -37 5t-20 13q-6 9 -9 19q-2 10 -2 22q-1 25 13 60q14 34 38 76t57 87t73 89 t86 86t93 75q40 27 79 49t74 37t64 23t49 9q78 0 78 -63v-460h107q23 0 37 -16t14 -47z"/>
<glyph glyph-name="questiondown" horiz-adv-x="1712" unicode="¿" d="M1062 1010q0 -40 -14 -76t-38 -64q-26 -28 -64 -44t-84 -17q-48 0 -87 17q-39 18 -66 46t-41 66t-15 80q-1 40 13 76t40 64t62 44q37 16 85 17q47 -1 85 -17t66 -44t43 -67q15 -38 15 -81zM1521 -157q-4 -83 -53 -153t-136 -122q-88 -52 -210 -81t-273 -29 q-149 0 -271 30t-208 82q-86 54 -133 130t-47 167q0 205 154 311q76 53 153 90t156 58q20 4 30 32t15 79l24 229h275l28 -283q1 -17 1 -29v-22q0 -18 -4 -28t-18 -19t-40 -19q-27 -10 -72 -27q-57 -21 -108 -46q-52 -25 -92 -60t-68 -82t-37 -110q0 -136 69 -205t214 -69 q71 1 131 11t105 32t72 53q27 32 32 76q0 27 -14 39t-33 22t-33 28t-14 58q10 103 217 103q188 -8 188 -246z"/>
<glyph glyph-name="Agrave" horiz-adv-x="1847" unicode="À" d="M1081 799l-12 37l-266 626l-283 -663h561zM156 0q-92 0 -134 16.5t-42 69.5q0 33 49 74q55 32 77 82l91 278q92 288 352 864q80 185 184 377q33 58 68.5 72t111.5 14q103 0 144 -28.5t82 -122.5l512 -1200l86 -258q13 -33 23.5 -44t49.5 -38q50 -26 50 -70 q0 -86 -127 -86h-422q-156 0 -156 82q0 42 55.5 71.5t55.5 55.5q0 64 -103 344l-12 41h-700q-4 -16 -33 -100.5t-45.5 -143t-16.5 -92.5q0 -37 16.5 -56.5t48.5 -38t49 -34.5t17 -47q0 -50 -47 -66t-145 -16h-139zM708 2458q70 -3 92.5 -21.5t58.5 -85.5l132 -229 q36 -63 36 -82q0 -22 -17 -35.5t-40 -13.5q-28 0 -102 53l-320 238q-23 18 -39.5 31.5t-27.5 32.5t-11 42q0 70 127 70h111z"/>
<glyph glyph-name="Aacute" horiz-adv-x="1847" unicode="Á" d="M1081 799l-12 37l-266 626l-283 -663h561zM156 0q-92 0 -134 16.5t-42 69.5q0 33 49 74q55 32 77 82l91 278q92 288 352 864q80 185 184 377q33 58 68.5 72t111.5 14q103 0 144 -28.5t82 -122.5l512 -1200l86 -258q13 -33 23.5 -44t49.5 -38q50 -26 50 -70 q0 -86 -127 -86h-422q-156 0 -156 82q0 42 55.5 71.5t55.5 55.5q0 64 -103 344l-12 41h-700q-4 -16 -33 -100.5t-45.5 -143t-16.5 -92.5q0 -37 16.5 -56.5t48.5 -38t49 -34.5t17 -47q0 -50 -47 -66t-145 -16h-139zM1339 2388q-1 -36 -23 -58.5t-55 -47.5l-320 -238 q-72 -53 -102 -53q-23 0 -40 13.5t-17 35.5q0 19 36 82l132 229q19 33 31 53.5t26.5 32.5t35.5 16.5t58 4.5h111q127 0 127 -70z"/>
<glyph glyph-name="Acircumflex" horiz-adv-x="1847" unicode="Â" d="M1081 799l-12 37l-266 626l-283 -663h561zM156 0q-92 0 -134 16.5t-42 69.5q0 33 49 74q55 32 77 82l91 278q92 288 352 864q80 185 184 377q33 58 68.5 72t111.5 14q103 0 144 -28.5t82 -122.5l512 -1200l86 -258q13 -33 23.5 -44t49.5 -38q50 -26 50 -70 q0 -86 -127 -86h-422q-156 0 -156 82q0 42 55.5 71.5t55.5 55.5q0 64 -103 344l-12 41h-700q-4 -16 -33 -100.5t-45.5 -143t-16.5 -92.5q0 -37 16.5 -56.5t48.5 -38t49 -34.5t17 -47q0 -50 -47 -66t-145 -16h-139zM1082 2505l274 -514h-105l-320 277l-330 -269h-110l285 506 h306z"/>
<glyph glyph-name="Atilde" horiz-adv-x="1847" unicode="Ã" d="M1081 799l-12 37l-266 626l-283 -663h561zM156 0q-92 0 -134 16.5t-42 69.5q0 33 49 74q55 32 77 82l91 278q92 288 352 864q80 185 184 377q33 58 68.5 72t111.5 14q103 0 144 -28.5t82 -122.5l512 -1200l86 -258q13 -33 23.5 -44t49.5 -38q50 -26 50 -70 q0 -86 -127 -86h-422q-156 0 -156 82q0 42 55.5 71.5t55.5 55.5q0 64 -103 344l-12 41h-700q-4 -16 -33 -100.5t-45.5 -143t-16.5 -92.5q0 -37 16.5 -56.5t48.5 -38t49 -34.5t17 -47q0 -50 -47 -66t-145 -16h-139zM1356 2362v-45q0 -75 -23.5 -136t-62.5 -104t-90.5 -66.5 t-106.5 -23.5q-26 0 -62.5 9.5t-77.5 23.5t-83 31t-77.5 31t-62 23.5t-36.5 9.5q-20 0 -36.5 -5.5t-30 -20t-23.5 -38.5t-16 -60h-77q0 91 22.5 161t61.5 117t91.5 71t113.5 24h30q10 0 22.5 -2.5t31 -9.5t46 -18.5t68.5 -30.5q136 -63 198 -63q14 0 26.5 3.5t25 16t26.5 37 t30 65.5h72z"/>
<glyph glyph-name="Adieresis" horiz-adv-x="1847" unicode="Ä" d="M1081 799l-12 37l-266 626l-283 -663h561zM156 0q-92 0 -134 16.5t-42 69.5q0 33 49 74q55 32 77 82l91 278q92 288 352 864q80 185 184 377q33 58 68.5 72t111.5 14q103 0 144 -28.5t82 -122.5l512 -1200l86 -258q13 -33 23.5 -44t49.5 -38q50 -26 50 -70 q0 -86 -127 -86h-422q-156 0 -156 82q0 42 55.5 71.5t55.5 55.5q0 64 -103 344l-12 41h-700q-4 -16 -33 -100.5t-45.5 -143t-16.5 -92.5q0 -37 16.5 -56.5t48.5 -38t49 -34.5t17 -47q0 -50 -47 -66t-145 -16h-139zM850 2171q0 -37 -14.5 -69.5t-39 -57t-57 -39t-69.5 -14.5 q-35 0 -67 14t-56.5 38t-39 57t-14.5 71q0 36 14 68t38.5 57t56.5 39.5t68 14.5q37 0 69.5 -14t57 -38t39 -57t14.5 -70zM1353 2171q0 -34 -13.5 -66.5t-37.5 -57.5t-56.5 -40.5t-71.5 -15.5q-35 0 -67.5 14.5t-57.5 39t-40 57.5t-15 69t15 68t40 57t57.5 39.5t67.5 14.5 q36 0 68.5 -14t57 -38.5t39 -57t14.5 -69.5z"/>
<glyph glyph-name="Aring" horiz-adv-x="1847" unicode="Å" d="M1183 2083q0 -54 -21 -104t-58 -88t-88 -60.5t-110 -22.5q-57 0 -106.5 21.5t-87 59t-59 87.5t-21.5 107t21.5 107t58.5 87.5t87 59.5t107 22t107.5 -21.5t88 -59t59.5 -88t22 -107.5zM1047 2083q0 28 -11 53.5t-30 44.5t-44.5 30t-53.5 11t-53.5 -11t-44.5 -30 t-30.5 -44.5t-11.5 -53.5q0 -29 11.5 -54t30.5 -44t44.5 -30t53.5 -11t53.5 11t44.5 30t30 44t11 54zM1081 799l-12 37l-266 626l-283 -663h561zM156 0q-92 0 -134 16.5t-42 69.5q0 33 49 74q55 32 77 82l91 278q92 288 352 864q80 185 184 377q33 58 68.5 72t111.5 14 q103 0 144 -28.5t82 -122.5l512 -1200l86 -258q13 -33 23.5 -44t49.5 -38q50 -26 50 -70q0 -86 -127 -86h-422q-156 0 -156 82q0 42 55.5 71.5t55.5 55.5q0 64 -103 344l-12 41h-700q-4 -16 -33 -100.5t-45.5 -143t-16.5 -92.5q0 -37 16.5 -56.5t48.5 -38t49 -34.5t17 -47 q0 -50 -47 -66t-145 -16h-139z"/>
<glyph glyph-name="AE" horiz-adv-x="2758" unicode="Æ" d="M1269 1511q1 26 -1 50t-7 42q-5 19 -15 29t-28 10q-14 0 -31 -14t-32 -30t-25 -30t-12 -12l-456 -757h607v712zM2699 344q1 -8 -3 -32t-11 -57t-17 -71t-20 -70q-12 -34 -26 -60t-27 -35q-28 -19 -113 -19h-1225q-123 0 -123 86q0 17 4 27t10 18q8 8 20 15t28 18l28 16 q45 25 45 135v279h-711q-18 -40 -46 -92t-55 -100t-47 -88t-24 -56q-1 -3 -1 -9v-7q0 -29 16 -47q15 -18 35 -33q20 -14 36 -30t17 -40q0 -28 -14 -46t-40 -28t-65 -14t-88 -4h-138q-82 0 -122 13t-40 54q0 26 18 46t41 39q24 19 50 40t44 50l157 278q72 144 194 359 t303 505q31 49 71 111q40 61 82 121t80 108t65 67q20 13 42 20t48 11q25 4 57 6t72 3h1118q63 1 99 -11q37 -12 55 -42t22 -82t5 -135q0 -107 -90 -107q-25 0 -55 24t-66 54t-73 59q-38 29 -77 39q-38 9 -96 15t-137 6h-87q-60 -1 -98 -7t-61 -18t-32 -30t-9 -40v-462h377 q55 0 89 14t56 31q24 17 43 31t45 14q90 0 90 -172q0 -52 -4 -91t-13 -65t-27 -40q-18 -13 -46 -13q-22 1 -38 7t-29 16l-28 20q-15 10 -33 20t-44 16t-61 7h-377v-430q0 -69 4 -117t19 -78q14 -31 39 -48t66 -25q41 -7 100 -9t141 -2q64 0 114 4q49 4 91 16q42 14 78 38 t73 65q25 28 45 51t36 39q18 17 36 25t39 8h4q18 0 34 -6q17 -6 29 -18t20 -27t7 -31z"/>
<glyph glyph-name="Ccedilla" horiz-adv-x="1901" unicode="Ç" d="M1413 1589q-118 94 -270 94q-270 0 -434 -237q-144 -213 -144 -512q0 -296 131 -508q143 -242 459 -242q243 0 430 193q22 23 46.5 48t51.5 41.5t58 16.5q35 0 60.5 -26.5t25.5 -63.5q0 -80 -83 -162t-179 -137q-215 -131 -500 -131q-265 0 -490.5 115t-359 324.5 t-133.5 478.5q0 204 82.5 385.5t226 316t330.5 210t389 75.5q332 0 582 -168q65 -35 82 -82q24 -67 24 -275q0 -43 -30 -70.5t-76 -27.5q-45 0 -66.5 29t-56.5 98q-70 153 -156 217zM1179 -277q0 -34 -11 -66.5t-30.5 -60t-46.5 -49t-59 -33.5q-48 -18 -126 -24t-184 -8v63 q62 0 105.5 10.5t71.5 30t40.5 47t12.5 61.5q0 38 -31 66t-91 28l157 228h90l-63 -98q78 -12 121.5 -64.5t43.5 -130.5z"/>
<glyph glyph-name="Egrave" horiz-adv-x="1651" unicode="È" d="M643 459q0 -138 22 -191t94 -69.5t253 -18.5q130 0 205 22t151 101q50 60 83 91.5t77 31.5q35 0 62.5 -24.5t27.5 -57.5q0 -67 -53 -229q-23 -77 -51 -96t-113 -19h-1225q-123 0 -123 86q0 31 13.5 43.5t48.5 34.5l28 16q45 29 45 135v1196q0 111 -45 140l-28 12 q-62 38 -62 82t37.5 65t85.5 21h1167q107 0 140 -33q41 -51 41 -237q0 -107 -90 -107q-49 0 -115 74q-71 83 -156 102q-80 21 -250 21q-163 0 -208 -21q-62 -20 -62 -74v-462h377q75 0 104.5 15.5t63 45t65.5 29.5q90 0 90 -172q0 -104 -17 -156.5t-73 -52.5q-34 0 -69.5 29 t-62.5 43t-101 14h-377v-430zM632 2458q70 -3 92.5 -21.5t58.5 -85.5l132 -229q36 -63 36 -82q0 -22 -17 -35.5t-40 -13.5q-28 0 -102 53l-320 238q-23 18 -39.5 31.5t-27.5 32.5t-11 42q0 70 127 70h111z"/>
<glyph glyph-name="Eacute" horiz-adv-x="1651" unicode="É" d="M643 459q0 -138 22 -191t94 -69.5t253 -18.5q130 0 205 22t151 101q50 60 83 91.5t77 31.5q35 0 62.5 -24.5t27.5 -57.5q0 -67 -53 -229q-23 -77 -51 -96t-113 -19h-1225q-123 0 -123 86q0 31 13.5 43.5t48.5 34.5l28 16q45 29 45 135v1196q0 111 -45 140l-28 12 q-62 38 -62 82t37.5 65t85.5 21h1167q107 0 140 -33q41 -51 41 -237q0 -107 -90 -107q-49 0 -115 74q-71 83 -156 102q-80 21 -250 21q-163 0 -208 -21q-62 -20 -62 -74v-462h377q75 0 104.5 15.5t63 45t65.5 29.5q90 0 90 -172q0 -104 -17 -156.5t-73 -52.5q-34 0 -69.5 29 t-62.5 43t-101 14h-377v-430zM1160 2388q-1 -36 -23 -58.5t-55 -47.5l-320 -238q-72 -53 -102 -53q-23 0 -40 13.5t-17 35.5q0 19 36 82l132 229q19 33 31 53.5t26.5 32.5t35.5 16.5t58 4.5h111q127 0 127 -70z"/>
<glyph glyph-name="Ecircumflex" horiz-adv-x="1651" unicode="Ê" d="M643 459q0 -138 22 -191t94 -69.5t253 -18.5q130 0 205 22t151 101q50 60 83 91.5t77 31.5q35 0 62.5 -24.5t27.5 -57.5q0 -67 -53 -229q-23 -77 -51 -96t-113 -19h-1225q-123 0 -123 86q0 31 13.5 43.5t48.5 34.5l28 16q45 29 45 135v1196q0 111 -45 140l-28 12 q-62 38 -62 82t37.5 65t85.5 21h1167q107 0 140 -33q41 -51 41 -237q0 -107 -90 -107q-49 0 -115 74q-71 83 -156 102q-80 21 -250 21q-163 0 -208 -21q-62 -20 -62 -74v-462h377q75 0 104.5 15.5t63 45t65.5 29.5q90 0 90 -172q0 -104 -17 -156.5t-73 -52.5q-34 0 -69.5 29 t-62.5 43t-101 14h-377v-430zM984 2505l274 -514h-105l-320 277l-330 -269h-110l285 506h306z"/>
<glyph glyph-name="Edieresis" horiz-adv-x="1651" unicode="Ë" d="M643 459q0 -138 22 -191t94 -69.5t253 -18.5q130 0 205 22t151 101q50 60 83 91.5t77 31.5q35 0 62.5 -24.5t27.5 -57.5q0 -67 -53 -229q-23 -77 -51 -96t-113 -19h-1225q-123 0 -123 86q0 31 13.5 43.5t48.5 34.5l28 16q45 29 45 135v1196q0 111 -45 140l-28 12 q-62 38 -62 82t37.5 65t85.5 21h1167q107 0 140 -33q41 -51 41 -237q0 -107 -90 -107q-49 0 -115 74q-71 83 -156 102q-80 21 -250 21q-163 0 -208 -21q-62 -20 -62 -74v-462h377q75 0 104.5 15.5t63 45t65.5 29.5q90 0 90 -172q0 -104 -17 -156.5t-73 -52.5q-34 0 -69.5 29 t-62.5 43t-101 14h-377v-430zM752 2171q0 -37 -14.5 -69.5t-39 -57t-57 -39t-69.5 -14.5q-35 0 -67 14t-56.5 38t-39 57t-14.5 71q0 36 14 68t38.5 57t56.5 39.5t68 14.5q37 0 69.5 -14t57 -38t39 -57t14.5 -70zM1255 2171q0 -34 -13.5 -66.5t-37.5 -57.5t-56.5 -40.5 t-71.5 -15.5q-35 0 -67.5 14.5t-57.5 39t-40 57.5t-15 69t15 68t40 57t57.5 39.5t67.5 14.5q36 0 68.5 -14t57 -38.5t39 -57t14.5 -69.5z"/>
<glyph glyph-name="Igrave" horiz-adv-x="848" unicode="Ì" d="M188 1511q0 117 -45 140l-24 12q-62 38 -62 82q0 86 123 86h475q49 0 86 -20.5t37 -65.5t-61 -82l-29 -12q-45 -29 -45 -140v-1196q0 -106 45 -135l29 -16q61 -39 61 -78q0 -86 -123 -86h-475q-123 0 -123 86q0 31 13.5 43.5t48.5 34.5l24 16q45 23 45 135v1196z M322 2458q70 -3 92.5 -21.5t58.5 -85.5l132 -229q36 -63 36 -82q0 -22 -17 -35.5t-40 -13.5q-28 0 -102 53l-320 238q-23 18 -39.5 31.5t-27.5 32.5t-11 42q0 70 127 70h111z"/>
<glyph glyph-name="Iacute" horiz-adv-x="848" unicode="Í" d="M188 1511q0 117 -45 140l-24 12q-62 38 -62 82q0 86 123 86h475q49 0 86 -20.5t37 -65.5t-61 -82l-29 -12q-45 -29 -45 -140v-1196q0 -106 45 -135l29 -16q61 -39 61 -78q0 -86 -123 -86h-475q-123 0 -123 86q0 31 13.5 43.5t48.5 34.5l24 16q45 23 45 135v1196z M720 2388q-1 -36 -23 -58.5t-55 -47.5l-320 -238q-72 -53 -102 -53q-23 0 -40 13.5t-17 35.5q0 19 36 82l132 229q19 33 31 53.5t26.5 32.5t35.5 16.5t58 4.5h111q127 0 127 -70z"/>
<glyph glyph-name="Icircumflex" horiz-adv-x="848" unicode="Î" d="M188 1511q0 117 -45 140l-24 12q-62 38 -62 82q0 86 123 86h475q49 0 86 -20.5t37 -65.5t-61 -82l-29 -12q-45 -29 -45 -140v-1196q0 -106 45 -135l29 -16q61 -39 61 -78q0 -86 -123 -86h-475q-123 0 -123 86q0 31 13.5 43.5t48.5 34.5l24 16q45 23 45 135v1196z M584 2505l274 -514h-105l-320 277l-330 -269h-110l285 506h306z"/>
<glyph glyph-name="Idieresis" horiz-adv-x="848" unicode="Ï" d="M188 1511q0 117 -45 140l-24 12q-62 38 -62 82q0 86 123 86h475q49 0 86 -20.5t37 -65.5t-61 -82l-29 -12q-45 -29 -45 -140v-1196q0 -106 45 -135l29 -16q61 -39 61 -78q0 -86 -123 -86h-475q-123 0 -123 86q0 31 13.5 43.5t48.5 34.5l24 16q45 23 45 135v1196z M352 2171q0 -37 -14.5 -69.5t-39 -57t-57 -39t-69.5 -14.5q-35 0 -67 14t-56.5 38t-39 57t-14.5 71q0 36 14 68t38.5 57t56.5 39.5t68 14.5q37 0 69.5 -14t57 -38t39 -57t14.5 -70zM855 2171q0 -34 -13.5 -66.5t-37.5 -57.5t-56.5 -40.5t-71.5 -15.5q-35 0 -67.5 14.5 t-57.5 39t-40 57.5t-15 69t15 68t40 57t57.5 39.5t67.5 14.5q36 0 68.5 -14t57 -38.5t39 -57t14.5 -69.5z"/>
<glyph glyph-name="Eth" horiz-adv-x="1991" unicode="Ð" d="M1458 901q0 97 -18 190t-52 177q-35 84 -88 153q-54 69 -124 121t-158 80t-193 29q-70 0 -107 -11q-38 -11 -54 -36t-18 -66t-3 -100v-427h427v-137h-427v-456q1 -74 5 -121t24 -74t58 -37t106 -10q151 0 267 56t195 155q80 98 120 230t40 284zM1946 930q0 -195 -61 -365 q-61 -169 -181 -295t-302 -198q-180 -72 -419 -72h-807q-123 0 -123 86q-1 17 3 27t12 18t18 15q12 7 29 18l28 16q45 25 45 135v559h-192v137h192v500q0 111 -45 140l-28 12q-62 38 -62 82q0 23 10 39q9 16 27 26t40 16q22 5 46 5h725q113 0 211 -9t184 -32t166 -62 q79 -39 156 -98q164 -127 246 -300t82 -400z"/>
<glyph glyph-name="Ntilde" horiz-adv-x="1901" unicode="Ñ" d="M1503 1516q0 21 -12 81q-22 48 -98 70q-62 32 -62 86q0 78 172 78h217q168 0 168 -78q0 -55 -61 -86q-77 -23 -94 -70q-10 -21 -17 -81v-1356q0 -112 -25.5 -144t-134.5 -32q-90 0 -126 36q-33 33 -185 263l-782 1077v-1049q8 -58 16 -82q9 -22 23.5 -34t33.5 -19.5 t37 -15.5q66 -25 66 -82q0 -78 -172 -78h-217q-168 0 -168 78q0 59 61 82q46 18 65 28.5t30 40.5q8 24 16 82v1106q-1 40 -1 80q-1 40 -10 70.5t-30.5 52.5t-65.5 35q-50 17 -72 33t-22 57q0 86 144 86h340q74 0 98.5 -8.5t73.5 -57.5q66 -71 141 -168.5t139.5 -186.5 t177.5 -247l336 -475v828zM1383 2362v-45q0 -75 -23.5 -136t-62.5 -104t-90.5 -66.5t-106.5 -23.5q-26 0 -62.5 9.5t-77.5 23.5t-83 31t-77.5 31t-62 23.5t-36.5 9.5q-20 0 -36.5 -5.5t-30 -20t-23.5 -38.5t-16 -60h-77q0 91 22.5 161t61.5 117t91.5 71t113.5 24h30 q10 0 22.5 -2.5t31 -9.5t46 -18.5t68.5 -30.5q136 -63 198 -63q14 0 26.5 3.5t25 16t26.5 37t30 65.5h72z"/>
<glyph glyph-name="Ograve" horiz-adv-x="2150" unicode="Ò" d="M1577 909q0 182 -47.5 356t-161.5 292t-299 118q-266 0 -405 -274q-99 -198 -99 -475q0 -178 47.5 -354.5t159.5 -298t293 -121.5q186 0 301 115t163 286.5t48 355.5zM360 233q-278 268 -278 685q0 203 75.5 378.5t211.5 305t314.5 198t381.5 68.5q204 0 387.5 -68.5 t321 -195t214 -302t76.5 -384.5q0 -271 -136.5 -490.5t-368.5 -342t-502 -122.5q-188 0 -373.5 71t-323.5 199zM870 2458q70 -3 92.5 -21.5t58.5 -85.5l132 -229q36 -63 36 -82q0 -22 -17 -35.5t-40 -13.5q-28 0 -102 53l-320 238q-23 18 -39.5 31.5t-27.5 32.5t-11 42 q0 70 127 70h111z"/>
<glyph glyph-name="Oacute" horiz-adv-x="2150" unicode="Ó" d="M1577 909q0 182 -47.5 356t-161.5 292t-299 118q-266 0 -405 -274q-99 -198 -99 -475q0 -178 47.5 -354.5t159.5 -298t293 -121.5q186 0 301 115t163 286.5t48 355.5zM360 233q-278 268 -278 685q0 203 75.5 378.5t211.5 305t314.5 198t381.5 68.5q204 0 387.5 -68.5 t321 -195t214 -302t76.5 -384.5q0 -271 -136.5 -490.5t-368.5 -342t-502 -122.5q-188 0 -373.5 71t-323.5 199zM1490 2388q-1 -36 -23 -58.5t-55 -47.5l-320 -238q-72 -53 -102 -53q-23 0 -40 13.5t-17 35.5q0 19 36 82l132 229q19 33 31 53.5t26.5 32.5t35.5 16.5t58 4.5 h111q127 0 127 -70z"/>
<glyph glyph-name="Ocircumflex" horiz-adv-x="2150" unicode="Ô" d="M1577 909q0 182 -47.5 356t-161.5 292t-299 118q-266 0 -405 -274q-99 -198 -99 -475q0 -178 47.5 -354.5t159.5 -298t293 -121.5q186 0 301 115t163 286.5t48 355.5zM360 233q-278 268 -278 685q0 203 75.5 378.5t211.5 305t314.5 198t381.5 68.5q204 0 387.5 -68.5 t321 -195t214 -302t76.5 -384.5q0 -271 -136.5 -490.5t-368.5 -342t-502 -122.5q-188 0 -373.5 71t-323.5 199zM1233 2505l274 -514h-105l-320 277l-330 -269h-110l285 506h306z"/>
<glyph glyph-name="Otilde" horiz-adv-x="2150" unicode="Õ" d="M1577 909q0 182 -47.5 356t-161.5 292t-299 118q-266 0 -405 -274q-99 -198 -99 -475q0 -178 47.5 -354.5t159.5 -298t293 -121.5q186 0 301 115t163 286.5t48 355.5zM360 233q-278 268 -278 685q0 203 75.5 378.5t211.5 305t314.5 198t381.5 68.5q204 0 387.5 -68.5 t321 -195t214 -302t76.5 -384.5q0 -271 -136.5 -490.5t-368.5 -342t-502 -122.5q-188 0 -373.5 71t-323.5 199zM1507 2362v-45q0 -75 -23.5 -136t-62.5 -104t-90.5 -66.5t-106.5 -23.5q-26 0 -62.5 9.5t-77.5 23.5t-83 31t-77.5 31t-62 23.5t-36.5 9.5q-20 0 -36.5 -5.5 t-30 -20t-23.5 -38.5t-16 -60h-77q0 91 22.5 161t61.5 117t91.5 71t113.5 24h30q10 0 22.5 -2.5t31 -9.5t46 -18.5t68.5 -30.5q136 -63 198 -63q14 0 26.5 3.5t25 16t26.5 37t30 65.5h72z"/>
<glyph glyph-name="Odieresis" horiz-adv-x="2150" unicode="Ö" d="M1577 909q0 182 -47.5 356t-161.5 292t-299 118q-266 0 -405 -274q-99 -198 -99 -475q0 -178 47.5 -354.5t159.5 -298t293 -121.5q186 0 301 115t163 286.5t48 355.5zM360 233q-278 268 -278 685q0 203 75.5 378.5t211.5 305t314.5 198t381.5 68.5q204 0 387.5 -68.5 t321 -195t214 -302t76.5 -384.5q0 -271 -136.5 -490.5t-368.5 -342t-502 -122.5q-188 0 -373.5 71t-323.5 199zM1002 2171q0 -37 -14.5 -69.5t-39 -57t-57 -39t-69.5 -14.5q-35 0 -67 14t-56.5 38t-39 57t-14.5 71q0 36 14 68t38.5 57t56.5 39.5t68 14.5q37 0 69.5 -14 t57 -38t39 -57t14.5 -70zM1505 2171q0 -34 -13.5 -66.5t-37.5 -57.5t-56.5 -40.5t-71.5 -15.5q-35 0 -67.5 14.5t-57.5 39t-40 57.5t-15 69t15 68t40 57t57.5 39.5t67.5 14.5q36 0 68.5 -14t57 -38.5t39 -57t14.5 -69.5z"/>
<glyph glyph-name="multiply" horiz-adv-x="1651" unicode="×" d="M1371 317l-162 -162l-384 383l-383 -383l-162 162l383 383l-383 383l163 163l383 -383l383 383l162 -162l-383 -383z"/>
<glyph glyph-name="Oslash" horiz-adv-x="2150" unicode="Ø" d="M1411 1507q-59 76 -143 122t-199 46q-113 1 -205 -53t-158 -152t-104 -236q-37 -138 -37 -308q1 -98 15 -200t48 -202zM1577 909q0 57 -5 117q-6 60 -16 118t-26 116t-39 111l-794 -999q30 -50 67 -90q36 -40 82 -69t100 -45t119 -16q95 0 171 32t132 85t96 127t65 158 t37 175t11 180zM1863 1839l-149 -187q80 -63 145 -142t111 -172q46 -92 70 -198t24 -222q0 -134 -35 -256t-99 -228t-156 -193q-91 -87 -203 -149t-242 -95q-130 -34 -272 -34q-158 1 -298 43t-258 120l-175 -221l-116 95l174 218q-70 64 -126 142t-95 166t-60 186t-21 206 q0 137 35 261q35 123 99 229t154 191t198 145q109 60 235 92t262 32q149 0 279 -34t248 -100l159 200z"/>
<glyph glyph-name="Ugrave" horiz-adv-x="1901" unicode="Ù" d="M606 786q0 -286 66 -417q102 -213 381 -213q108 0 212 51.5t152 140.5q66 123 66 434v774q0 52 -17 70t-65 41q-66 29 -66 78q0 86 148 86h217q147 0 147 -86q0 -46 -65 -78q-51 -23 -68.5 -41t-17.5 -70v-737q0 -213 -26 -363.5t-122 -262.5q-191 -230 -618 -230 q-158 0 -318.5 45.5t-263.5 143.5q-117 115 -156.5 272t-39.5 362v725q0 116 -46 140l-24 12q-62 38 -62 82q0 86 123 86h480q135 0 135 -86q0 -50 -58 -78q-63 -24 -73.5 -45t-20.5 -115v-721zM798 2458q70 -3 92.5 -21.5t58.5 -85.5l132 -229q36 -63 36 -82 q0 -22 -17 -35.5t-40 -13.5q-28 0 -102 53l-320 238q-23 18 -39.5 31.5t-27.5 32.5t-11 42q0 70 127 70h111z"/>
<glyph glyph-name="Uacute" horiz-adv-x="1901" unicode="Ú" d="M606 786q0 -286 66 -417q102 -213 381 -213q108 0 212 51.5t152 140.5q66 123 66 434v774q0 52 -17 70t-65 41q-66 29 -66 78q0 86 148 86h217q147 0 147 -86q0 -46 -65 -78q-51 -23 -68.5 -41t-17.5 -70v-737q0 -213 -26 -363.5t-122 -262.5q-191 -230 -618 -230 q-158 0 -318.5 45.5t-263.5 143.5q-117 115 -156.5 272t-39.5 362v725q0 116 -46 140l-24 12q-62 38 -62 82q0 86 123 86h480q135 0 135 -86q0 -50 -58 -78q-63 -24 -73.5 -45t-20.5 -115v-721zM1416 2388q-1 -36 -23 -58.5t-55 -47.5l-320 -238q-72 -53 -102 -53 q-23 0 -40 13.5t-17 35.5q0 19 36 82l132 229q19 33 31 53.5t26.5 32.5t35.5 16.5t58 4.5h111q127 0 127 -70z"/>
<glyph glyph-name="Ucircumflex" horiz-adv-x="1901" unicode="Û" d="M606 786q0 -286 66 -417q102 -213 381 -213q108 0 212 51.5t152 140.5q66 123 66 434v774q0 52 -17 70t-65 41q-66 29 -66 78q0 86 148 86h217q147 0 147 -86q0 -46 -65 -78q-51 -23 -68.5 -41t-17.5 -70v-737q0 -213 -26 -363.5t-122 -262.5q-191 -230 -618 -230 q-158 0 -318.5 45.5t-263.5 143.5q-117 115 -156.5 272t-39.5 362v725q0 116 -46 140l-24 12q-62 38 -62 82q0 86 123 86h480q135 0 135 -86q0 -50 -58 -78q-63 -24 -73.5 -45t-20.5 -115v-721zM1109 2505l274 -514h-105l-320 277l-330 -269h-110l285 506h306z"/>
<glyph glyph-name="Udieresis" horiz-adv-x="1901" unicode="Ü" d="M606 786q0 -286 66 -417q102 -213 381 -213q108 0 212 51.5t152 140.5q66 123 66 434v774q0 52 -17 70t-65 41q-66 29 -66 78q0 86 148 86h217q147 0 147 -86q0 -46 -65 -78q-51 -23 -68.5 -41t-17.5 -70v-737q0 -213 -26 -363.5t-122 -262.5q-191 -230 -618 -230 q-158 0 -318.5 45.5t-263.5 143.5q-117 115 -156.5 272t-39.5 362v725q0 116 -46 140l-24 12q-62 38 -62 82q0 86 123 86h480q135 0 135 -86q0 -50 -58 -78q-63 -24 -73.5 -45t-20.5 -115v-721zM877 2171q0 -37 -14.5 -69.5t-39 -57t-57 -39t-69.5 -14.5q-35 0 -67 14 t-56.5 38t-39 57t-14.5 71q0 36 14 68t38.5 57t56.5 39.5t68 14.5q37 0 69.5 -14t57 -38t39 -57t14.5 -70zM1380 2171q0 -34 -13.5 -66.5t-37.5 -57.5t-56.5 -40.5t-71.5 -15.5q-35 0 -67.5 14.5t-57.5 39t-40 57.5t-15 69t15 68t40 57t57.5 39.5t67.5 14.5q36 0 68.5 -14 t57 -38.5t39 -57t14.5 -69.5z"/>
<glyph glyph-name="Yacute" horiz-adv-x="1847" unicode="Ý" d="M1278 1233l82 135q110 163 110 225q0 25 -15.5 40.5t-47 35t-45.5 35t-14 41.5q0 86 135 86h217q84 0 122 -15.5t38 -70.5q0 -36 -50 -78q-49 -36 -61.5 -48.5t-44.5 -62.5l-549 -806v-435q0 -77 13.5 -103t64.5 -48q61 -31 61 -78q0 -86 -123 -86h-471q-135 0 -135 86 q0 44 58 74q57 34 67 56t10 103v410l-516 799q-31 56 -51.5 74.5t-79.5 52.5q-73 36 -73 90q0 55 62.5 70.5t207.5 15.5h381q131 0 131 -90q0 -25 -13 -39t-44.5 -31.5t-42.5 -27t-11 -29.5q0 -81 119 -258l287 -422zM1393 2388q-1 -36 -23 -58.5t-55 -47.5l-320 -238 q-72 -53 -102 -53q-23 0 -40 13.5t-17 35.5q0 19 36 82l132 229q19 33 31 53.5t26.5 32.5t35.5 16.5t58 4.5h111q127 0 127 -70z"/>
<glyph glyph-name="Thorn" horiz-adv-x="1700" unicode="Þ" d="M1200 981q0 79 -28 143t-75 106q-48 44 -114 68t-143 23q-56 0 -93 -8q-37 -9 -60 -29t-33 -55t-11 -90v-592q110 15 211 47t178 84q76 52 122 127t46 176zM1687 997q0 -119 -54 -219t-146 -178q-93 -78 -215 -130q-122 -53 -258 -77q-36 -5 -80 -11t-92 -10t-100 -8 q-51 -4 -99 -7v-42q0 -107 45 -135l29 -16q61 -39 61 -78q0 -86 -123 -86h-475q-123 0 -123 86q-1 17 3 27t12 18t18 15q12 7 29 18l24 16q45 22 45 135v1196q0 117 -45 140l-24 12q-62 38 -62 82q0 86 123 86h475q25 0 47 -5q22 -6 39 -16t27 -26t10 -39q0 -45 -61 -82 l-29 -12q-45 -29 -45 -140v-14h307q174 1 312 -33t232 -98t144 -157t49 -212z"/>
<glyph glyph-name="germandbls" horiz-adv-x="1521" unicode="ß" d="M1407 575q-1 -123 -29 -231t-84 -188t-138 -124q-84 -46 -193 -46q-66 0 -118 18t-87 47q-36 30 -54 69t-18 83q0 63 37 103t104 40q51 0 85 -26t57 -75l-11 -114q2 -2 6 -8t9 -12q5 -7 15 -11t24 -4q10 0 21 7t19 18t14 25t6 27q0 9 -5 26t-13 43t-21 64q-12 38 -26 89 q-5 19 -8 35t-5 34t-2 38v50v190q0 74 -4 120t-12 73t-24 43q-14 16 -35 30q-21 18 -59 26t-87 8v104q53 0 85 12t51 44q18 32 24 86t6 135q-1 101 -11 163t-31 95t-53 44t-73 11q-27 0 -51 -8t-43 -22t-33 -32t-20 -37q-20 -55 -20 -203v-1434h-525v71q31 0 56 7 q25 8 42 30t26 62t9 109v1050q0 134 40 232t115 162t179 95t232 31q142 0 246 -31t174 -85q68 -54 102 -128t33 -160q0 -67 -13 -120q-12 -53 -44 -94t-85 -71t-132 -49q80 -23 145 -67q64 -44 110 -108q46 -66 70 -156t25 -205z"/>
<glyph glyph-name="agrave" horiz-adv-x="1450" unicode="à" d="M840 635q-147 0 -252 -73.5t-105 -213.5q0 -74 41.5 -127t114.5 -53q111 0 192 119q54 86 54 266v82h-45zM1290 344q0 -106 13 -139q12 -26 53 -49q61 -28 61 -74q0 -53 -35 -67.5t-96 -14.5h-250q-91 0 -111.5 29.5t-23.5 126.5q-119 -193 -389 -193 q-186 0 -318.5 102.5t-132.5 282.5q0 164 115.5 263.5t280.5 139.5t329 40h86q0 119 -59 190.5t-174 71.5q-51 0 -85.5 -20t-77.5 -59.5t-79.5 -60t-89.5 -20.5q-64 0 -109.5 30t-45.5 93q0 111 179.5 158t336.5 47q258 0 417 -91q205 -118 205 -393v-393zM474 1827 q70 -3 92.5 -21.5t58.5 -85.5l132 -229q36 -63 36 -82q0 -22 -17 -35.5t-40 -13.5q-28 0 -102 53l-320 238q-23 18 -39.5 31.5t-27.5 32.5t-11 42q0 70 127 70h111z"/>
<glyph glyph-name="aacute" horiz-adv-x="1450" unicode="á" d="M840 635q-147 0 -252 -73.5t-105 -213.5q0 -74 41.5 -127t114.5 -53q111 0 192 119q54 86 54 266v82h-45zM1290 344q0 -106 13 -139q12 -26 53 -49q61 -28 61 -74q0 -53 -35 -67.5t-96 -14.5h-250q-91 0 -111.5 29.5t-23.5 126.5q-119 -193 -389 -193 q-186 0 -318.5 102.5t-132.5 282.5q0 164 115.5 263.5t280.5 139.5t329 40h86q0 119 -59 190.5t-174 71.5q-51 0 -85.5 -20t-77.5 -59.5t-79.5 -60t-89.5 -20.5q-64 0 -109.5 30t-45.5 93q0 111 179.5 158t336.5 47q258 0 417 -91q205 -118 205 -393v-393zM1148 1757 q-1 -36 -23 -58.5t-55 -47.5l-320 -238q-72 -53 -102 -53q-23 0 -40 13.5t-17 35.5q0 19 36 82l132 229q19 33 31 53.5t26.5 32.5t35.5 16.5t58 4.5h111q127 0 127 -70z"/>
<glyph glyph-name="acircumflex" horiz-adv-x="1450" unicode="â" d="M840 635q-147 0 -252 -73.5t-105 -213.5q0 -74 41.5 -127t114.5 -53q111 0 192 119q54 86 54 266v82h-45zM1290 344q0 -106 13 -139q12 -26 53 -49q61 -28 61 -74q0 -53 -35 -67.5t-96 -14.5h-250q-91 0 -111.5 29.5t-23.5 126.5q-119 -193 -389 -193 q-186 0 -318.5 102.5t-132.5 282.5q0 164 115.5 263.5t280.5 139.5t329 40h86q0 119 -59 190.5t-174 71.5q-51 0 -85.5 -20t-77.5 -59.5t-79.5 -60t-89.5 -20.5q-64 0 -109.5 30t-45.5 93q0 111 179.5 158t336.5 47q258 0 417 -91q205 -118 205 -393v-393zM883 1874 l274 -514h-105l-320 277l-330 -269h-110l285 506h306z"/>
<glyph glyph-name="atilde" horiz-adv-x="1450" unicode="ã" d="M840 635q-147 0 -252 -73.5t-105 -213.5q0 -74 41.5 -127t114.5 -53q111 0 192 119q54 86 54 266v82h-45zM1290 344q0 -106 13 -139q12 -26 53 -49q61 -28 61 -74q0 -53 -35 -67.5t-96 -14.5h-250q-91 0 -111.5 29.5t-23.5 126.5q-119 -193 -389 -193 q-186 0 -318.5 102.5t-132.5 282.5q0 164 115.5 263.5t280.5 139.5t329 40h86q0 119 -59 190.5t-174 71.5q-51 0 -85.5 -20t-77.5 -59.5t-79.5 -60t-89.5 -20.5q-64 0 -109.5 30t-45.5 93q0 111 179.5 158t336.5 47q258 0 417 -91q205 -118 205 -393v-393zM1157 1731v-45 q0 -75 -23.5 -136t-62.5 -104t-90.5 -66.5t-106.5 -23.5q-26 0 -62.5 9.5t-77.5 23.5t-83 31t-77.5 31t-62 23.5t-36.5 9.5q-20 0 -36.5 -5.5t-30 -20t-23.5 -38.5t-16 -60h-77q0 91 22.5 161t61.5 117t91.5 71t113.5 24h30q10 0 22.5 -2.5t31 -9.5t46 -18.5t68.5 -30.5 q136 -63 198 -63q14 0 26.5 3.5t25 16t26.5 37t30 65.5h72z"/>
<glyph glyph-name="adieresis" horiz-adv-x="1450" unicode="ä" d="M840 635q-147 0 -252 -73.5t-105 -213.5q0 -74 41.5 -127t114.5 -53q111 0 192 119q54 86 54 266v82h-45zM1290 344q0 -106 13 -139q12 -26 53 -49q61 -28 61 -74q0 -53 -35 -67.5t-96 -14.5h-250q-91 0 -111.5 29.5t-23.5 126.5q-119 -193 -389 -193 q-186 0 -318.5 102.5t-132.5 282.5q0 164 115.5 263.5t280.5 139.5t329 40h86q0 119 -59 190.5t-174 71.5q-51 0 -85.5 -20t-77.5 -59.5t-79.5 -60t-89.5 -20.5q-64 0 -109.5 30t-45.5 93q0 111 179.5 158t336.5 47q258 0 417 -91q205 -118 205 -393v-393zM609 1540 q0 -37 -14.5 -69.5t-39 -57t-57 -39t-69.5 -14.5q-35 0 -67 14t-56.5 38t-39 57t-14.5 71q0 36 14 68t38.5 57t56.5 39.5t68 14.5q37 0 69.5 -14t57 -38t39 -57t14.5 -70zM1112 1540q0 -34 -13.5 -66.5t-37.5 -57.5t-56.5 -40.5t-71.5 -15.5q-35 0 -67.5 14.5t-57.5 39 t-40 57.5t-15 69t15 68t40 57t57.5 39.5t67.5 14.5q36 0 68.5 -14t57 -38.5t39 -57t14.5 -69.5z"/>
<glyph glyph-name="aring" horiz-adv-x="1450" unicode="å" d="M957 1635q0 -54 -21 -104t-58 -88t-88 -60.5t-110 -22.5q-57 0 -106.5 21.5t-87 59t-59 87.5t-21.5 107t21.5 107t58.5 87.5t87 59.5t107 22t107.5 -21.5t88 -59t59.5 -88t22 -107.5zM821 1635q0 28 -11 53.5t-30 44.5t-44.5 30t-53.5 11t-53.5 -11t-44.5 -30 t-30.5 -44.5t-11.5 -53.5q0 -29 11.5 -54t30.5 -44t44.5 -30t53.5 -11t53.5 11t44.5 30t30 44t11 54zM840 635q-147 0 -252 -73.5t-105 -213.5q0 -74 41.5 -127t114.5 -53q111 0 192 119q54 86 54 266v82h-45zM1290 344q0 -106 13 -139q12 -26 53 -49q61 -28 61 -74 q0 -53 -35 -67.5t-96 -14.5h-250q-91 0 -111.5 29.5t-23.5 126.5q-119 -193 -389 -193q-186 0 -318.5 102.5t-132.5 282.5q0 164 115.5 263.5t280.5 139.5t329 40h86q0 119 -59 190.5t-174 71.5q-51 0 -85.5 -20t-77.5 -59.5t-79.5 -60t-89.5 -20.5q-64 0 -109.5 30 t-45.5 93q0 111 179.5 158t336.5 47q258 0 417 -91q205 -118 205 -393v-393z"/>
<glyph glyph-name="ae" horiz-adv-x="2236" unicode="æ" d="M1759 885q1 75 -37 119t-111 45q-71 1 -126 -39t-93 -104t-56 -144q-20 -81 -20 -164q78 6 158 25t143 53t103 86t39 123zM885 635h-45q-71 -1 -136 -19t-114 -54t-78 -90t-29 -124q1 -36 11 -69t30 -57t49 -40q29 -14 66 -14q45 0 89 20t78 65t56 119t23 181v82z M2176 299q0 -30 -20 -63q-20 -32 -49 -64q-30 -32 -66 -60t-69 -46q-181 -103 -414 -103q-83 0 -165 18q-83 19 -157 53t-138 84t-111 116q-53 -80 -111 -132t-119 -84q-61 -30 -123 -42t-122 -13q-92 0 -174 26q-82 25 -143 75q-62 50 -98 122t-36 162q1 86 33 152t86 116 q54 48 128 82t154 54t164 30q84 9 160 9h86q0 60 -15 108q-15 49 -44 83t-73 52t-101 19q-45 0 -85 -25t-78 -55t-80 -55q-40 -25 -89 -25q-30 0 -58 7q-27 7 -49 22t-35 38t-13 56q0 38 25 68t67 54q42 22 95 38t111 26t114 14t104 5q314 0 475 -132q9 -8 15 -15 q100 72 220 110t258 37q94 -1 186 -23t164 -68t117 -114t45 -160q0 -62 -28 -115t-74 -96t-108 -75t-130 -54q-50 -15 -100 -26t-105 -20q-55 -8 -119 -18t-143 -22q13 -59 42 -108t71 -84q42 -34 95 -54t115 -20q86 0 170 36t166 111q28 27 52 43t47 15q14 0 28 -6t25 -16 q12 -11 18 -23t6 -25z"/>
<glyph glyph-name="ccedilla" horiz-adv-x="1298" unicode="ç" d="M807 176h8q160 0 287 127q60 62 102 62q31 0 52.5 -23t21.5 -55q0 -85 -139 -193q-207 -131 -410 -131q-180 0 -335 75.5t-246 215t-91 324.5q0 192 90 338t246.5 225.5t343.5 79.5q93 0 214 -28.5t209.5 -91t88.5 -155.5q0 -61 -41 -98t-102 -37q-62 0 -97.5 27.5 t-79 85t-82 87t-102.5 29.5q-134 0 -193 -142.5t-65 -311.5h5q0 -165 79.5 -287.5t235.5 -122.5zM877 -277q0 -34 -11 -66.5t-30.5 -60t-46.5 -49t-59 -33.5q-48 -18 -126 -24t-184 -8v63q62 0 105.5 10.5t71.5 30t40.5 47t12.5 61.5q0 38 -31 66t-91 28l157 228h90l-63 -98 q78 -12 121.5 -64.5t43.5 -130.5z"/>
<glyph glyph-name="egrave" horiz-adv-x="1401" unicode="è" d="M926 885q0 74 -37.5 119t-110.5 45q-140 0 -217.5 -139.5t-77.5 -311.5q166 12 304.5 80t138.5 207zM831 164q169 0 336 147q58 58 103 58q26 0 49.5 -21.5t23.5 -48.5q0 -59 -67 -126t-137 -107q-182 -103 -414 -103q-173 0 -327.5 72t-249.5 207t-95 311 q0 200 104 352.5t277.5 234t368.5 81.5q197 0 354.5 -92.5t157.5 -272.5q0 -125 -100.5 -209.5t-239.5 -130.5q-67 -20 -134 -33t-148 -25t-185 -28q25 -119 113.5 -192.5t209.5 -73.5zM558 1827q70 -3 92.5 -21.5t58.5 -85.5l132 -229q36 -63 36 -82q0 -22 -17 -35.5 t-40 -13.5q-28 0 -102 53l-320 238q-23 18 -39.5 31.5t-27.5 32.5t-11 42q0 70 127 70h111z"/>
<glyph glyph-name="eacute" horiz-adv-x="1401" unicode="é" d="M926 885q0 74 -37.5 119t-110.5 45q-140 0 -217.5 -139.5t-77.5 -311.5q166 12 304.5 80t138.5 207zM831 164q169 0 336 147q58 58 103 58q26 0 49.5 -21.5t23.5 -48.5q0 -59 -67 -126t-137 -107q-182 -103 -414 -103q-173 0 -327.5 72t-249.5 207t-95 311 q0 200 104 352.5t277.5 234t368.5 81.5q197 0 354.5 -92.5t157.5 -272.5q0 -125 -100.5 -209.5t-239.5 -130.5q-67 -20 -134 -33t-148 -25t-185 -28q25 -119 113.5 -192.5t209.5 -73.5zM1205 1757q-1 -36 -23 -58.5t-55 -47.5l-320 -238q-72 -53 -102 -53q-23 0 -40 13.5 t-17 35.5q0 19 36 82l132 229q19 33 31 53.5t26.5 32.5t35.5 16.5t58 4.5h111q127 0 127 -70z"/>
<glyph glyph-name="ecircumflex" horiz-adv-x="1401" unicode="ê" d="M926 885q0 74 -37.5 119t-110.5 45q-140 0 -217.5 -139.5t-77.5 -311.5q166 12 304.5 80t138.5 207zM831 164q169 0 336 147q58 58 103 58q26 0 49.5 -21.5t23.5 -48.5q0 -59 -67 -126t-137 -107q-182 -103 -414 -103q-173 0 -327.5 72t-249.5 207t-95 311 q0 200 104 352.5t277.5 234t368.5 81.5q197 0 354.5 -92.5t157.5 -272.5q0 -125 -100.5 -209.5t-239.5 -130.5q-67 -20 -134 -33t-148 -25t-185 -28q25 -119 113.5 -192.5t209.5 -73.5zM943 1874l274 -514h-105l-320 277l-330 -269h-110l285 506h306z"/>
<glyph glyph-name="edieresis" horiz-adv-x="1401" unicode="ë" d="M926 885q0 74 -37.5 119t-110.5 45q-140 0 -217.5 -139.5t-77.5 -311.5q166 12 304.5 80t138.5 207zM831 164q169 0 336 147q58 58 103 58q26 0 49.5 -21.5t23.5 -48.5q0 -59 -67 -126t-137 -107q-182 -103 -414 -103q-173 0 -327.5 72t-249.5 207t-95 311 q0 200 104 352.5t277.5 234t368.5 81.5q197 0 354.5 -92.5t157.5 -272.5q0 -125 -100.5 -209.5t-239.5 -130.5q-67 -20 -134 -33t-148 -25t-185 -28q25 -119 113.5 -192.5t209.5 -73.5zM698 1540q0 -37 -14.5 -69.5t-39 -57t-57 -39t-69.5 -14.5q-35 0 -67 14t-56.5 38 t-39 57t-14.5 71q0 36 14 68t38.5 57t56.5 39.5t68 14.5q37 0 69.5 -14t57 -38t39 -57t14.5 -70zM1201 1540q0 -34 -13.5 -66.5t-37.5 -57.5t-56.5 -40.5t-71.5 -15.5q-35 0 -67.5 14.5t-57.5 39t-40 57.5t-15 69t15 68t40 57t57.5 39.5t67.5 14.5q36 0 68.5 -14t57 -38.5 t39 -57t14.5 -69.5z"/>
<glyph glyph-name="igrave" horiz-adv-x="750" unicode="ì" d="M602 979v-664q0 -26 -1 -44t-1 -32q0 -16 2 -27t8.5 -21.5t18 -21.5t30.5 -26q46 -28 46 -65q0 -78 -95 -78h-422q-94 0 -94 78q0 17 13.5 34t30 31.5t30.5 25t16 15.5q13 29 13 131v394q0 67 -1 111t-8.5 73.5t-24.5 49.5t-48 40q-14 9 -25.5 16t-19.5 15t-12.5 17 t-4.5 22q0 25 11 39.5t30.5 24t47.5 16.5t63 18q62 19 106 32.5t76.5 21.5t56.5 12t47 4q36 0 58 -15t33.5 -45t15.5 -75.5t4 -106.5zM262 1827q70 -3 92.5 -21.5t58.5 -85.5l132 -229q36 -63 36 -82q0 -22 -17 -35.5t-40 -13.5q-28 0 -102 53l-320 238q-23 18 -39.5 31.5 t-27.5 32.5t-11 42q0 70 127 70h111z"/>
<glyph glyph-name="iacute" horiz-adv-x="750" unicode="í" d="M602 979v-664q0 -26 -1 -44t-1 -32q0 -16 2 -27t8.5 -21.5t18 -21.5t30.5 -26q46 -28 46 -65q0 -78 -95 -78h-422q-94 0 -94 78q0 17 13.5 34t30 31.5t30.5 25t16 15.5q13 29 13 131v394q0 67 -1 111t-8.5 73.5t-24.5 49.5t-48 40q-14 9 -25.5 16t-19.5 15t-12.5 17 t-4.5 22q0 25 11 39.5t30.5 24t47.5 16.5t63 18q62 19 106 32.5t76.5 21.5t56.5 12t47 4q36 0 58 -15t33.5 -45t15.5 -75.5t4 -106.5zM655 1757q-1 -36 -23 -58.5t-55 -47.5l-320 -238q-72 -53 -102 -53q-23 0 -40 13.5t-17 35.5q0 19 36 82l132 229q19 33 31 53.5 t26.5 32.5t35.5 16.5t58 4.5h111q127 0 127 -70z"/>
<glyph glyph-name="icircumflex" horiz-adv-x="750" unicode="î" d="M602 979v-664q0 -26 -1 -44t-1 -32q0 -16 2 -27t8.5 -21.5t18 -21.5t30.5 -26q46 -28 46 -65q0 -78 -95 -78h-422q-94 0 -94 78q0 17 13.5 34t30 31.5t30.5 25t16 15.5q13 29 13 131v394q0 67 -1 111t-8.5 73.5t-24.5 49.5t-48 40q-14 9 -25.5 16t-19.5 15t-12.5 17 t-4.5 22q0 25 11 39.5t30.5 24t47.5 16.5t63 18q62 19 106 32.5t76.5 21.5t56.5 12t47 4q36 0 58 -15t33.5 -45t15.5 -75.5t4 -106.5zM535 1874l274 -514h-105l-320 277l-330 -269h-110l285 506h306z"/>
<glyph glyph-name="idieresis" horiz-adv-x="750" unicode="ï" d="M602 979v-664q0 -26 -1 -44t-1 -32q0 -16 2 -27t8.5 -21.5t18 -21.5t30.5 -26q46 -28 46 -65q0 -78 -95 -78h-422q-94 0 -94 78q0 17 13.5 34t30 31.5t30.5 25t16 15.5q13 29 13 131v394q0 67 -1 111t-8.5 73.5t-24.5 49.5t-48 40q-14 9 -25.5 16t-19.5 15t-12.5 17 t-4.5 22q0 25 11 39.5t30.5 24t47.5 16.5t63 18q62 19 106 32.5t76.5 21.5t56.5 12t47 4q36 0 58 -15t33.5 -45t15.5 -75.5t4 -106.5zM273 1540q0 -37 -14.5 -69.5t-39 -57t-57 -39t-69.5 -14.5q-35 0 -67 14t-56.5 38t-39 57t-14.5 71q0 36 14 68t38.5 57t56.5 39.5 t68 14.5q37 0 69.5 -14t57 -38t39 -57t14.5 -70zM776 1540q0 -34 -13.5 -66.5t-37.5 -57.5t-56.5 -40.5t-71.5 -15.5q-35 0 -67.5 14.5t-57.5 39t-40 57.5t-15 69t15 68t40 57t57.5 39.5t67.5 14.5q36 0 68.5 -14t57 -38.5t39 -57t14.5 -69.5z"/>
<glyph glyph-name="eth" horiz-adv-x="1379" unicode="ð" d="M879 667q1 136 -5 219t-17 126q-23 83 -65 117t-100 34q-30 1 -56 -5t-48 -24t-40 -48q-18 -32 -29 -84q-13 -52 -19 -126q-6 -76 -6 -180q0 -166 4 -272t13 -173q11 -67 27 -101t43 -56q46 -39 106 -39q57 0 102 36t64 121q12 55 19 168t7 287zM1281 706 q-1 -164 -39 -301t-112 -235t-185 -152q-110 -54 -253 -55q-125 1 -233 47t-188 132q-79 86 -125 208t-46 272q0 135 36 251q36 117 104 201q66 84 160 132t212 49q46 0 92 -10t106 -31q-23 60 -41 100q-19 40 -37 74t-41 67q-23 34 -57 83l-338 -190l-45 78l324 182 q-49 49 -111 102t-140 110l31 49q61 -25 105 -44t82 -39t76 -45t90 -62l318 179l41 -77l-282 -157q123 -100 215 -204t155 -217q61 -113 93 -237t33 -260z"/>
<glyph glyph-name="ntilde" d="M1401 315q0 -98 12 -131q4 -7 45 -41q45 -29 45 -65q0 -78 -94 -78h-422q-94 0 -94 78q0 36 45 65q41 34 45 41q12 33 12 131v406q0 138 -32.5 214.5t-151.5 76.5q-133 0 -193 -103q-36 -61 -36 -204v-390q0 -98 8 -131q8 -15 49 -41q45 -29 45 -65q0 -78 -98 -78h-422 q-94 0 -94 78q0 36 45 65q47 38 49 41q8 33 8 131v480q0 83 -13 116.5t-61 59.5q-53 18 -53 65q0 60 155 122.5t230 62.5q86 0 111 -181q150 181 397 181q231 0 356 -131q107 -118 107 -361v-414zM1206 1731v-45q0 -75 -23.5 -136t-62.5 -104t-90.5 -66.5t-106.5 -23.5 q-26 0 -62.5 9.5t-77.5 23.5t-83 31t-77.5 31t-62 23.5t-36.5 9.5q-20 0 -36.5 -5.5t-30 -20t-23.5 -38.5t-16 -60h-77q0 91 22.5 161t61.5 117t91.5 71t113.5 24h30q10 0 22.5 -2.5t31 -9.5t46 -18.5t68.5 -30.5q136 -63 198 -63q14 0 26.5 3.5t25 16t26.5 37t30 65.5h72z " unicode="ñ"/>
<glyph glyph-name="ograve" d="M1057 614q0 171 -63 298.5t-216 127.5q-104 0 -167.5 -67t-89 -165.5t-25.5 -205.5q0 -467 278 -467q283 0 283 479zM287 119q-221 175 -221 467q0 263 213 454q204 181 516 181q133 0 258.5 -45t222.5 -126.5t154 -197t57 -254.5q0 -187 -101 -332t-266 -224t-350 -79 q-293 0 -483 156zM608 1827q70 -3 92.5 -21.5t58.5 -85.5l132 -229q36 -63 36 -82q0 -22 -17 -35.5t-40 -13.5q-28 0 -102 53l-320 238q-23 18 -39.5 31.5t-27.5 32.5t-11 42q0 70 127 70h111z" unicode="ò"/>
<glyph glyph-name="oacute" d="M1057 614q0 171 -63 298.5t-216 127.5q-104 0 -167.5 -67t-89 -165.5t-25.5 -205.5q0 -467 278 -467q283 0 283 479zM287 119q-221 175 -221 467q0 263 213 454q204 181 516 181q133 0 258.5 -45t222.5 -126.5t154 -197t57 -254.5q0 -187 -101 -332t-266 -224t-350 -79 q-293 0 -483 156zM1242 1757q-1 -36 -23 -58.5t-55 -47.5l-320 -238q-72 -53 -102 -53q-23 0 -40 13.5t-17 35.5q0 19 36 82l132 229q19 33 31 53.5t26.5 32.5t35.5 16.5t58 4.5h111q127 0 127 -70z" unicode="ó"/>
<glyph glyph-name="ocircumflex" d="M1057 614q0 171 -63 298.5t-216 127.5q-104 0 -167.5 -67t-89 -165.5t-25.5 -205.5q0 -467 278 -467q283 0 283 479zM287 119q-221 175 -221 467q0 263 213 454q204 181 516 181q133 0 258.5 -45t222.5 -126.5t154 -197t57 -254.5q0 -187 -101 -332t-266 -224t-350 -79 q-293 0 -483 156zM932 1874l274 -514h-105l-320 277l-330 -269h-110l285 506h306z" unicode="ô"/>
<glyph glyph-name="otilde" d="M1057 614q0 171 -63 298.5t-216 127.5q-104 0 -167.5 -67t-89 -165.5t-25.5 -205.5q0 -467 278 -467q283 0 283 479zM287 119q-221 175 -221 467q0 263 213 454q204 181 516 181q133 0 258.5 -45t222.5 -126.5t154 -197t57 -254.5q0 -187 -101 -332t-266 -224t-350 -79 q-293 0 -483 156zM1206 1731v-45q0 -75 -23.5 -136t-62.5 -104t-90.5 -66.5t-106.5 -23.5q-26 0 -62.5 9.5t-77.5 23.5t-83 31t-77.5 31t-62 23.5t-36.5 9.5q-20 0 -36.5 -5.5t-30 -20t-23.5 -38.5t-16 -60h-77q0 91 22.5 161t61.5 117t91.5 71t113.5 24h30q10 0 22.5 -2.5 t31 -9.5t46 -18.5t68.5 -30.5q136 -63 198 -63q14 0 26.5 3.5t25 16t26.5 37t30 65.5h72z" unicode="õ"/>
<glyph glyph-name="odieresis" d="M1057 614q0 171 -63 298.5t-216 127.5q-104 0 -167.5 -67t-89 -165.5t-25.5 -205.5q0 -467 278 -467q283 0 283 479zM287 119q-221 175 -221 467q0 263 213 454q204 181 516 181q133 0 258.5 -45t222.5 -126.5t154 -197t57 -254.5q0 -187 -101 -332t-266 -224t-350 -79 q-293 0 -483 156zM701 1540q0 -37 -14.5 -69.5t-39 -57t-57 -39t-69.5 -14.5q-35 0 -67 14t-56.5 38t-39 57t-14.5 71q0 36 14 68t38.5 57t56.5 39.5t68 14.5q37 0 69.5 -14t57 -38t39 -57t14.5 -70zM1204 1540q0 -34 -13.5 -66.5t-37.5 -57.5t-56.5 -40.5t-71.5 -15.5 q-35 0 -67.5 14.5t-57.5 39t-40 57.5t-15 69t15 68t40 57t57.5 39.5t67.5 14.5q36 0 68.5 -14t57 -38.5t39 -57t14.5 -69.5z" unicode="ö"/>
<glyph glyph-name="divide" horiz-adv-x="1607" unicode="÷" d="M981 1190q0 -31 -12 -58q-13 -26 -33 -46t-47 -32t-58 -11q-29 0 -56 12t-47 32t-33 47q-12 27 -12 56q0 30 12 57q13 27 33 47t47 33q27 12 56 12q31 1 59 -11t47 -32q20 -20 32 -48t12 -58zM981 246q0 -31 -12 -58q-13 -28 -33 -48t-47 -32t-58 -11q-31 0 -59 11 t-48 31q-20 19 -32 47t-11 60t13 60t33 47q21 20 48 31t56 11q29 -1 56 -13t48 -32t33 -48q12 -27 13 -56zM1484 598h-1300v238h1300v-238z"/>
<glyph glyph-name="oslash" d="M969 949q-33 43 -80 67t-111 24q-54 0 -96 -18t-73 -50t-53 -74t-35 -92q-13 -48 -19 -100t-6 -104q0 -128 21 -221zM1057 614q0 89 -20 183l-454 -572q67 -90 191 -90q283 0 283 479zM1381 1231l-129 -163q52 -41 96 -92q44 -50 74 -110t48 -128q17 -68 17 -140 q-1 -92 -27 -175t-74 -153t-114 -128q-66 -56 -146 -96t-170 -62t-186 -21q-188 0 -340 70l-129 -163l-116 95l115 144q-108 81 -171 201t-63 276q0 85 24 165q24 81 70 151t111 128t146 102q81 42 177 66t201 23q87 1 171 -19t159 -56l144 180z" unicode="ø"/>
<glyph glyph-name="ugrave" d="M152 836q0 87 -9.5 118t-44.5 54q-45 30 -45 65q0 36 41 57q45 31 246 70q10 21 86 21q87 0 111 -51.5t24 -153.5v-570q0 -131 29.5 -204.5t138.5 -73.5t184 90q45 53 45 193v385q0 75 -9 108.5t-48 63.5q-41 33 -41 65q0 39 37 57q52 32 246 70q87 17 114 17 q82 0 107 -58v-815q0 -106 12 -139q15 -28 58 -49q61 -32 61 -74q0 -53 -36.5 -67.5t-98.5 -14.5h-217q-88 0 -115 29t-41 123q-177 -189 -426 -189q-243 0 -360 189q-49 63 -49 270v414zM614 1827q70 -3 92.5 -21.5t58.5 -85.5l132 -229q36 -63 36 -82q0 -22 -17 -35.5 t-40 -13.5q-28 0 -102 53l-320 238q-23 18 -39.5 31.5t-27.5 32.5t-11 42q0 70 127 70h111z" unicode="ù"/>
<glyph glyph-name="uacute" d="M152 836q0 87 -9.5 118t-44.5 54q-45 30 -45 65q0 36 41 57q45 31 246 70q10 21 86 21q87 0 111 -51.5t24 -153.5v-570q0 -131 29.5 -204.5t138.5 -73.5t184 90q45 53 45 193v385q0 75 -9 108.5t-48 63.5q-41 33 -41 65q0 39 37 57q52 32 246 70q87 17 114 17 q82 0 107 -58v-815q0 -106 12 -139q15 -28 58 -49q61 -32 61 -74q0 -53 -36.5 -67.5t-98.5 -14.5h-217q-88 0 -115 29t-41 123q-177 -189 -426 -189q-243 0 -360 189q-49 63 -49 270v414zM1229 1757q-1 -36 -23 -58.5t-55 -47.5l-320 -238q-72 -53 -102 -53q-23 0 -40 13.5 t-17 35.5q0 19 36 82l132 229q19 33 31 53.5t26.5 32.5t35.5 16.5t58 4.5h111q127 0 127 -70z" unicode="ú"/>
<glyph glyph-name="ucircumflex" d="M152 836q0 87 -9.5 118t-44.5 54q-45 30 -45 65q0 36 41 57q45 31 246 70q10 21 86 21q87 0 111 -51.5t24 -153.5v-570q0 -131 29.5 -204.5t138.5 -73.5t184 90q45 53 45 193v385q0 75 -9 108.5t-48 63.5q-41 33 -41 65q0 39 37 57q52 32 246 70q87 17 114 17 q82 0 107 -58v-815q0 -106 12 -139q15 -28 58 -49q61 -32 61 -74q0 -53 -36.5 -67.5t-98.5 -14.5h-217q-88 0 -115 29t-41 123q-177 -189 -426 -189q-243 0 -360 189q-49 63 -49 270v414zM932 1874l274 -514h-105l-320 277l-330 -269h-110l285 506h306z" unicode="û"/>
<glyph glyph-name="udieresis" d="M152 836q0 87 -9.5 118t-44.5 54q-45 30 -45 65q0 36 41 57q45 31 246 70q10 21 86 21q87 0 111 -51.5t24 -153.5v-570q0 -131 29.5 -204.5t138.5 -73.5t184 90q45 53 45 193v385q0 75 -9 108.5t-48 63.5q-41 33 -41 65q0 39 37 57q52 32 246 70q87 17 114 17 q82 0 107 -58v-815q0 -106 12 -139q15 -28 58 -49q61 -32 61 -74q0 -53 -36.5 -67.5t-98.5 -14.5h-217q-88 0 -115 29t-41 123q-177 -189 -426 -189q-243 0 -360 189q-49 63 -49 270v414zM668 1540q0 -37 -14.5 -69.5t-39 -57t-57 -39t-69.5 -14.5q-35 0 -67 14t-56.5 38 t-39 57t-14.5 71q0 36 14 68t38.5 57t56.5 39.5t68 14.5q37 0 69.5 -14t57 -38t39 -57t14.5 -70zM1171 1540q0 -34 -13.5 -66.5t-37.5 -57.5t-56.5 -40.5t-71.5 -15.5q-35 0 -67.5 14.5t-57.5 39t-40 57.5t-15 69t15 68t40 57t57.5 39.5t67.5 14.5q36 0 68.5 -14t57 -38.5 t39 -57t14.5 -69.5z" unicode="ü"/>
<glyph glyph-name="yacute" horiz-adv-x="1348" unicode="ý" d="M438 1200q160 0 160 -82q0 -26 -30 -56t-43 -49t-13 -71q0 -220 82 -450q29 -91 83 -187t114 -96q70 0 123.5 138.5t83.5 313t30 252.5q0 66 -10 92.5t-55 51.5q-54 30 -54 73q0 44 33 57t111 13h143q156 0 156 -61q0 -33 -41 -82q-3 -6 -11.5 -16.5t-13.5 -19.5t-8 -17 q-11 -32 -41 -230q-38 -249 -153.5 -544t-305.5 -506t-430 -211q-80 0 -152.5 41t-72.5 114q0 59 44.5 95t102.5 36q48 0 113 -26.5t80 -26.5q73 0 184 123q66 72 111 168q-58 -17 -119 -17q-171 0 -307 136q-101 104 -154.5 314t-99.5 501q-9 61 -47.5 93t-38.5 66 q0 70 123 70h323zM1102 1757q-1 -36 -23 -58.5t-55 -47.5l-320 -238q-72 -53 -102 -53q-23 0 -40 13.5t-17 35.5q0 19 36 82l132 229q19 33 31 53.5t26.5 32.5t35.5 16.5t58 4.5h111q127 0 127 -70z"/>
<glyph glyph-name="thorn" horiz-adv-x="1597" unicode="þ" d="M1536 598q0 -127 -44 -242q-44 -114 -125 -202t-193 -140t-248 -51q-38 1 -84 9t-84 26t-64 46t-26 67q0 61 53 61q7 0 23 -2t34 -2q18 -2 34 -3t24 -1q62 0 112 32t85 86q35 56 54 133t19 167q0 75 -14 151t-47 137q-33 62 -83 100t-122 38q-50 0 -92 -14t-74 -51 q-32 -36 -50 -97t-18 -154v-815q0 -54 2 -86t9 -50t20 -27t35 -17q61 -39 61 -78q1 -26 -9 -41q-10 -16 -28 -24t-42 -10q-25 -2 -56 -3h-393q-33 1 -58 3t-42 10t-26 24q-9 15 -9 41q0 21 16 37t36 29t38 27t24 30q13 25 13 135v1558q0 42 -3 70t-11 47q-9 18 -23 32 t-37 27q-53 17 -53 65q0 21 23 43q23 23 59 43t80 38t87 32t79 21q36 8 57 8q13 0 32 -16t36 -52q17 -37 29 -95t13 -143v-515q169 181 385 181q135 0 243 -48q109 -48 185 -132q76 -83 117 -197t41 -246z"/>
<glyph glyph-name="dotlessi" horiz-adv-x="750" unicode="ı" d="M602 979v-664q0 -26 -1 -44t-1 -32q0 -16 2 -27t8.5 -21.5t18 -21.5t30.5 -26q46 -28 46 -65q0 -78 -95 -78h-422q-94 0 -94 78q0 17 13.5 34t30 31.5t30.5 25t16 15.5q13 29 13 131v394q0 67 -1 111t-8.5 73.5t-24.5 49.5t-48 40q-14 9 -25.5 16t-19.5 15t-12.5 17 t-4.5 22q0 25 11 39.5t30.5 24t47.5 16.5t63 18q62 19 106 32.5t76.5 21.5t56.5 12t47 4q36 0 58 -15t33.5 -45t15.5 -75.5t4 -106.5z"/>
<glyph glyph-name="OE" horiz-adv-x="2782" unicode="Œ" d="M1288 1511q0 83 -25 120q-41 21 -89 33t-105 11q-113 1 -205 -53t-158 -152t-104 -236q-37 -138 -37 -308q0 -83 11 -172t35 -175q25 -85 63 -163t94 -136t129 -94q74 -34 168 -34q109 0 192 40q31 34 31 123v1196zM2718 344q0 -8 -4 -32t-10 -57t-16 -71t-22 -70 q-12 -34 -24 -60q-14 -26 -28 -35q-28 -19 -113 -19h-1160q-69 -18 -139 -28t-145 -9q-137 1 -261 33t-232 92t-198 146q-89 86 -152 192q-64 106 -98 230t-34 262q0 137 35 261q35 123 99 229t154 191t198 145q109 60 235 92t262 32q75 0 147 -10t141 -27h1090q63 1 99 -11 t54 -42t24 -82q4 -52 4 -135q0 -107 -90 -107q-24 0 -54 24t-66 54t-74 59t-77 39q-39 9 -97 15t-136 6h-87q-59 -1 -97 -7t-62 -18q-23 -12 -32 -30t-9 -40v-462h377q54 0 88 14t58 31t42 31q19 14 45 14q90 0 90 -172q1 -52 -3 -91t-14 -65t-28 -40q-18 -13 -45 -13 q-21 1 -37 7t-30 16l-28 20t-32 20t-44 16q-25 6 -62 7h-377v-430q1 -69 5 -117t18 -78q14 -31 39 -48t66 -25q41 -7 100 -9t141 -2q64 0 114 4t92 16q42 14 77 38q36 24 73 65q24 28 44 51t38 39q18 17 34 25q18 8 40 8h4q18 0 34 -6t28 -18t20 -27t8 -31z"/>
<glyph glyph-name="oe" horiz-adv-x="2415" unicode="œ" d="M1931 885q1 75 -37 119t-111 45q-71 1 -126 -39t-93 -104t-56 -144q-20 -81 -20 -164q78 6 158 25t143 53t103 86t39 123zM1057 614q0 82 -14 158t-47 136q-32 60 -86 96t-132 36q-54 0 -96 -18t-73 -50t-53 -74t-35 -92q-13 -48 -19 -100t-6 -104q0 -467 278 -467 q283 0 283 479zM2320 856q0 -62 -28 -115t-74 -96t-108 -75t-130 -54q-50 -15 -100 -26t-105 -20q-55 -8 -119 -18t-143 -22q13 -59 42 -108t71 -84q42 -34 95 -54t115 -20q86 0 170 36t166 111q28 27 52 43t47 15q14 0 28 -6t25 -16q12 -11 18 -23t6 -25q0 -30 -20 -63 q-20 -32 -49 -64q-30 -32 -66 -60t-69 -46q-181 -103 -414 -103q-132 1 -254 43t-219 123q-100 -79 -223 -123t-264 -43q-142 1 -270 43t-224 122t-153 196t-57 262q0 85 24 165q24 81 70 151t111 128t146 102q81 42 177 66t201 23q141 -1 267 -47t223 -134q103 88 237 134 t286 47q94 -1 186 -23t164 -68t117 -114t45 -160z"/>
<glyph glyph-name="Scaron" horiz-adv-x="1700" unicode="Š" d="M1085 1135q257 -63 365 -152q180 -147 180 -373q0 -295 -241 -479q-224 -168 -558 -168q-265 0 -479 94q-114 58 -206.5 151.5t-92.5 192.5q0 55 35.5 97.5t87.5 42.5q83 0 139 -95q14 -19 41 -58t42.5 -58t39.5 -40.5t49 -39.5q138 -90 320 -90q145 0 265 76t120 215 q0 135 -127 192q-96 51 -320 90q-267 53 -401 139q-221 156 -221 402q0 127 64.5 248.5t172.5 201.5q194 144 504 144q303 0 553 -131q57 -34 66 -74q20 -57 20 -225q0 -103 -94 -103q-41 0 -76.5 52t-87 130t-136 126.5t-224.5 48.5q-121 0 -216.5 -64.5t-95.5 -177.5 q0 -119 82.5 -172.5t233.5 -93.5zM1339 2497l-290 -506h-304l-271 514h102l322 -278l328 270h113z"/>
<glyph glyph-name="scaron" horiz-adv-x="1249" unicode="š" d="M803 745q174 -43 269 -117.5t95 -234.5q0 -205 -196 -332q-163 -98 -389 -98q-191 0 -328 66q-201 86 -201 213q0 47 30.5 80.5t76.5 33.5q54 0 114 -69q76 -83 125 -115.5t133 -32.5q78 0 145.5 38t67.5 110q0 82 -62.5 107.5t-239 68.5t-263 113.5t-86.5 222.5 q0 212 174 317t400 105q252 0 393 -95q53 -32 53 -168q0 -122 -74 -122q-44 0 -97.5 71.5t-97.5 108.5t-149 37q-75 0 -133.5 -35.5t-58.5 -104.5q0 -90 184 -135zM1089 1866l-290 -506h-304l-271 514h102l322 -278l328 270h113z"/>
<glyph glyph-name="Ydieresis" horiz-adv-x="1847" unicode="Ÿ" d="M1278 1233l82 135q110 163 110 225q0 25 -15.5 40.5t-47 35t-45.5 35t-14 41.5q0 86 135 86h217q84 0 122 -15.5t38 -70.5q0 -36 -50 -78q-49 -36 -61.5 -48.5t-44.5 -62.5l-549 -806v-435q0 -77 13.5 -103t64.5 -48q61 -31 61 -78q0 -86 -123 -86h-471q-135 0 -135 86 q0 44 58 74q57 34 67 56t10 103v410l-516 799q-31 56 -51.5 74.5t-79.5 52.5q-73 36 -73 90q0 55 62.5 70.5t207.5 15.5h381q131 0 131 -90q0 -25 -13 -39t-44.5 -31.5t-42.5 -27t-11 -29.5q0 -81 119 -258l287 -422zM897 2171q0 -37 -14.5 -69.5t-39 -57t-57 -39 t-69.5 -14.5q-35 0 -67 14t-56.5 38t-39 57t-14.5 71q0 36 14 68t38.5 57t56.5 39.5t68 14.5q37 0 69.5 -14t57 -38t39 -57t14.5 -70zM1400 2171q0 -34 -13.5 -66.5t-37.5 -57.5t-56.5 -40.5t-71.5 -15.5q-35 0 -67.5 14.5t-57.5 39t-40 57.5t-15 69t15 68t40 57t57.5 39.5 t67.5 14.5q36 0 68.5 -14t57 -38.5t39 -57t14.5 -69.5z"/>
<glyph glyph-name="circumflex" horiz-adv-x="950" unicode="ˆ" d="M633 1874l274 -514h-105l-320 277l-330 -269h-110l285 506h306z"/>
<glyph glyph-name="caron" horiz-adv-x="950" unicode="ˇ" d="M907 1866l-290 -506h-304l-271 514h102l322 -278l328 270h113z"/>
<glyph glyph-name="tilde" horiz-adv-x="950" unicode="˜" d="M907 1731v-45q0 -75 -23.5 -136t-62.5 -104t-90.5 -66.5t-106.5 -23.5q-26 0 -62.5 9.5t-77.5 23.5t-83 31t-77.5 31t-62 23.5t-36.5 9.5q-20 0 -36.5 -5.5t-30 -20t-23.5 -38.5t-16 -60h-77q0 91 22.5 161t61.5 117t91.5 71t113.5 24h30q10 0 22.5 -2.5t31 -9.5 t46 -18.5t68.5 -30.5q136 -63 198 -63q14 0 26.5 3.5t25 16t26.5 37t30 65.5h72z"/>
<glyph glyph-name="uni2013" horiz-adv-x="1982" unicode="–" d="M274 688v242h1471v-242h-1471z"/>
<glyph glyph-name="uni2014" horiz-adv-x="2789" unicode="—" d="M295 688v242h2290v-242h-2290z"/>
<glyph glyph-name="uni2018" horiz-adv-x="721" unicode="‘" d="M418 1638q53 0 124.5 -43.5t71.5 -193.5q-12 -68 -76.5 -106t-148.5 -38q-51 0 -98 17q-145 61 -152 237q0 65 17 119q33 123 115.5 205.5t171 121t143.5 38.5q24 0 24 -13q-11 -18 -62.5 -64.5t-96.5 -127.5q-33 -65 -33 -152z"/>
<glyph glyph-name="quotesinglbase" horiz-adv-x="721" unicode="‚" d="M635 164q0 -76 -23 -142t-60 -120t-85 -96q-47 -42 -97 -69q-50 -29 -98 -43t-84 -14q-24 0 -24 13q4 7 20 21t38 36t44 50q24 30 44 66t33 79t13 92q-24 0 -58 8q-34 9 -64 33t-52 71t-22 125q5 34 25 61t51 45q32 18 70 28t79 10q59 0 105 -20t78 -53q32 -35 48 -81 q17 -46 19 -100z"/>
<glyph glyph-name="uni201C" horiz-adv-x="1487" unicode="“" d="M1118 1638q53 0 125 -43.5t72 -193.5q-11 -67 -76.5 -105.5t-148.5 -38.5q-52 0 -99 17q-144 60 -151 237q0 64 16 119q34 123 116.5 206t171 121t142.5 38q25 0 25 -13q-8 -14 -62 -63.5t-98 -128.5q-33 -65 -33 -152zM487 1638q54 0 125.5 -43.5t71.5 -193.5 q-11 -67 -76.5 -105.5t-148.5 -38.5q-52 0 -99 17q-144 60 -151 237q0 64 16 119q34 123 116.5 206t171 121t142.5 38q25 0 25 -13q-8 -14 -62 -63.5t-98 -128.5q-33 -67 -33 -152z"/>
<glyph glyph-name="uni201D" horiz-adv-x="1487" unicode="”" d="M389 1614q-53 0 -124.5 43.5t-71.5 193.5q11 68 75 106t150 38q55 0 98 -17q145 -61 152 -237q0 -65 -17 -119q-33 -123 -115.5 -205.5t-171 -121t-143.5 -38.5q-24 0 -24 13q8 13 61.5 62.5t97.5 129.5q33 66 33 152zM1020 1614q-53 0 -125 43.5t-72 193.5 q13 69 76.5 106.5t149.5 37.5q55 0 98 -17q144 -60 151 -237q0 -64 -16 -119q-34 -123 -116.5 -206t-171 -121t-142.5 -38q-25 0 -25 13q9 14 62 63t98 129q33 66 33 152z"/>
<glyph glyph-name="uni2020" horiz-adv-x="1379" unicode="†" d="M1244 1144q0 -41 -16 -70q-16 -30 -42 -48t-60 -27t-70 -9q-8 0 -18 2t-26 9t-41 21t-65 36q-88 49 -188 58q18 -202 145 -310q-41 -122 -67 -232t-41 -219q-19 -139 -28 -329t-9 -444v-123h-67v123q0 216 -6 390q-5 174 -21 320t-44 270q-28 125 -70 244q26 22 52 54 t45 73q20 41 32 87t12 96q-27 -4 -50 -8t-47 -12t-54 -23q-29 -14 -69 -37q-83 -47 -135 -47q-35 0 -65 12q-30 11 -52 33t-34 50t-12 62q-1 31 11 59q12 27 33 49t49 35t64 13q24 0 66 -17t92 -39t104 -43t99 -28q0 37 -14 89q-13 52 -33 106t-41 102q-21 49 -35 82 q-12 39 -12 80q0 42 14 78t38 61t53 39q30 14 62 14q35 0 67 -14t56 -40t38 -60q14 -35 13 -78v-29q1 -18 -5 -39t-24 -63q-46 -107 -78 -189t-32 -139q20 2 48 5t52 13q20 3 47 22t75 42q34 15 56 25t38 14t26 6t19 2q35 0 65 -12t52 -34t36 -50q12 -30 12 -64z"/>
<glyph glyph-name="uni2021" horiz-adv-x="1379" unicode="‡" d="M1228 1255q0 -35 -14 -60t-38 -41t-57 -25q-33 -8 -70 -8q-8 -1 -16 1t-20 6t-30 12t-45 21q-46 22 -79 34q-33 13 -57 19t-44 9q-18 3 -36 7q0 -30 6 -58t24 -56q17 -28 46 -56q29 -29 73 -62q-41 -38 -68 -72t-44 -72t-24 -86q-7 -47 -7 -109q0 -76 5 -133 q5 -58 20 -102t43 -80t75 -69q-41 -39 -66 -65t-41 -50t-24 -52q-9 -27 -18 -67q45 5 94 21t91 33q41 17 71 31t35 15q19 6 35 8t31 2q31 0 59 -10q28 -9 48 -27t32 -43t12 -55t-11 -54t-31 -42t-47 -30q-27 -10 -58 -10q-23 0 -58 11t-75 27t-79 30q-39 16 -69 25 q-16 5 -34 7t-46 6q8 -64 28 -120t42 -105t38 -89t17 -70q0 -33 -11 -60q-12 -27 -32 -47t-48 -31t-60 -11q-34 1 -62 11t-47 30q-20 20 -31 46t-11 58q0 28 16 75t37 101q20 54 40 110t27 102q-37 -4 -87 -21t-102 -36t-100 -34t-78 -15q-32 0 -59 10t-47 28t-30 42 q-11 24 -11 54q-1 28 11 53t31 44t44 31t53 11q17 0 30 -1q13 0 32 -6q18 -6 48 -18t81 -36q94 -42 184 -51q-7 41 -17 71t-26 56t-42 50q-25 25 -64 57q42 33 70 67t46 74q17 40 24 90q7 48 7 108q1 80 -5 135t-22 97t-45 77t-75 75q36 28 62 53t43 51t27 58q10 31 17 70 q-22 0 -52 -8q-31 -8 -65 -21q-34 -12 -70 -27t-72 -27q-34 -13 -64 -21t-50 -8q-32 0 -58 10t-46 30q-18 18 -28 44t-11 55q1 27 13 52t32 43t46 30q26 11 52 11q16 0 34 -3t40 -10t51 -19t69 -31q46 -20 90 -32t89 -17q-7 39 -28 93t-43 110t-40 104q-18 50 -17 79 q1 33 13 61t33 51t48 35t56 12q32 0 60 -12q29 -12 49 -32t32 -49q12 -28 12 -60v-33q0 -10 -2 -20t-10 -28q-6 -16 -18 -44t-30 -72q-22 -52 -36 -98t-22 -97q45 6 69 11t38 10q13 5 23 10t26 11q24 11 54 23t58 23t52 19t35 7q25 1 51 -9t48 -28t38 -44q14 -26 14 -59z "/>
<glyph glyph-name="uni2026" horiz-adv-x="2425" unicode="…" d="M2052 0q-121 0 -189.5 66t-68.5 155q0 87 68 152t190 65q123 0 190.5 -65t67.5 -156q0 -87 -68 -152t-190 -65zM1249 0q-121 0 -189.5 66t-68.5 155q0 87 68 152t190 65q123 0 190.5 -65t67.5 -156q0 -87 -68 -152t-190 -65zM446 0q-121 0 -189.5 66t-68.5 155 q0 87 68 152t190 65q123 0 191 -65.5t68 -155.5q0 -86 -68.5 -151.5t-190.5 -65.5z"/>
<glyph glyph-name="uni2030" horiz-adv-x="3444" unicode="‰" d="M3061 494q0 430 -180 430q-176 0 -176 -442q0 -463 176 -463q180 0 180 475zM745 1380q0 430 -180 430q-176 0 -176 -442q0 -463 176 -463q180 0 180 475zM1962 494q0 430 -180 430q-176 0 -176 -442q0 -463 176 -463q180 0 180 475zM1933 1823q0 -28 -41 -78 l-1208 -1663q-26 -34 -40 -54t-29 -30t-35 -12t-56 -2q-98 0 -98 41v1q0 8 13 28t36 52l1208 1651q25 33 40 52t30 29t36 11q21 2 58 2q86 0 86 -28zM3389 474q0 -122 -33 -226t-98 -181q-64 -76 -160 -119t-221 -43q-119 0 -212 46q-93 47 -157 125t-98 183t-33 223 q0 112 35 214t100 178t156 120t204 45q124 0 220 -46q96 -45 162 -123t100 -180t35 -216zM2290 474q0 -122 -33 -226t-98 -181q-65 -76 -161 -119t-220 -43q-119 0 -212 46q-93 47 -157 125q-63 78 -97 183t-34 223q0 112 35 214t100 178t156 120t204 45q123 0 219 -46 q96 -45 163 -123t101 -180t34 -216zM1073 1360q0 -122 -33 -226t-98 -181q-64 -76 -160 -119t-221 -43q-119 0 -212 46q-93 47 -157 125t-98 183t-33 223q0 112 35 214t100 178t156 120t204 45q124 0 220 -46q96 -45 162 -123t100 -180t35 -216z"/>
<glyph glyph-name="uni2039" horiz-adv-x="918" unicode="‹" d="M792 1246l-315 -618l315 -618h-102l-566 618l572 618h96z"/>
<glyph glyph-name="uni203A" horiz-adv-x="918" unicode="›" d="M794 628l-570 -618h-95l314 618l-314 618h102z"/>
<glyph glyph-name="Euro" horiz-adv-x="1490" unicode="€" d="M1218 938h-610v-32t-1 -30h593l-45 -142h-548q31 -604 316 -604q142 0 233 88q23 23 63 76t97 141l102 -68q-60 -103 -109 -171t-91 -103q-78 -66 -169 -99q-88 -32 -199 -32h-7q-144 0 -263 54q-120 54 -208 156t-142 244t-70 318h-142l46 142h90v30t2 32h-138l46 145 h105q27 157 97 290t170 229q102 96 230 151q128 54 275 54q68 1 122 -7q53 -8 103 -23t100 -37t109 -53v-418h-97q-7 87 -32 159q-24 72 -64 123t-94 79t-118 27q-66 -1 -124 -41t-102 -115t-76 -181t-47 -237h640z"/>
<glyph glyph-name="uni2122" horiz-adv-x="2758" unicode="™" d="M1042 1826v-304h-46q0 52 -15 96t-47 74t-79 48q-48 16 -115 16h-57v-791q0 -56 5 -91t20 -55q14 -20 42 -27t72 -7v-47h-612v47q51 1 79 7q27 6 41 26t16 56t3 95v787h-47q-131 0 -196 -56t-65 -178h-45v304h1046zM2772 1826q-52 -20 -80 -38t-40 -44t-14 -60 q-2 -36 -2 -89v-636q0 -57 8 -91t24 -52t42 -25q26 -6 62 -6v-47h-620v47q45 0 75 5t47 23q17 19 24 53t7 93v681l-430 -902h-33l-428 902v-675q0 -49 2 -77t6 -43t14 -23t27 -18q17 -8 43 -14t63 -5v-47h-380v47q52 0 82 7q30 6 45 26q14 20 18 56t4 93v630q0 69 -8 105 t-26 53q-18 16 -46 18t-69 2v51h496l312 -667l308 667h467z"/>
<glyph glyph-name="Aring.ref1" d="M1183 2083q0 -54 -21 -104t-58 -88t-88 -60.5t-110 -22.5q-57 0 -106.5 21.5t-87 59t-59 87.5t-21.5 107t21.5 107t58.5 87.5t87 59.5t107 22t107.5 -21.5t88 -59t59.5 -88t22 -107.5zM1047 2083q0 28 -11 53.5t-30 44.5t-44.5 30t-53.5 11t-53.5 -11t-44.5 -30 t-30.5 -44.5t-11.5 -53.5q0 -29 11.5 -54t30.5 -44t44.5 -30t53.5 -11t53.5 11t44.5 30t30 44t11 54z" horiz-adv-x="4096"/>
<glyph glyph-name="aring.ref1" d="M957 1635q0 -54 -21 -104t-58 -88t-88 -60.5t-110 -22.5q-57 0 -106.5 21.5t-87 59t-59 87.5t-21.5 107t21.5 107t58.5 87.5t87 59.5t107 22t107.5 -21.5t88 -59t59.5 -88t22 -107.5zM821 1635q0 28 -11 53.5t-30 44.5t-44.5 30t-53.5 11t-53.5 -11t-44.5 -30 t-30.5 -44.5t-11.5 -53.5q0 -29 11.5 -54t30.5 -44t44.5 -30t53.5 -11t53.5 11t44.5 30t30 44t11 54z" horiz-adv-x="4096"/>
</font>
</defs>
</svg>
