<?xml version="1.0" encoding="UTF-8" standalone="no"?>
<!DOCTYPE svg  PUBLIC '-//W3C//DTD SVG 1.1//EN'  'http://www.w3.org/Graphics/SVG/1.1/DTD/svg11.dtd'>
<svg xmlns="http://www.w3.org/2000/svg">
<defs>
<font id="Lane-Narrow" horiz-adv-x="521">
<font-face underline-position="-93" font-weight="400" descent="-200" panose-1="2 0 5 6 2 0 0 2 0 4" units-per-em="1000" unicode-range="U+0020-2212" bbox="-50 -235 938 963" x-height="519" underline-thickness="21" font-family="Lane" ascent="800" cap-height="719"/>
<missing-glyph horiz-adv-x="1000"/>
<glyph glyph-name=".notdef" horiz-adv-x="1000"/>
<glyph glyph-name=".null" horiz-adv-x="0"/>
<glyph glyph-name="nonmarkingreturn" horiz-adv-x="1000"/>
<glyph glyph-name="space" horiz-adv-x="260" unicode=" "/>
<glyph glyph-name="exclam" horiz-adv-x="307" unicode="!" d="M133 47q0 47 21 47q22 0 22 -47t-22 -47q-21 0 -21 47zM143 179l-9 539h42l-9 -539h-24z"/>
<glyph glyph-name="quotedbl" horiz-adv-x="259" unicode='&quot;' d="M50 700h34v-221h-34v221zM175 700h34v-221h-34v221z"/>
<glyph glyph-name="numbersign" horiz-adv-x="534" unicode="#" d="M234 425l-49 -142h133l49 142h-133zM240 570h47l-40 -109h134l40 109h46l-39 -109l68 -1l-12 -36l-70 1l-50 -142h82l-10 -36h-84l-39 -111h-47l40 111h-135l-41 -111h-46l40 111h-74l11 36h75l52 142l-85 -1l11 36l86 1z"/>
<glyph glyph-name="dollar" horiz-adv-x="573" unicode="$" d="M297 292l36 -9v-266q62 9 105 44q57 46 57 121q0 83 -67 125q-33 20 -144 52l-13 4q-125 35 -157 65q-51 46 -51 119q0 84 59 137q41 35 97 45v110h36v-105q6 1 12 1h12h9t9 -1v105h36v-109q65 -10 110 -52q61 -55 66 -154h-32q-2 84 -56 133q-37 34 -88 44v-280l-36 10 v276h-20h-11t-11 -1v-260l-36 10v245q-46 -11 -75 -37q-49 -43 -49 -117q0 -56 44 -97q33 -30 142 -58q1 -2 5 -2t9 -2q57 -14 96 -29t62 -29q76 -49 76 -139q0 -94 -65 -150q-51 -43 -131 -54v-92h-36v90h-7q-8 1 -17 1t-18 1v-92h-36v98q-59 14 -100 53q-66 63 -74 173h33 q6 -95 64 -150q31 -31 77 -45v303l36 -10v-300q18 -3 36 -3h6v278z"/>
<glyph glyph-name="percent" horiz-adv-x="727" unicode="%" d="M516 752h34l-346 -752h-35zM437 175q0 -53 26 -94q32 -47 81 -47t81 48q26 41 26 93q0 53 -26 94q-32 47 -81 47q-50 0 -81 -46q-26 -41 -26 -95zM76 547q0 -54 27 -94q30 -48 81 -48q48 0 80 48q27 40 27 94q0 53 -27 94q-32 47 -80 47q-51 0 -81 -47q-27 -41 -27 -94z M45 547q0 66 36 116q41 56 103 56q61 0 102 -56q36 -51 36 -116q0 -67 -35 -116q-39 -56 -103 -56q-62 0 -103 56q-36 49 -36 116zM406 175q0 65 35 117q41 56 103 56t103 -57q36 -51 36 -116q0 -66 -35 -116q-41 -56 -104 -56t-103 57q-35 50 -35 115z"/>
<glyph glyph-name="ampersand" horiz-adv-x="609" unicode="&amp;" d="M304 469q27 1 58 34q36 37 36 81q0 49 -31 78t-80 29q-45 1 -75 -27t-31 -73q0 -40 28 -78q33 -46 80 -46q5 0 15 2zM528 324h31q-1 -119 -48 -199l101 -125h-41l-79 96q-93 -115 -216 -115q-97 0 -158 57q-63 58 -63 149v6q4 169 217 248q-8 -2 -13 -2q-42 0 -79 54 q-33 45 -33 84q0 69 42 107q41 35 102 35q63 0 101 -36t37 -99q0 -117 -145 -178q-96 -41 -139 -87q-57 -59 -57 -125q0 -79 50 -132q51 -52 129 -52q65 0 124 36q67 39 101 105q36 67 36 173z"/>
<glyph glyph-name="quotesingle" horiz-adv-x="134" unicode="&apos;" d="M50 700h34v-221h-34v221z"/>
<glyph glyph-name="parenleft" horiz-adv-x="288" unicode="(" d="M285 -219h-34q-154 229 -154 477q0 246 143 458h35q-145 -205 -145 -454q0 -251 155 -481z"/>
<glyph glyph-name="parenright" horiz-adv-x="288" unicode=")" d="M6 -219q156 231 156 481q0 249 -145 454h35q143 -212 143 -458q0 -245 -155 -477h-34z"/>
<glyph glyph-name="asterisk" horiz-adv-x="500" unicode="*" d="M247 583l2 -2h2l2 2l-2 2h-2zM173 559q31 18 51 24q-20 6 -51 24q-57 33 -57 49q0 8 10 8q18 0 65 -27q16 -8 27 -16t19 -15q-5 22 -5 55q0 76 18 76t18 -76q0 -33 -5 -55q8 7 19 15t27 16q46 27 65 27q10 0 10 -8q0 -16 -57 -49q-32 -18 -51 -24q19 -6 51 -24 q57 -33 57 -49q0 -8 -10 -8q-19 0 -65 27q-16 8 -27 16t-19 15q5 -22 5 -55q0 -76 -18 -76t-18 76q0 33 5 55q-8 -7 -19 -15t-27 -16q-47 -27 -65 -27q-10 0 -10 8q0 16 57 49z"/>
<glyph glyph-name="plus" horiz-adv-x="833" unicode="+" d="M402 596h30v-283h277v-30h-277v-283h-30v283h-278v30h278v283z"/>
<glyph glyph-name="comma" horiz-adv-x="260" unicode="," d="M85 51q0 19 13 33t31 15v3h35v-221h-35v122q-18 0 -31 15t-13 33z"/>
<glyph glyph-name="hyphen" horiz-adv-x="343" unicode="-" d="M38 244v28h266v-28h-266z"/>
<glyph glyph-name="hyphen" horiz-adv-x="343" unicode="­" d="M38 244v28h266v-28h-266z"/>
<glyph glyph-name="period" horiz-adv-x="260" unicode="." d="M108 41q0 13 1 18v4q1 1 1 4l1 2q0 1 1 3q1 5 5 9q2 3 7 5q2 1 6 1h2q2 -1 4 -1t5 -3t4 -5l3 -6q2 -6 2 -9q2 -5 2 -11v-11v-9v-3t-1 -3q0 -5 -1 -7q0 -4 -2 -10q-2 -1 -2 -3t-1 -4l-2 -2q-4 -4 -8 -5q-1 -1 -5 -1t-6 1q-2 0 -4 2q-5 3 -6 7q-1 1 -1 3q-2 4 -4 15 q-1 3 -1 10v9z"/>
<glyph glyph-name="slash" horiz-adv-x="292" unicode="/" d="M299 738h34l-315 -821h-34z"/>
<glyph glyph-name="zero" d="M201 213l-24 15l137 228l24 -15zM73 340q0 -127 32 -211q47 -119 156 -119t156 119q31 80 31 211q0 130 -31 210q-47 119 -156 119q-110 0 -156 -118q-32 -84 -32 -211zM39 340q0 141 41 234q56 125 180 125q125 0 181 -125q41 -93 41 -234q0 -142 -41 -235 q-55 -124 -181 -124q-124 0 -180 125q-41 93 -41 234z" unicode="0"/>
<glyph glyph-name="one" d="M158 497v45l116 138l1 -1h33v-679h-33l-1 630z" unicode="1"/>
<glyph glyph-name="two" d="M391 396q41 47 41 112q0 73 -43 116t-116 43q-78 1 -123 -45t-45 -125v-11h-35v9q0 95 54 149t149 54q87 0 141 -50t54 -137q0 -76 -45 -128h1l-318 -353h358v-30h-432z" unicode="2"/>
<glyph glyph-name="three" d="M253 14q80 0 133 47q55 49 55 129q0 87 -54 137q-53 48 -140 48h-16q-7 0 -15 -1l-5 32l23 -1h19q167 0 167 136q0 126 -159 126q-123 0 -155 -107l-29 14q39 123 191 123q81 0 131 -36q56 -41 56 -119q0 -142 -116 -153q63 -13 101 -73q36 -54 36 -122q0 -98 -63 -156 q-61 -55 -159 -55q-173 0 -203 163l30 14q23 -146 172 -146z" unicode="3"/>
<glyph glyph-name="four" d="M367 210v413l-286 -413h286zM366 0v181h-319l-10 22l326 475l35 1v-468h77v-30h-77v-181h-32z" unicode="4"/>
<glyph glyph-name="five" d="M48 175h32q16 -165 171 -165q90 0 139 55q49 52 49 143q0 88 -49 138t-134 50q-102 0 -157 -72h-27l-1 355h374v-30h-341v-281q58 57 158 57q98 0 155 -62q56 -61 56 -159q1 -50 -15 -92t-44 -71t-70 -45q-40 -16 -91 -16q-89 0 -144 53q-52 51 -61 142z" unicode="5"/>
<glyph glyph-name="six" d="M440 211q0 88 -40 140q-45 60 -129 60q-82 0 -129 -59q-42 -56 -42 -140q0 -86 40 -139q43 -61 126 -61q84 0 131 59q43 53 43 140zM466 529h-32q-20 137 -155 137q-198 0 -198 -335v-30q0 -12 1 -20q39 160 190 160q99 0 153 -67q50 -62 50 -163q0 -98 -51 -162 q-56 -68 -151 -68q-226 0 -226 342q0 374 238 374q79 0 127 -45q46 -44 54 -123z" unicode="6"/>
<glyph glyph-name="seven" d="M440 680h35l-239 -680h-34l227 646l-371 1v32h382v1z" unicode="7"/>
<glyph glyph-name="eight" d="M108 527q0 -68 43 -105q40 -36 109 -36q68 0 109 37q44 38 44 104t-44 105q-41 37 -109 37t-109 -37q-43 -39 -43 -105zM79 194q-1 -82 49 -130t132 -49q40 1 74 13t57 35t37 55t14 74q0 80 -52 123q-50 41 -130 41q-82 0 -129 -40q-52 -43 -52 -122zM176 373 q-104 44 -104 151q0 81 54 129q51 45 134 45q84 0 135 -45q53 -47 53 -129q0 -105 -103 -151q132 -44 132 -180q0 -101 -61 -156q-58 -55 -159 -55q-95 0 -153 55q-60 57 -60 152q0 137 132 184z" unicode="8"/>
<glyph glyph-name="nine" d="M81 466q0 -85 41 -140q45 -60 128 -60q82 0 129 60q43 52 43 139q0 86 -40 139q-45 61 -127 61q-84 0 -131 -59q-43 -52 -43 -140zM55 148h32q20 -137 155 -137q198 0 198 335v28q0 13 -1 22q-18 -74 -65 -116q-52 -44 -125 -44q-100 0 -152 67q-50 62 -50 163 q0 98 50 162q54 69 151 69q227 0 227 -343q0 -373 -239 -373q-78 0 -127 44q-47 43 -54 123z" unicode="9"/>
<glyph glyph-name="colon" horiz-adv-x="284" unicode=":" d="M113 41q0 46 22 46t22 -46q0 -47 -22 -47t-22 47zM113 436q0 47 22 47t22 -47t-22 -47t-22 47z"/>
<glyph glyph-name="less" horiz-adv-x="532" unicode="&lt;" d="M462 492v-34l-339 -160l339 -164v-34l-393 188v20z"/>
<glyph glyph-name="equal" horiz-adv-x="833" unicode="=" d="M124 395h585v-31h-585v31zM124 237h585v-31h-585v31z"/>
<glyph glyph-name="greater" horiz-adv-x="532" unicode="&gt;" d="M69 492l393 -184v-20l-393 -188v34l340 164l-340 160v34z"/>
<glyph glyph-name="question" horiz-adv-x="463" unicode="?" d="M196 47q0 47 21 47q22 0 22 -47t-22 -47q-21 0 -21 47zM36 576q12 58 47 98q55 60 155 60q84 0 137 -44q58 -46 58 -129q0 -72 -52 -112q-3 -3 -27 -21t-70 -53q-53 -51 -53 -139q-1 -14 1 -28t4 -31h-32q-3 30 -3 55q0 100 51 159q6 6 96 72q51 37 51 94q0 145 -167 145 q-140 0 -164 -136z"/>
<glyph glyph-name="at" horiz-adv-x="1000" unicode="@" d="M330 151q31 -58 107 -58h8q81 1 134 65q45 53 59 141q2 13 3 26t1 26q0 51 -20 88q-31 59 -109 59h-5q-81 -1 -134 -65q-46 -55 -60 -142q-2 -13 -3 -27t-1 -25q0 -51 20 -88zM440 63h-4q-84 0 -133 81q-26 44 -26 93q-1 11 1 24t4 29q17 105 71 165q61 70 159 72h7 q110 0 139 -93l14 88l32 1l-67 -428q1 -9 2 -15t2 -8q4 -9 21 -9q4 1 9 1t12 1q55 10 87 33q6 4 20 17t34 35q74 79 74 230q0 141 -111 224q-99 72 -247 72q-162 0 -277 -92q-157 -126 -157 -336q0 -169 116 -264q107 -88 282 -88q168 0 308 94l11 -17q-141 -105 -314 -105 q-186 0 -301 88q-146 111 -146 300q0 159 96 276q143 173 386 173q161 0 268 -81q126 -96 126 -245q0 -180 -107 -266q-29 -23 -45 -35t-19 -14q-19 -11 -43 -18t-51 -11q-9 -1 -15 -1t-11 -1q-44 0 -44 35q0 7 1 10h-1l13 85q-58 -97 -176 -100z"/>
<glyph glyph-name="A" horiz-adv-x="574" unicode="A" d="M134 275h311l-154 405zM-5 0l277 719h38l273 -719h-33l-93 245h-335l-94 -245h-33z"/>
<glyph glyph-name="B" horiz-adv-x="618" unicode="B" d="M116 387h167q225 0 225 156q0 91 -73 124q-48 22 -154 22h-165v-302zM116 30h178q118 0 162 18q88 36 88 150q0 98 -81 136q-57 27 -168 27h-179v-331zM82 0v719h197q134 0 186 -31q77 -45 77 -147q0 -121 -123 -164q160 -31 160 -185q0 -106 -82 -157q-58 -35 -196 -35 h-219z"/>
<glyph glyph-name="C" horiz-adv-x="681" unicode="C" d="M618 173q-19 -73 -74 -122q-74 -65 -194 -65q-154 0 -232 113q-67 97 -67 259t69 263q79 114 236 114q107 0 181 -59q53 -42 75 -103l-31 -16q-49 148 -231 148q-135 0 -205 -111q-59 -94 -59 -236q0 -143 57 -234q68 -110 202 -110q108 0 175 58q52 45 69 116z"/>
<glyph glyph-name="D" horiz-adv-x="689" unicode="D" d="M116 30h139q145 0 214 36q133 70 133 293q0 181 -95 267q-45 40 -119 54q-23 4 -56 6t-77 2h-139v-658zM82 0v719h165q159 0 231 -35q159 -80 159 -325q0 -249 -159 -324q-76 -35 -231 -35h-165z"/>
<glyph glyph-name="E" horiz-adv-x="567" unicode="E" d="M82 0v719h439v-32h-405v-297h321v-31h-321v-327h415v-32h-449z"/>
<glyph glyph-name="F" horiz-adv-x="523" unicode="F" d="M82 0v719h420v-32h-386v-297h307v-31h-307v-359h-34z"/>
<glyph glyph-name="G" horiz-adv-x="709" unicode="G" d="M603 546q-48 159 -239 159q-139 0 -213 -107q-64 -92 -64 -239t64 -238q74 -107 213 -107q122 0 191 74q67 71 67 195v31h-237v30h269q1 -10 1 -19v-18q0 -229 -157 -296q-63 -26 -134 -26q-156 0 -238 112q-74 101 -74 262q0 162 73 262q82 114 239 114q97 0 167 -41 q76 -45 103 -133z"/>
<glyph glyph-name="H" horiz-adv-x="686" unicode="H" d="M82 0v719h34v-320h455v320h33v-719h-33v369h-455v-369h-34z"/>
<glyph glyph-name="I" horiz-adv-x="207" unicode="I" d="M87 0v719h33v-719h-33z"/>
<glyph glyph-name="J" horiz-adv-x="473" unicode="J" d="M217 13q90 0 123 62q25 44 25 144v500h33v-510q0 -225 -184 -225q-121 0 -160 97q8 1 16 5t15 8q33 -81 132 -81z"/>
<glyph glyph-name="K" horiz-adv-x="582" unicode="K" d="M82 0v719h34v-405l399 405h43l-284 -288l327 -431h-40l-309 408l-136 -138v-270h-34z"/>
<glyph glyph-name="L" horiz-adv-x="509" unicode="L" d="M83 0v719h34v-687h381v-32h-415z"/>
<glyph glyph-name="M" horiz-adv-x="773" unicode="M" d="M82 0v719h48l262 -506l252 506h47v-719h-30v677l-260 -505h-20l-269 505v-677h-30z"/>
<glyph glyph-name="N" horiz-adv-x="682" unicode="N" d="M82 0v719h34l451 -662v662h33v-719h-33l-452 661v-661h-33z"/>
<glyph glyph-name="O" horiz-adv-x="741" unicode="O" d="M87 359q0 -149 65 -241q74 -104 218 -104q145 0 219 104q65 91 65 241q0 149 -66 241q-75 105 -218 105t-218 -105q-65 -92 -65 -241zM52 359q0 163 75 264q84 112 243 112q160 0 244 -111q75 -101 75 -265q0 -165 -75 -264q-84 -110 -244 -110t-243 110q-75 99 -75 264z "/>
<glyph glyph-name="P" horiz-adv-x="575" unicode="P" d="M254 689h-138v-327h137q125 0 167 19q82 36 82 151q0 130 -133 151q-36 6 -115 6zM278 719q259 0 259 -190q0 -87 -54 -142q-36 -36 -97 -48q-35 -7 -111 -7h-159v-332h-34v719h196z"/>
<glyph glyph-name="Q" horiz-adv-x="741" unicode="Q" d="M489 37q-11 46 -15 60q-11 32 -27 50q-35 42 -149 49l2 32q43 -3 91 -17q64 -19 88 -57q15 -25 34 -104q35 20 65 56q76 91 76 253q0 149 -66 241q-75 105 -218 105t-218 -105q-65 -92 -65 -241t65 -241q74 -104 218 -104q65 0 119 23zM696 -79l-6 -26q-123 8 -164 56 q-19 22 -29 55q-57 -21 -127 -21q-160 0 -243 110q-75 99 -75 264q0 163 75 264q84 112 243 112q160 0 244 -111q75 -101 75 -265q0 -175 -85 -275q-36 -42 -82 -66q11 -32 26 -48q34 -40 148 -49z"/>
<glyph glyph-name="R" horiz-adv-x="622" unicode="R" d="M116 370h222q195 0 195 158q0 133 -121 155q-14 1 -37 3t-54 2h-205v-318zM333 340h-217v-340h-34v719h239q119 0 175 -34q71 -44 71 -154q0 -137 -130 -177q91 -18 101 -124q1 -5 1 -93l1 -137h-39v161q-1 29 -1 47t-1 25q-11 66 -56 89q-35 18 -110 18z"/>
<glyph glyph-name="S" horiz-adv-x="573" unicode="S" d="M45 219h33q6 -93 62 -149t151 -56q84 0 140 42q64 46 64 126q0 83 -67 125q-33 22 -144 52q-1 1 -13 4q-124 35 -157 65q-51 46 -51 119q0 92 64 141q59 47 152 47q101 0 162 -55q63 -55 68 -156h-32q-2 87 -59 136q-55 47 -141 47q-80 0 -129 -40q-53 -42 -53 -120 q0 -56 44 -97q33 -30 142 -58q1 -2 5 -2t9 -2q115 -31 158 -58q76 -49 76 -139q0 -100 -71 -156q-65 -50 -168 -50q-109 0 -173 63q-65 61 -72 171z"/>
<glyph glyph-name="T" horiz-adv-x="509" unicode="T" d="M240 0v688h-224v31h482v-31h-224v-688h-34z"/>
<glyph glyph-name="U" horiz-adv-x="671" unicode="U" d="M77 719h33v-452q0 -253 226 -253q115 0 173 70q53 65 53 183v452h33v-468q0 -125 -67 -195q-69 -71 -192 -71q-124 0 -192 71q-67 68 -67 195v468z"/>
<glyph glyph-name="V" horiz-adv-x="525" unicode="V" d="M246 0l-248 719h34l231 -670l230 670h35l-250 -719h-32z"/>
<glyph glyph-name="W" horiz-adv-x="824" unicode="W" d="M200 0l-192 719h34l176 -659l178 488h32l179 -488l175 659h34l-192 -719h-34l-178 501l-178 -501h-34z"/>
<glyph glyph-name="X" horiz-adv-x="530" unicode="X" d="M1 0l244 368l-233 351h39l214 -323l213 323h37l-230 -350l244 -369h-38l-228 339l-225 -339h-37z"/>
<glyph glyph-name="Y" horiz-adv-x="530" unicode="Y" d="M248 0v318l-247 401h38l227 -367l224 367h38l-247 -403v-316h-33z"/>
<glyph glyph-name="Z" horiz-adv-x="529" unicode="Z" d="M9 0v33l462 655h-423v31h459v-34l-462 -655h474v-30h-510z"/>
<glyph glyph-name="bracketleft" horiz-adv-x="302" unicode="[" d="M284 -205h-169v923h169v-31h-134v-862h134v-30z"/>
<glyph glyph-name="backslash" horiz-adv-x="292" unicode="\" d="M-36 738h35l308 -821h-35z"/>
<glyph glyph-name="bracketright" horiz-adv-x="302" unicode="]" d="M22 -205v30h134v862h-134v31h169v-923h-169z"/>
<glyph glyph-name="asciicircum" horiz-adv-x="542" unicode="^" d="M248 711h47l145 -245h-53l-116 196l-115 -196h-53z"/>
<glyph glyph-name="underscore" horiz-adv-x="500" unicode="_" d="M0 -205h500v-30h-500v30z"/>
<glyph glyph-name="grave" horiz-adv-x="500" unicode="`" d="M306 584h-53l-102 160h53z"/>
<glyph glyph-name="a" horiz-adv-x="572" unicode="a" d="M78 258q0 -105 45 -169q52 -75 152 -75t151 75q45 64 45 169q0 104 -45 169q-51 75 -151 75t-151 -75q-46 -64 -46 -169zM471 112q-50 -125 -196 -125q-113 0 -175 80q-54 73 -54 191q0 119 54 191q60 81 175 81q145 0 196 -130v119h31v-519h-31v112z"/>
<glyph glyph-name="b" horiz-adv-x="572" unicode="b" d="M101 258q0 -105 45 -169q52 -75 151 -75t152 75q45 64 45 169q0 104 -45 169q-53 75 -152 75q-100 0 -151 -75q-45 -65 -45 -169zM69 0v718h32v-317q54 129 196 129q114 0 175 -82q54 -72 54 -190q0 -119 -54 -191q-60 -80 -175 -80q-136 0 -196 123v-110h-32z"/>
<glyph glyph-name="c" horiz-adv-x="519" unicode="c" d="M466 125q-17 -56 -56 -91q-56 -47 -141 -47q-112 0 -172 82q-53 74 -53 189q0 118 54 190q60 82 174 82q141 0 185 -113l-27 -18q-13 38 -48 67q-45 36 -110 36q-100 0 -151 -75q-45 -65 -45 -169q0 -105 45 -169q52 -75 151 -75q61 0 106.5 33.5t60.5 93.5z"/>
<glyph glyph-name="d" horiz-adv-x="572" unicode="d" d="M471 258q0 104 -45 169q-51 75 -151 75t-151 -75q-46 -64 -46 -169t45 -169q52 -75 152 -75t151 75q45 64 45 169zM502 718v-718h-31v115q-51 -128 -196 -128q-115 0 -175 80q-54 72 -54 191q0 118 54 190q61 82 175 82q148 0 196 -125v313h31z"/>
<glyph glyph-name="e" horiz-adv-x="523" unicode="e" d="M77 285h370q0 91 -43 150q-48 67 -135 67q-90 0 -141 -65q-45 -59 -51 -152zM397 31q-56 -44 -134 -44q-111 0 -169 82q-51 73 -51 189t51 188q58 84 169 84q109 0 166 -75q52 -67 52 -180v-19h-405v-8q0 -96 45 -160q51 -74 142 -74q126 0 171 118l26 -14 q-20 -53 -63 -87z"/>
<glyph glyph-name="f" horiz-adv-x="211" unicode="f" d="M48 592q0 68 15 95q19 36 82 36l92 1v-27h-87q-47 0 -62 -30q-9 -20 -9 -74v-74h102v-29h-102v-490h-31v592z"/>
<glyph glyph-name="g" horiz-adv-x="572" unicode="g" d="M471 258q0 104 -45 169q-51 75 -151 75t-151 -75q-46 -64 -46 -169t45 -169q52 -75 152 -75t151 75q45 64 45 169zM471 111q-54 -125 -198 -125q-114 0 -174 81q-53 74 -53 191q0 119 54 191q60 81 175 81q67 0 120 -32t76 -95v116h31v-491q0 -98 -33 -146 q-62 -90 -208 -90q-80 0 -133 35q-59 40 -61 118h30q5 -67 57 -98q45 -27 115 -27q130 0 179 88q23 41 23 150v53z"/>
<glyph glyph-name="h" d="M69 0v718h32v-284q49 96 175 96q178 0 178 -186v-344h-32v334q0 83 -30 122q-35 45 -115 45q-147 0 -171 -133q-2 -16 -4 -38t-1 -52v-278h-32z" unicode="h"/>
<glyph glyph-name="i" horiz-adv-x="175" unicode="i" d="M66 680q0 47 21 47q22 0 22 -47q0 -48 -22 -48q-21 0 -21 48zM72 0v519h31v-519h-31z"/>
<glyph glyph-name="j" horiz-adv-x="175" unicode="j" d="M64 680q0 47 21 47q22 0 22 -47q0 -48 -22 -48q-21 0 -21 48zM73 519h31v-599q0 -69 -13 -92q-19 -34 -80 -34h-61v30h54q50 0 62 30q7 15 7 77v588z"/>
<glyph glyph-name="k" horiz-adv-x="458" unicode="k" d="M69 0v718h32v-495l299 296h39l-189 -189l219 -330h-36l-205 308l-127 -123v-185h-32z"/>
<glyph glyph-name="l" horiz-adv-x="175" unicode="l" d="M72 0v718h31v-718h-31z"/>
<glyph glyph-name="m" horiz-adv-x="817" unicode="m" d="M69 0v519h32v-85q51 96 162 96q126 0 154 -106q54 106 169 106q164 0 164 -186v-344h-32v312q0 87 -15 122q-28 67 -118 67q-93 0 -131 -68q-29 -53 -29 -153v-280h-31v312q0 87 -15 122q-28 67 -118 67q-133 0 -155 -132q-2 -15 -4 -37t-1 -52v-280h-32z"/>
<glyph glyph-name="n" d="M69 0v519h32v-85q49 96 175 96q178 0 178 -186v-344h-32v334q0 83 -30 122q-35 45 -115 45q-147 0 -171 -133q-2 -15 -3.5 -37.5t-1.5 -52.5v-278h-32z" unicode="n"/>
<glyph glyph-name="o" horiz-adv-x="545" unicode="o" d="M76 258q0 -105 45 -169q52 -75 151 -75t152 75q45 64 45 169q0 104 -45 169q-53 75 -152 75q-100 0 -151 -75q-45 -65 -45 -169zM44 258q0 118 54 190q60 82 174 82t175 -82q54 -72 54 -190t-54 -191q-62 -80 -175 -80q-114 0 -174 80q-54 73 -54 191z"/>
<glyph glyph-name="p" horiz-adv-x="572" unicode="p" d="M101 258q0 -105 45 -169q52 -75 151 -75t152 75q45 64 45 169q0 104 -45 169q-53 75 -152 75q-100 0 -151 -75q-45 -65 -45 -169zM69 -205v724h32v-119q51 130 196 130q115 0 175 -81q54 -72 54 -191q0 -118 -54 -191q-62 -80 -175 -80q-146 0 -196 125v-317h-32z"/>
<glyph glyph-name="q" horiz-adv-x="572" unicode="q" d="M78 258q0 -105 45 -169q52 -75 152 -75t151 75q45 64 45 169q0 104 -45 169q-51 75 -151 75t-151 -75q-46 -64 -46 -169zM471 112q-50 -125 -196 -125q-113 0 -175 80q-54 73 -54 191q0 119 54 191q60 81 175 81q145 0 196 -130v119h31v-724h-31v317z"/>
<glyph glyph-name="r" horiz-adv-x="263" unicode="r" d="M69 0v519h32v-86q40 84 169 84h3l-20 -28q-37 0 -53 -6q-34 -10 -70 -51q-29 -34 -29 -87v-345h-32z"/>
<glyph glyph-name="s" horiz-adv-x="481" unicode="s" d="M81 154q25 -138 166 -138q63 0 104 27q49 31 49 91q0 72 -103 100l-9 3t-18 4q-127 33 -164 62q-42 33 -42 90q0 68 58 105q50 32 120 32q72 0 119 -38q48 -40 56 -111h-31q-16 121 -148 121q-55 0 -94 -24q-47 -29 -47 -81q0 -78 159 -118q2 -2 10 -3q82 -21 114 -43 q53 -35 53 -100q0 -70 -59 -111q-53 -35 -126 -35q-83 0 -136 41q-55 44 -62 126h31z"/>
<glyph glyph-name="t" horiz-adv-x="187" unicode="t" d="M47 661h32v-142h104v-28h-104v-491h-32v661z"/>
<glyph glyph-name="u" d="M451 519v-519h-31v81q-49 -94 -175 -94q-178 0 -178 185v347h31v-337q0 -84 31 -122q34 -45 115 -45q147 0 171 132q2 15 3.5 37.5t1.5 53.5v281h31z" unicode="u"/>
<glyph glyph-name="v" horiz-adv-x="444" unicode="v" d="M201 0l-193 519h33l178 -482l185 482h33l-200 -519h-36z"/>
<glyph glyph-name="w" horiz-adv-x="669" unicode="w" d="M178 0l-165 519h33l148 -470l124 363h29l127 -363l150 470h32l-166 -519h-32l-126 355l-122 -355h-32z"/>
<glyph glyph-name="x" horiz-adv-x="410" unicode="x" d="M32 0h-36l189 268l-182 251h38l164 -225l160 225h37l-179 -251l192 -268h-37l-174 243z"/>
<glyph glyph-name="y" d="M444 -59q-19 -83 -96 -121q-47 -22 -112 -22q-76 0 -122 37q-51 40 -52 113h27q3 -63 49 -94q41 -29 105 -29q115 0 160 87q5 10 9.5 22.5t6.5 27.5q3 18 3 54v80q-50 -96 -175 -96q-178 0 -178 186v344h32v-334q0 -83 30 -122q34 -45 115 -45q147 0 171 133 q2 14 3.5 36.5t1.5 53.5v278h32v-519q-1 -16 -3 -33t-7 -37z" unicode="y"/>
<glyph glyph-name="z" horiz-adv-x="437" unicode="z" d="M17 0v37l358 451h-338v31h372v-37l-358 -451h369v-31h-403z"/>
<glyph glyph-name="braceleft" horiz-adv-x="500" unicode="{" d="M366 721v-34q-5 1 -10 1h-10q-93 0 -93 -83q0 -44 24 -129q24 -84 24 -128q0 -77 -71 -89q70 -16 70 -87q0 -42 -26 -126t-26 -125q0 -88 115 -88h3v-34h-8q-149 0 -149 110q0 42 26 128q26 87 26 128q0 77 -95 77h-10l-22 -1v36q10 -1 19 -1q107 0 107 87q0 45 -25 126 q-24 84 -24 127q0 105 139 105h16z"/>
<glyph glyph-name="bar" horiz-adv-x="500" unicode="|" d="M232 764h36v-999h-36v999z"/>
<glyph glyph-name="braceright" horiz-adv-x="500" unicode="}" d="M89 721h16q138 0 138 -105q0 -43 -24 -127q-24 -83 -24 -126q0 -87 106 -87q9 0 19 1v-36l-22 1h-12q-92 0 -92 -77q0 -44 25 -128q26 -86 26 -128q0 -110 -148 -110h-8v34h3q115 0 115 88q0 42 -27 125q-26 84 -26 126q0 71 70 87q-70 12 -70 89q0 44 24 128 q24 85 24 129q0 83 -93 83h-10t-10 -1v34z"/>
<glyph glyph-name="asciitilde" horiz-adv-x="602" unicode="~" d="M536 357v-35q-73 -73 -135 -73q-31 0 -101 35q-68 35 -99 35q-56 0 -135 -81v37q71 74 135 74q32 0 100 -36q68 -35 100 -35q55 0 135 79z"/>
<glyph glyph-name="nonbreakingspace" unicode=" "/>
<glyph glyph-name="exclamdown" horiz-adv-x="307" unicode="¡" d="M129 553q0 47 21 47q22 0 22 -47q0 -48 -22 -48q-21 0 -21 48zM163 416l9 -537h-42l9 537h24z"/>
<glyph glyph-name="cent" d="M292 159h36v-137q31 10 60 34q47 43 56 111h30q-9 -84 -64 -132q-34 -31 -82 -42v-85h-36v80q-5 -1 -11 -1h-12h-20v-79h-36v85q-63 13 -108 67q-61 73 -61 198q0 126 61 199q43 51 108 66v109h36v-103q5 1 11 1h12h10t10 -1v103h36v-108q46 -11 78 -37q52 -44 63 -120 h-32q-10 60 -55 99q-23 19 -54 28v-128h-36v135q-5 1 -10 1h-10h-12t-11 -1v-135h-36v128q-50 -15 -84 -57q-53 -65 -53 -179q0 -113 53 -178q34 -43 84 -58v137h36v-144q5 -1 11 -1h12h10t10 1v144z" unicode="¢"/>
<glyph glyph-name="currency" horiz-adv-x="606" unicode="¤" d="M319 466v-96q35 5 61 32t31 64h-92zM289 466h-92q5 -37 30 -64t62 -32v96zM289 497v97q-37 -4 -63 -32t-29 -65h92zM319 497h92q-3 38 -29 65t-63 32v-97zM215 601q40 32 89 32q48 0 89 -32l25 27l27 -27l-27 -27q30 -42 30 -93t-29 -92l24 -22l-26 -29l-24 24 q-40 -31 -89 -31t-89 31l-27 -29l-26 28l26 28q-29 43 -29 92q0 51 30 93l-30 32l26 28z"/>
<glyph glyph-name="yen" horiz-adv-x="530" unicode="¥" d="M62 340h172l-233 379h38l227 -367l224 367h38l-233 -379h171v-31h-185v-142h185v-31h-185v-136h-33v136h-186v31h186v142h-186v31z"/>
<glyph glyph-name="brokenbar" horiz-adv-x="500" unicode="¦" d="M232 199h36v-369h-36v369zM232 699h36v-370h-36v370z"/>
<glyph glyph-name="section" horiz-adv-x="500" unicode="§" d="M166 245l107 -52q56 2 92 19q49 24 49 72q0 84 -105 128l-104 45q-50 -5 -81 -27q-38 -27 -38 -72q0 -74 80 -113zM84 71h29v-13q0 -126 126 -126q58 0 93 27q38 30 38 86q0 67 -81 108l-131 64q-103 49 -103 137q0 106 123 124q-77 38 -77 117q0 64 44 103q40 37 106 37 q155 0 155 -165h-31q0 135 -120 135q-52 0 -86 -28q-36 -32 -36 -81q0 -44 32 -74q11 -10 29 -21t43 -22l77 -36q130 -61 130 -154q0 -46 -34 -81q-37 -40 -92 -40h-9t-9 1q44 -13 72 -48t28 -80q0 -65 -47 -103q-44 -35 -111 -35q-75 0 -115 36q-44 39 -44 111q0 16 1 21z "/>
<glyph glyph-name="dieresis" horiz-adv-x="500" unicode="¨" d="M152 661q0 47 21 47q22 0 22 -47q0 -48 -22 -48q-21 0 -21 48zM306 663q0 46 22 46t22 -46q0 -48 -22 -48t-22 48z"/>
<glyph glyph-name="copyright" horiz-adv-x="833" unicode="©" d="M418 172q-77 0 -115 56q-33 48 -33 128q0 82 34 129q39 57 116 57q99 0 130 -88l-29 -16q-24 74 -103 74q-60 0 -91 -51q-25 -40 -25 -105t24 -105q30 -49 90 -49q88 0 108 86l29 -15q-10 -43 -39 -67q-37 -34 -96 -34zM198 351q0 -67 36 -121t100 -81q42 -17 82 -17 q90 0 154 64q65 65 65 155q0 93 -63 155q-64 62 -156 62q-90 0 -154 -64q-64 -63 -64 -153zM666 351q0 -105 -73 -177q-72 -72 -177 -72q-104 0 -177 72q-72 73 -72 177t73 176q73 73 176 73q105 0 178 -71q72 -71 72 -178z"/>
<glyph glyph-name="ordfeminine" horiz-adv-x="380" unicode="ª" d="M190 378q66 0 100 49q29 43 29 112q0 67 -29 111q-35 50 -100 50q-64 0 -99 -50q-29 -44 -29 -111q0 -69 29 -112q34 -49 99 -49zM190 353q-78 0 -119 56q-36 49 -36 130q0 80 36 130q40 55 119 55q92 0 129 -76v69h26v-355h-26v65q-36 -74 -129 -74z"/>
<glyph glyph-name="guillemotleft" horiz-adv-x="354" unicode="«" d="M203 121l-25 -19l-125 154l125 154l27 -19l-109 -135zM325 121l-25 -19l-125 154l125 154l27 -19l-109 -135z"/>
<glyph glyph-name="logicalnot" horiz-adv-x="703" unicode="¬" d="M124 417h492v-162h-29v131h-463v31z"/>
<glyph glyph-name="registered" horiz-adv-x="708" unicode="®" d="M523 436q0 55 -50 64q-14 3 -41 3h-87v-134h95q83 0 83 67zM345 179h-32v355h119q123 0 123 -97q0 -59 -46 -83q29 -17 33 -58v-117h-34v83q0 56 -23 70q-13 7 -47 7h-93v-160zM198 351q0 -67 38 -121t98 -81q42 -17 82 -17q66 0 121 37q56 37 82 98q16 36 16 84 q0 93 -63 155q-64 62 -156 62t-155 -63q-63 -62 -63 -154zM666 351q0 -104 -73 -177q-74 -72 -177 -72q-104 0 -177 72q-72 73 -72 177t73 176q73 73 176 73q107 0 178 -71q72 -71 72 -178z"/>
<glyph glyph-name="degree" horiz-adv-x="329" unicode="°" d="M165 682q-47 0 -77 -30t-30 -77t30 -77t77 -30q46 0 76 30t30 77q0 23 -8 43q-9 20 -23 34t-34 22t-41 8zM165 707q55 0 93 -38t38 -94t-38 -94q-37 -37 -94 -37q-29 0 -53 10q-23 10 -41 27t-28 41t-9 53q0 29 10 53q9 24 27 42t42 27q24 10 53 10z"/>
<glyph glyph-name="plusminus" horiz-adv-x="614" unicode="±" d="M110 65h394v-31h-394v31zM295 562h30v-174h179v-31h-179v-174h-30v174h-185v31h185v174z"/>
<glyph glyph-name="twosuperior" horiz-adv-x="344" unicode="²" d="M247 516q25 26 25 67q0 45 -26 71t-70 25q-48 0 -74 -27t-27 -75v-7h-21v5q0 57 32 90t90 33q54 0 86 -30t31 -83q0 -45 -26 -77l-192 -214h217v-17h-262z"/>
<glyph glyph-name="threesuperior" horiz-adv-x="344" unicode="³" d="M169 278q54 0 92 27q42 28 42 81q0 57 -42 87q-38 27 -96 27h-11q-5 0 -10 -1l-4 20h16h14q118 0 118 82q0 78 -113 78q-88 0 -110 -66l-21 9q28 75 136 75q133 0 133 -95q0 -88 -83 -94q21 -4 39 -15t31 -27q12 -16 20 -36t8 -41q0 -64 -49 -98q-44 -32 -109 -32 q-123 0 -144 100l21 9q16 -90 122 -90z"/>
<glyph glyph-name="acute" horiz-adv-x="500" unicode="´" d="M194 584l102 160h53l-101 -160h-54z"/>
<glyph glyph-name="mu" d="M486 -80h-34q-99 0 -99 82v9q-35 -11 -77 -11q-126 0 -175 96v-289h-32v723h32v-278q-1 -32 1 -54t4 -36q24 -133 171 -133q62 0 97 27q2 2 4 3q44 38 44 137v334h32v-344q0 -56 -13 -86q-12 -29 -49 -70q-11 -13 -11 -32q0 -51 69 -51h36v-27z" unicode="µ"/>
<glyph glyph-name="mu" d="M486 -80h-34q-99 0 -99 82v9q-35 -11 -77 -11q-126 0 -175 96v-289h-32v723h32v-278q-1 -32 1 -54t4 -36q24 -133 171 -133q62 0 97 27q2 2 4 3q44 38 44 137v334h32v-344q0 -56 -13 -86q-12 -29 -49 -70q-11 -13 -11 -32q0 -51 69 -51h36v-27z" unicode="μ"/>
<glyph glyph-name="paragraph" horiz-adv-x="500" unicode="¶" d="M430 694h-1v-815h-29v815h-56v-815h-30v503q-108 4 -160 29q-84 40 -84 141q-2 93 86 137q66 33 166 33h108v-28z"/>
<glyph glyph-name="periodcentered" horiz-adv-x="260" unicode="·" d="M130 307q-33 0 -33 32q0 33 33 33t33 -33q0 -32 -33 -32z"/>
<glyph glyph-name="cedilla" horiz-adv-x="500" unicode="¸" d="M233 -216v27h36q69 0 69 51q0 56 -79 56h-28v82h25v-58h12q98 0 98 -75q0 -83 -99 -83h-34z"/>
<glyph glyph-name="onesuperior" horiz-adv-x="344" unicode="¹" d="M85 576v28l93 84h27v-418h-26l-1 388z"/>
<glyph glyph-name="ordmasculine" horiz-adv-x="409" unicode="º" d="M57 537q0 -74 35 -120q39 -51 112 -51t112 51q36 45 36 120t-36 120q-39 50 -112 50q-72 0 -111 -50q-36 -47 -36 -120zM33 537q0 86 42 136q45 54 129 54t129 -54q43 -49 43 -136q0 -86 -43 -136q-45 -55 -129 -55t-129 55q-42 51 -42 136z"/>
<glyph glyph-name="guillemotright" horiz-adv-x="354" unicode="»" d="M178 121l106 135l-109 135l27 19l125 -154l-125 -154zM56 121l106 135l-109 135l27 19l125 -154l-125 -154z"/>
<glyph glyph-name="onequarter" horiz-adv-x="823" unicode="¼" d="M85 576v28l93 84h27v-418h-26l-1 388zM160 -15l465 714h38l-465 -714h-38zM730 123v251l-217 -251h217zM729 -3v109h-242l-8 13l248 288h26v-283h59v-18h-59v-109h-24z"/>
<glyph glyph-name="onehalf" horiz-adv-x="823" unicode="½" d="M85 576v28l93 84h27v-418h-26l-1 388zM738 239q26 29 26 68q0 45 -26 70t-71 25q-49 0 -75 -27t-26 -75v-7h-21v6q1 57 33 89t89 33q54 0 86 -30t32 -82q0 -47 -27 -78h1l-192 -213h216v-18h-261zM160 -15l465 714h38l-465 -714h-38z"/>
<glyph glyph-name="threequarters" horiz-adv-x="823" unicode="¾" d="M160 283q53 0 91 27q42 28 42 81q0 57 -42 87q-38 27 -96 27h-11q-5 0 -10 -1l-4 20l16 -1h9q123 0 123 83q0 78 -112 78q-89 0 -111 -66l-20 9q27 75 135 75q133 0 133 -95q0 -88 -82 -94q21 -4 39 -15t30 -27t20 -36t8 -41q0 -63 -49 -99q-43 -31 -109 -31 q-123 0 -144 100l22 9q15 -90 122 -90zM730 127v250l-217 -250h217zM160 -15l465 714h38l-465 -714h-38zM729 0v110h-242l-8 13l248 288h26v-283h59v-18h-59v-110h-24z"/>
<glyph glyph-name="questiondown" horiz-adv-x="463" unicode="¿" d="M268 554q0 -47 -22 -47t-22 47t22 47t22 -47zM427 25q-10 -57 -47 -97q-56 -60 -154 -60q-85 0 -138 44q-58 46 -58 128q0 71 53 112q13 12 37 30t60 44q52 51 52 139q0 15 -1 29t-3 30h31q3 -29 3 -55q0 -101 -51 -159q-5 -5 -95 -72q-52 -37 -52 -94q0 -144 167 -144 q141 0 165 135z"/>
<glyph glyph-name="Agrave" horiz-adv-x="574" unicode="À" d="M134 275h311l-154 405zM-5 0l277 719h38l273 -719h-33l-93 245h-335l-94 -245h-33zM354 789h-53l-102 160h53z"/>
<glyph glyph-name="Aacute" horiz-adv-x="574" unicode="Á" d="M134 275h311l-154 405zM-5 0l277 719h38l273 -719h-33l-93 245h-335l-94 -245h-33zM242 789l102 160h53l-101 -160h-54z"/>
<glyph glyph-name="Acircumflex" horiz-adv-x="574" unicode="Â" d="M174 789h38l86 132l87 -136l36 4l-99 160h-48zM134 275h311l-154 405zM-5 0l277 719h38l273 -719h-33l-93 245h-335l-94 -245h-33z"/>
<glyph glyph-name="Atilde" horiz-adv-x="574" unicode="Ã" d="M409 907q-5 -10 -9 -19t-8 -19q-15 -27 -40 -27q-14 0 -54 35q-38 36 -54 36q-34 0 -72 -74l16 -16q30 57 56 59q8 1 49 -35q41 -35 59 -35q27 1 43 22q2 2 9 15.5t20 36.5zM134 275h311l-154 405zM-5 0l277 719h38l273 -719h-33l-93 245h-335l-94 -245h-33z"/>
<glyph glyph-name="Adieresis" horiz-adv-x="574" unicode="Ä" d="M134 275h311l-154 405zM-5 0l277 719h38l273 -719h-33l-93 245h-335l-94 -245h-33zM200 866q0 47 21 47q22 0 22 -47q0 -48 -22 -48q-21 0 -21 48zM354 868q0 46 22 46t22 -46q0 -48 -22 -48t-22 48z"/>
<glyph glyph-name="Aring" horiz-adv-x="574" unicode="Å" d="M209 854q-1 -35 23 -58t59 -23t58 23t23 58t-23 58t-58 23t-59 -23t-23 -58zM181 853q0 48 31 79t79 31q49 0 79 -31t30 -79q0 -49 -30 -79t-79 -30q-48 0 -79 30t-31 79zM134 275h311l-154 405zM-5 0l277 719h38l273 -719h-33l-93 245h-335l-94 -245h-33z"/>
<glyph glyph-name="AE" horiz-adv-x="804" unicode="Æ" d="M436 271v418h-34l-192 -418h226zM436 241h-240l-111 -241h-36l331 719h365v-30h-277v-300h242v-30h-242v-328h287v-31h-319v241z"/>
<glyph glyph-name="Ccedilla" horiz-adv-x="681" unicode="Ç" d="M618 173q-19 -73 -74 -122q-74 -65 -194 -65q-154 0 -232 113q-67 97 -67 259t69 263q79 114 236 114q107 0 181 -59q53 -42 75 -103l-31 -16q-49 148 -231 148q-135 0 -205 -111q-59 -94 -59 -236q0 -143 57 -234q68 -110 202 -110q108 0 175 58q52 45 69 116zM335 -216 v27h36q69 0 69 51q0 56 -79 56h-28v82h25v-58h12q98 0 98 -75q0 -83 -99 -83h-34z"/>
<glyph glyph-name="Egrave" horiz-adv-x="567" unicode="È" d="M82 0v719h439v-32h-405v-297h321v-31h-321v-327h415v-32h-449zM364 789h-53l-102 160h53z"/>
<glyph glyph-name="Eacute" horiz-adv-x="567" unicode="É" d="M82 0v719h439v-32h-405v-297h321v-31h-321v-327h415v-32h-449zM252 789l102 160h53l-101 -160h-54z"/>
<glyph glyph-name="Ecircumflex" horiz-adv-x="567" unicode="Ê" d="M184 789h38l86 132l87 -136l36 4l-99 160h-48zM82 0v719h439v-32h-405v-297h321v-31h-321v-327h415v-32h-449z"/>
<glyph glyph-name="Edieresis" horiz-adv-x="567" unicode="Ë" d="M82 0v719h439v-32h-405v-297h321v-31h-321v-327h415v-32h-449zM210 866q0 47 21 47q22 0 22 -47q0 -48 -22 -48q-21 0 -21 48zM364 868q0 46 22 46t22 -46q0 -48 -22 -48t-22 48z"/>
<glyph glyph-name="Igrave" horiz-adv-x="207" unicode="Ì" d="M87 0v719h33v-719h-33zM161 789h-53l-102 160h53z"/>
<glyph glyph-name="Iacute" horiz-adv-x="207" unicode="Í" d="M87 0v719h33v-719h-33zM49 789l102 160h53l-101 -160h-54z"/>
<glyph glyph-name="Icircumflex" horiz-adv-x="207" unicode="Î" d="M-19 789h38l86 132l87 -136l36 4l-99 160h-48zM87 0v719h33v-719h-33z"/>
<glyph glyph-name="Idieresis" horiz-adv-x="207" unicode="Ï" d="M87 0v719h33v-719h-33zM7 866q0 47 21 47q22 0 22 -47q0 -48 -22 -48q-21 0 -21 48zM161 868q0 46 22 46t22 -46q0 -48 -22 -48t-22 48z"/>
<glyph glyph-name="Eth" horiz-adv-x="689" unicode="Ð" d="M116 30h139q145 0 214 36q133 70 133 293q0 181 -95 267q-45 40 -119 54q-23 4 -56 6t-77 2h-139v-289h243v-27h-243v-342zM82 0v372h-82v27h82v320h165q159 0 231 -35q159 -80 159 -325q0 -249 -159 -324q-76 -35 -231 -35h-165z"/>
<glyph glyph-name="Ntilde" horiz-adv-x="682" unicode="Ñ" d="M452 907q-5 -10 -9 -19t-8 -19q-15 -27 -40 -27q-14 0 -54 35q-38 36 -54 36q-34 0 -72 -74l16 -16q30 57 56 59q8 1 49 -35q41 -35 59 -35q27 1 43 22q2 2 9 15.5t20 36.5zM82 0v719h34l451 -662v662h33v-719h-33l-452 661v-661h-33z"/>
<glyph glyph-name="Ograve" horiz-adv-x="741" unicode="Ò" d="M87 359q0 -149 65 -241q74 -104 218 -104q145 0 219 104q65 91 65 241q0 149 -66 241q-75 105 -218 105t-218 -105q-65 -92 -65 -241zM52 359q0 163 75 264q84 112 243 112q160 0 244 -111q75 -101 75 -265q0 -165 -75 -264q-84 -110 -244 -110t-243 110q-75 99 -75 264z M427 789h-53l-102 160h53z"/>
<glyph glyph-name="Oacute" horiz-adv-x="741" unicode="Ó" d="M87 359q0 -149 65 -241q74 -104 218 -104q145 0 219 104q65 91 65 241q0 149 -66 241q-75 105 -218 105t-218 -105q-65 -92 -65 -241zM52 359q0 163 75 264q84 112 243 112q160 0 244 -111q75 -101 75 -265q0 -165 -75 -264q-84 -110 -244 -110t-243 110q-75 99 -75 264z M315 789l102 160h53l-101 -160h-54z"/>
<glyph glyph-name="Ocircumflex" horiz-adv-x="741" unicode="Ô" d="M247 789h38l86 132l87 -136l36 4l-99 160h-48zM87 359q0 -149 65 -241q74 -104 218 -104q145 0 219 104q65 91 65 241q0 149 -66 241q-75 105 -218 105t-218 -105q-65 -92 -65 -241zM52 359q0 163 75 264q84 112 243 112q160 0 244 -111q75 -101 75 -265q0 -165 -75 -264 q-84 -110 -244 -110t-243 110q-75 99 -75 264z"/>
<glyph glyph-name="Otilde" horiz-adv-x="741" unicode="Õ" d="M482 907q-5 -10 -9 -19t-8 -19q-15 -27 -40 -27q-14 0 -54 35q-38 36 -54 36q-34 0 -72 -74l16 -16q30 57 56 59q8 1 49 -35q41 -35 59 -35q27 1 43 22q2 2 9 15.5t20 36.5zM87 359q0 -149 65 -241q74 -104 218 -104q145 0 219 104q65 91 65 241q0 149 -66 241 q-75 105 -218 105t-218 -105q-65 -92 -65 -241zM52 359q0 163 75 264q84 112 243 112q160 0 244 -111q75 -101 75 -265q0 -165 -75 -264q-84 -110 -244 -110t-243 110q-75 99 -75 264z"/>
<glyph glyph-name="Odieresis" horiz-adv-x="741" unicode="Ö" d="M87 359q0 -149 65 -241q74 -104 218 -104q145 0 219 104q65 91 65 241q0 149 -66 241q-75 105 -218 105t-218 -105q-65 -92 -65 -241zM52 359q0 163 75 264q84 112 243 112q160 0 244 -111q75 -101 75 -265q0 -165 -75 -264q-84 -110 -244 -110t-243 110q-75 99 -75 264z M273 866q0 47 21 47q22 0 22 -47q0 -48 -22 -48q-21 0 -21 48zM427 868q0 46 22 46t22 -46q0 -48 -22 -48t-22 48z"/>
<glyph glyph-name="multiply" horiz-adv-x="684" unicode="×" d="M342 319l160 193h36l-178 -214l176 -211h-37l-157 189l-158 -189h-36l176 211l-178 214h36z"/>
<glyph glyph-name="Oslash" horiz-adv-x="741" unicode="Ø" d="M339 349q0 24 21 24t21 -24q0 -23 -21 -23t-21 23zM369 704q-144 0 -218 -104q-64 -91 -64 -241q0 -143 62 -235q92 -110 222 -110q143 0 217 105q66 91 66 240q0 163 -84 261q-74 84 -201 84zM36 -9l90 106q-74 103 -74 262q0 168 74 266q84 109 247 109q141 0 221 -86 l87 100l23 -22l-89 -104q74 -107 74 -263q0 -168 -76 -266q-85 -109 -247 -109q-130 0 -221 90l-86 -102z"/>
<glyph glyph-name="Ugrave" horiz-adv-x="671" unicode="Ù" d="M77 719h33v-452q0 -253 226 -253q115 0 173 70q53 65 53 183v452h33v-468q0 -125 -67 -195q-69 -71 -192 -71q-124 0 -192 71q-67 68 -67 195v468zM392 789h-53l-102 160h53z"/>
<glyph glyph-name="Uacute" horiz-adv-x="671" unicode="Ú" d="M77 719h33v-452q0 -253 226 -253q115 0 173 70q53 65 53 183v452h33v-468q0 -125 -67 -195q-69 -71 -192 -71q-124 0 -192 71q-67 68 -67 195v468zM280 789l102 160h53l-101 -160h-54z"/>
<glyph glyph-name="Ucircumflex" horiz-adv-x="671" unicode="Û" d="M212 789h38l86 132l87 -136l36 4l-99 160h-48zM77 719h33v-452q0 -253 226 -253q115 0 173 70q53 65 53 183v452h33v-468q0 -125 -67 -195q-69 -71 -192 -71q-124 0 -192 71q-67 68 -67 195v468z"/>
<glyph glyph-name="Udieresis" horiz-adv-x="671" unicode="Ü" d="M77 719h33v-452q0 -253 226 -253q115 0 173 70q53 65 53 183v452h33v-468q0 -125 -67 -195q-69 -71 -192 -71q-124 0 -192 71q-67 68 -67 195v468zM238 866q0 47 21 47q22 0 22 -47q0 -48 -22 -48q-21 0 -21 48zM392 868q0 46 22 46t22 -46q0 -48 -22 -48t-22 48z"/>
<glyph glyph-name="Yacute" horiz-adv-x="530" unicode="Ý" d="M248 0v318l-247 401h38l227 -367l224 367h38l-247 -403v-316h-33zM209 789l102 160h53l-101 -160h-54z"/>
<glyph glyph-name="Thorn" horiz-adv-x="527" unicode="Þ" d="M116 546v-327h137q87 0 122 9q67 16 84 74q9 28 9 87q0 52 -9 78q-10 33 -43 53q-47 26 -162 26h-138zM116 0h-34v719h34v-144h162q107 0 167 -36q38 -23 51 -70q7 -27 7 -88q0 -58 -9 -89q-31 -103 -219 -103h-159v-189z"/>
<glyph glyph-name="germandbls" horiz-adv-x="488" unicode="ß" d="M69 0l-1 596q0 40 14 62q43 70 153 70q85 0 132 -46t47 -131q0 -113 -98 -149q68 -16 106 -84q34 -58 34 -134q0 -44 -17 -97q-16 -51 -45 -86q-51 -60 -151 -60l-86 -1v32h1q-2 1 83 1q88 0 136 63q44 58 44 147q0 90 -48 147q-51 58 -141 58h-61v28h33t32 -1 q143 0 143 134q0 151 -143 151q-51 0 -88 -19q-45 -23 -45 -64l1 -24q0 -11 -1 -25q-1 -23 -1 -41v-28v-499h-33z"/>
<glyph glyph-name="agrave" horiz-adv-x="572" unicode="à" d="M78 258q0 -105 45 -169q52 -75 152 -75t151 75q45 64 45 169q0 104 -45 169q-51 75 -151 75t-151 -75q-46 -64 -46 -169zM471 112q-50 -125 -196 -125q-113 0 -175 80q-54 73 -54 191q0 119 54 191q60 81 175 81q145 0 196 -130v119h31v-519h-31v112zM301 584h-53 l-102 160h53z"/>
<glyph glyph-name="aacute" horiz-adv-x="572" unicode="á" d="M78 258q0 -105 45 -169q52 -75 152 -75t151 75q45 64 45 169q0 104 -45 169q-51 75 -151 75t-151 -75q-46 -64 -46 -169zM471 112q-50 -125 -196 -125q-113 0 -175 80q-54 73 -54 191q0 119 54 191q60 81 175 81q145 0 196 -130v119h31v-519h-31v112zM189 584l102 160h53 l-101 -160h-54z"/>
<glyph glyph-name="acircumflex" horiz-adv-x="572" unicode="â" d="M145 584h38l86 132l87 -136l36 4l-99 160h-48zM78 258q0 -105 45 -169q52 -75 152 -75t151 75q45 64 45 169q0 104 -45 169q-51 75 -151 75t-151 -75q-46 -64 -46 -169zM471 112q-50 -125 -196 -125q-113 0 -175 80q-54 73 -54 191q0 119 54 191q60 81 175 81 q145 0 196 -130v119h31v-519h-31v112z"/>
<glyph glyph-name="atilde" horiz-adv-x="572" unicode="ã" d="M380 702q-5 -10 -9 -19t-8 -19q-15 -27 -40 -27q-14 0 -54 35q-38 36 -54 36q-34 0 -72 -74l16 -16q30 57 56 59q8 1 49 -35q41 -35 59 -35q27 1 43 22q2 2 9 15.5t20 36.5zM78 258q0 -105 45 -169q52 -75 152 -75t151 75q45 64 45 169q0 104 -45 169q-51 75 -151 75 t-151 -75q-46 -64 -46 -169zM471 112q-50 -125 -196 -125q-113 0 -175 80q-54 73 -54 191q0 119 54 191q60 81 175 81q145 0 196 -130v119h31v-519h-31v112z"/>
<glyph glyph-name="adieresis" horiz-adv-x="572" unicode="ä" d="M78 258q0 -105 45 -169q52 -75 152 -75t151 75q45 64 45 169q0 104 -45 169q-51 75 -151 75t-151 -75q-46 -64 -46 -169zM471 112q-50 -125 -196 -125q-113 0 -175 80q-54 73 -54 191q0 119 54 191q60 81 175 81q145 0 196 -130v119h31v-519h-31v112zM171 661q0 47 21 47 q22 0 22 -47q0 -48 -22 -48q-21 0 -21 48zM325 663q0 46 22 46t22 -46q0 -48 -22 -48t-22 48z"/>
<glyph glyph-name="aring" horiz-adv-x="572" unicode="å" d="M198 666q0 -34 24 -58t57 -24q35 0 58 24t23 58q0 35 -23 58t-58 23q-33 1 -57 -23t-24 -58zM170 665q0 49 30 79t79 30t79 -30t30 -79t-30 -79t-79 -30t-79 30t-30 79zM78 258q0 -105 45 -169q52 -75 152 -75t151 75q45 64 45 169q0 104 -45 169q-51 75 -151 75 t-151 -75q-46 -64 -46 -169zM471 112q-50 -125 -196 -125q-113 0 -175 80q-54 73 -54 191q0 119 54 191q60 81 175 81q145 0 196 -130v119h31v-519h-31v112z"/>
<glyph glyph-name="ae" horiz-adv-x="944" unicode="æ" d="M508 292h370q0 91 -43 149q-48 68 -135 68q-90 0 -141 -66q-45 -57 -51 -151zM78 258q0 -105 45 -169q52 -75 152 -75t151 75q45 64 45 169q0 104 -45 169q-51 75 -151 75t-151 -75q-46 -64 -46 -169zM902 159q-17 -77 -73 -121t-135 -44q-111 0 -169 82q-15 21 -23 42 v-118h-31v112q-50 -125 -196 -125q-113 0 -175 80q-54 73 -54 191q0 119 54 191q60 81 175 81q145 0 196 -130v119h31v-107q9 20 23 41q58 84 169 84q109 0 166 -76q52 -67 52 -179v-19h-405v-8q0 -96 45 -160q51 -74 142 -74q66 0 113 37t64 101h31z"/>
<glyph glyph-name="ccedilla" horiz-adv-x="519" unicode="ç" d="M466 125q-17 -56 -56 -91q-56 -47 -141 -47q-112 0 -172 82q-53 74 -53 189q0 118 54 190q60 82 174 82q141 0 185 -113l-27 -18q-13 38 -48 67q-45 36 -110 36q-100 0 -151 -75q-45 -65 -45 -169q0 -105 45 -169q52 -75 151 -75q61 0 106.5 33.5t60.5 93.5zM252 -216v27 h36q69 0 69 51q0 56 -79 56h-28v82h25v-58h12q98 0 98 -75q0 -83 -99 -83h-34z"/>
<glyph glyph-name="egrave" horiz-adv-x="523" unicode="è" d="M77 285h370q0 91 -43 150q-48 67 -135 67q-90 0 -141 -65q-45 -59 -51 -152zM397 31q-56 -44 -134 -44q-111 0 -169 82q-51 73 -51 189t51 188q58 84 169 84q109 0 166 -75q52 -67 52 -180v-19h-405v-8q0 -96 45 -160q51 -74 142 -74q126 0 171 118l26 -14 q-20 -53 -63 -87zM322 584h-53l-102 160h53z"/>
<glyph glyph-name="eacute" horiz-adv-x="523" unicode="é" d="M77 285h370q0 91 -43 150q-48 67 -135 67q-90 0 -141 -65q-45 -59 -51 -152zM397 31q-56 -44 -134 -44q-111 0 -169 82q-51 73 -51 189t51 188q58 84 169 84q109 0 166 -75q52 -67 52 -180v-19h-405v-8q0 -96 45 -160q51 -74 142 -74q126 0 171 118l26 -14 q-20 -53 -63 -87zM210 584l102 160h53l-101 -160h-54z"/>
<glyph glyph-name="ecircumflex" horiz-adv-x="523" unicode="ê" d="M142 584h38l86 132l87 -136l36 4l-99 160h-48zM77 285h370q0 91 -43 150q-48 67 -135 67q-90 0 -141 -65q-45 -59 -51 -152zM397 31q-56 -44 -134 -44q-111 0 -169 82q-51 73 -51 189t51 188q58 84 169 84q109 0 166 -75q52 -67 52 -180v-19h-405v-8q0 -96 45 -160 q51 -74 142 -74q126 0 171 118l26 -14q-20 -53 -63 -87z"/>
<glyph glyph-name="edieresis" horiz-adv-x="523" unicode="ë" d="M77 285h370q0 91 -43 150q-48 67 -135 67q-90 0 -141 -65q-45 -59 -51 -152zM397 31q-56 -44 -134 -44q-111 0 -169 82q-51 73 -51 189t51 188q58 84 169 84q109 0 166 -75q52 -67 52 -180v-19h-405v-8q0 -96 45 -160q51 -74 142 -74q126 0 171 118l26 -14 q-20 -53 -63 -87zM168 661q0 47 21 47q22 0 22 -47q0 -48 -22 -48q-21 0 -21 48zM322 663q0 46 22 46t22 -46q0 -48 -22 -48t-22 48z"/>
<glyph glyph-name="igrave" horiz-adv-x="175" unicode="ì" d="M72 0v519h31v-519h-31zM145 584h-53l-102 160h53z"/>
<glyph glyph-name="iacute" horiz-adv-x="175" unicode="í" d="M72 0v519h31v-519h-31zM33 584l102 160h53l-101 -160h-54z"/>
<glyph glyph-name="icircumflex" horiz-adv-x="175" unicode="î" d="M-35 584h38l86 132l87 -136l36 4l-99 160h-48zM72 0v519h31v-519h-31z"/>
<glyph glyph-name="idieresis" horiz-adv-x="175" unicode="ï" d="M72 0v519h31v-519h-31zM-9 661q0 47 21 47q22 0 22 -47q0 -48 -22 -48q-21 0 -21 48zM145 663q0 46 22 46t22 -46q0 -48 -22 -48t-22 48z"/>
<glyph glyph-name="eth" d="M82 211q0 -87 43 -140q47 -59 131 -59q83 0 126 61q40 53 40 139q0 84 -42 140q-47 59 -129 59q-84 0 -129 -60q-40 -52 -40 -140zM442 710l17 -22l-70 -51q86 -91 86 -314q0 -342 -226 -342q-95 0 -151 68q-51 64 -51 162q0 101 50 163q54 67 153 67q151 0 190 -160 q1 8 1 20v30q0 208 -77 288l-120 -88l-16 23l114 83q-41 29 -99 29q-135 0 -155 -137h-32q8 79 55 123t126 45q78 0 131 -41z" unicode="ð"/>
<glyph glyph-name="ntilde" d="M372 702q-5 -10 -9 -19t-8 -19q-15 -27 -40 -27q-14 0 -54 35q-38 36 -54 36q-34 0 -72 -74l16 -16q30 57 56 59q8 1 49 -35q41 -35 59 -35q27 1 43 22q2 2 9 15.5t20 36.5zM69 0v519h32v-85q49 96 175 96q178 0 178 -186v-344h-32v334q0 83 -30 122q-35 45 -115 45 q-147 0 -171 -133q-2 -15 -3.5 -37.5t-1.5 -52.5v-278h-32z" unicode="ñ"/>
<glyph glyph-name="ograve" horiz-adv-x="545" unicode="ò" d="M76 258q0 -105 45 -169q52 -75 151 -75t152 75q45 64 45 169q0 104 -45 169q-53 75 -152 75q-100 0 -151 -75q-45 -65 -45 -169zM44 258q0 118 54 190q60 82 174 82t175 -82q54 -72 54 -190t-54 -191q-62 -80 -175 -80q-114 0 -174 80q-54 73 -54 191zM329 584h-53 l-102 160h53z"/>
<glyph glyph-name="oacute" horiz-adv-x="545" unicode="ó" d="M76 258q0 -105 45 -169q52 -75 151 -75t152 75q45 64 45 169q0 104 -45 169q-53 75 -152 75q-100 0 -151 -75q-45 -65 -45 -169zM44 258q0 118 54 190q60 82 174 82t175 -82q54 -72 54 -190t-54 -191q-62 -80 -175 -80q-114 0 -174 80q-54 73 -54 191zM217 584l102 160 h53l-101 -160h-54z"/>
<glyph glyph-name="ocircumflex" horiz-adv-x="545" unicode="ô" d="M149 584h38l86 132l87 -136l36 4l-99 160h-48zM76 258q0 -105 45 -169q52 -75 151 -75t152 75q45 64 45 169q0 104 -45 169q-53 75 -152 75q-100 0 -151 -75q-45 -65 -45 -169zM44 258q0 118 54 190q60 82 174 82t175 -82q54 -72 54 -190t-54 -191q-62 -80 -175 -80 q-114 0 -174 80q-54 73 -54 191z"/>
<glyph glyph-name="otilde" horiz-adv-x="545" unicode="õ" d="M384 702q-5 -10 -9 -19t-8 -19q-15 -27 -40 -27q-14 0 -54 35q-38 36 -54 36q-34 0 -72 -74l16 -16q30 57 56 59q8 1 49 -35q41 -35 59 -35q27 1 43 22q2 2 9 15.5t20 36.5zM76 258q0 -105 45 -169q52 -75 151 -75t152 75q45 64 45 169q0 104 -45 169q-53 75 -152 75 q-100 0 -151 -75q-45 -65 -45 -169zM44 258q0 118 54 190q60 82 174 82t175 -82q54 -72 54 -190t-54 -191q-62 -80 -175 -80q-114 0 -174 80q-54 73 -54 191z"/>
<glyph glyph-name="odieresis" horiz-adv-x="545" unicode="ö" d="M76 258q0 -105 45 -169q52 -75 151 -75t152 75q45 64 45 169q0 104 -45 169q-53 75 -152 75q-100 0 -151 -75q-45 -65 -45 -169zM44 258q0 118 54 190q60 82 174 82t175 -82q54 -72 54 -190t-54 -191q-62 -80 -175 -80q-114 0 -174 80q-54 73 -54 191zM175 661 q0 47 21 47q22 0 22 -47q0 -48 -22 -48q-21 0 -21 48zM329 663q0 46 22 46t22 -46q0 -48 -22 -48t-22 48z"/>
<glyph glyph-name="divide" horiz-adv-x="746" unicode="÷" d="M374 196q29 0 29 -44q0 -45 -29 -45q-31 0 -31 44q0 45 31 45zM374 488q29 0 29 -45q0 -44 -29 -44q-31 0 -31 44q0 45 31 45zM110 313h536v-30h-536v30z"/>
<glyph glyph-name="oslash" horiz-adv-x="545" unicode="ø" d="M248 249q0 23 21 23t21 -23q0 -24 -21 -24t-21 24zM273 14q100 0 151 75q45 64 45 169q0 118 -55 181t-145 63q-97 0 -148 -78q-45 -68 -45 -168q0 -96 40 -158q28 -43 70 -64q42 -20 87 -20zM30 -1l64 75q-50 73 -50 183q0 117 54 191q61 82 175 82q98 0 161 -66l60 70 l21 -20l-63 -73q50 -71 50 -177q0 -122 -52 -195q-60 -82 -177 -82q-98 0 -161 64l-62 -71z"/>
<glyph glyph-name="ugrave" d="M451 519v-519h-31v81q-49 -94 -175 -94q-178 0 -178 185v347h31v-337q0 -84 31 -122q34 -45 115 -45q147 0 171 132q2 15 3.5 37.5t1.5 53.5v281h31zM317 584h-53l-102 160h53z" unicode="ù"/>
<glyph glyph-name="uacute" d="M451 519v-519h-31v81q-49 -94 -175 -94q-178 0 -178 185v347h31v-337q0 -84 31 -122q34 -45 115 -45q147 0 171 132q2 15 3.5 37.5t1.5 53.5v281h31zM205 584l102 160h53l-101 -160h-54z" unicode="ú"/>
<glyph glyph-name="ucircumflex" d="M137 584h38l86 132l87 -136l36 4l-99 160h-48zM451 519v-519h-31v81q-49 -94 -175 -94q-178 0 -178 185v347h31v-337q0 -84 31 -122q34 -45 115 -45q147 0 171 132q2 15 3.5 37.5t1.5 53.5v281h31z" unicode="û"/>
<glyph glyph-name="udieresis" d="M451 519v-519h-31v81q-49 -94 -175 -94q-178 0 -178 185v347h31v-337q0 -84 31 -122q34 -45 115 -45q147 0 171 132q2 15 3.5 37.5t1.5 53.5v281h31zM163 661q0 47 21 47q22 0 22 -47q0 -48 -22 -48q-21 0 -21 48zM317 663q0 46 22 46t22 -46q0 -48 -22 -48t-22 48z" unicode="ü"/>
<glyph glyph-name="yacute" d="M444 -59q-19 -83 -96 -121q-47 -22 -112 -22q-76 0 -122 37q-51 40 -52 113h27q3 -63 49 -94q41 -29 105 -29q115 0 160 87q5 10 9.5 22.5t6.5 27.5q3 18 3 54v80q-50 -96 -175 -96q-178 0 -178 186v344h32v-334q0 -83 30 -122q34 -45 115 -45q147 0 171 133 q2 14 3.5 36.5t1.5 53.5v278h32v-519q-1 -16 -3 -33t-7 -37zM164 584l102 160h53l-101 -160h-54z" unicode="ý"/>
<glyph glyph-name="thorn" horiz-adv-x="572" unicode="þ" d="M297 502q-100 0 -151 -75q-45 -65 -45 -169q0 -105 45 -169q52 -75 151 -75t152 75q45 64 45 169q0 104 -45 169q-53 75 -152 75zM101 112v-298h-32v884h32v-298q51 130 196 130q114 0 175 -82q54 -72 54 -190q0 -119 -54 -191q-60 -80 -175 -80q-145 0 -196 125z"/>
<glyph glyph-name="dotlessi" horiz-adv-x="175" unicode="ı" d="M72 0v519h31v-519h-31z"/>
<glyph glyph-name="sterling" horiz-adv-x="681" unicode="€" d="M66 445h65q5 51 16 93t28 76q55 114 167 114q75 0 128 -59q36 -41 53 -106l-30 -21q-35 147 -156 147q-90 0 -136 -105q-27 -59 -36 -139h271l-10 -30h-263q-1 -15 -1 -29t-1 -28v-37h231l-10 -31h-219q7 -92 36 -157q46 -103 135 -103q136 0 165 173l28 -22 q-13 -75 -52 -123q-53 -65 -138 -65q-108 0 -163 112q-37 75 -45 185h-87l9 31h76v37v28q0 15 1 29h-72z"/>
<glyph glyph-name="minus" horiz-adv-x="688" unicode="−" d="M124 313h497v-30h-497v30z"/>
<glyph glyph-name="Acircumflex.ref1" d="M174 789h38l86 132l87 -136l36 4l-99 160h-48z" horiz-adv-x="1000"/>
<glyph glyph-name="Atilde.ref1" d="M409 907q-5 -10 -9 -19t-8 -19q-15 -27 -40 -27q-14 0 -54 35q-38 36 -54 36q-34 0 -72 -74l16 -16q30 57 56 59q8 1 49 -35q41 -35 59 -35q27 1 43 22q2 2 9 15.5t20 36.5z" horiz-adv-x="1000"/>
<glyph glyph-name="Ecircumflex.ref1" d="M184 789h38l86 132l87 -136l36 4l-99 160h-48z" horiz-adv-x="1000"/>
<glyph glyph-name="Icircumflex.ref1" d="M-19 789h38l86 132l87 -136l36 4l-99 160h-48z" horiz-adv-x="1000"/>
<glyph glyph-name="Ntilde.ref1" d="M452 907q-5 -10 -9 -19t-8 -19q-15 -27 -40 -27q-14 0 -54 35q-38 36 -54 36q-34 0 -72 -74l16 -16q30 57 56 59q8 1 49 -35q41 -35 59 -35q27 1 43 22q2 2 9 15.5t20 36.5z" horiz-adv-x="1000"/>
<glyph glyph-name="Ocircumflex.ref1" d="M247 789h38l86 132l87 -136l36 4l-99 160h-48z" horiz-adv-x="1000"/>
<glyph glyph-name="Otilde.ref1" d="M482 907q-5 -10 -9 -19t-8 -19q-15 -27 -40 -27q-14 0 -54 35q-38 36 -54 36q-34 0 -72 -74l16 -16q30 57 56 59q8 1 49 -35q41 -35 59 -35q27 1 43 22q2 2 9 15.5t20 36.5z" horiz-adv-x="1000"/>
<glyph glyph-name="Ucircumflex.ref1" d="M212 789h38l86 132l87 -136l36 4l-99 160h-48z" horiz-adv-x="1000"/>
<glyph glyph-name="acircumflex.ref1" d="M145 584h38l86 132l87 -136l36 4l-99 160h-48z" horiz-adv-x="1000"/>
<glyph glyph-name="atilde.ref1" d="M380 702q-5 -10 -9 -19t-8 -19q-15 -27 -40 -27q-14 0 -54 35q-38 36 -54 36q-34 0 -72 -74l16 -16q30 57 56 59q8 1 49 -35q41 -35 59 -35q27 1 43 22q2 2 9 15.5t20 36.5z" horiz-adv-x="1000"/>
<glyph glyph-name="ecircumflex.ref1" d="M142 584h38l86 132l87 -136l36 4l-99 160h-48z" horiz-adv-x="1000"/>
<glyph glyph-name="icircumflex.ref1" d="M-35 584h38l86 132l87 -136l36 4l-99 160h-48z" horiz-adv-x="1000"/>
<glyph glyph-name="ntilde.ref1" d="M372 702q-5 -10 -9 -19t-8 -19q-15 -27 -40 -27q-14 0 -54 35q-38 36 -54 36q-34 0 -72 -74l16 -16q30 57 56 59q8 1 49 -35q41 -35 59 -35q27 1 43 22q2 2 9 15.5t20 36.5z" horiz-adv-x="1000"/>
<glyph glyph-name="ocircumflex.ref1" d="M149 584h38l86 132l87 -136l36 4l-99 160h-48z" horiz-adv-x="1000"/>
<glyph glyph-name="otilde.ref1" d="M384 702q-5 -10 -9 -19t-8 -19q-15 -27 -40 -27q-14 0 -54 35q-38 36 -54 36q-34 0 -72 -74l16 -16q30 57 56 59q8 1 49 -35q41 -35 59 -35q27 1 43 22q2 2 9 15.5t20 36.5z" horiz-adv-x="1000"/>
<glyph glyph-name="ucircumflex.ref1" d="M137 584h38l86 132l87 -136l36 4l-99 160h-48z" horiz-adv-x="1000"/>
</font>
</defs>
</svg>
