<?xml version="1.0" standalone="no"?>
<!DOCTYPE svg PUBLIC "-//W3C//DTD SVG 1.1//EN" "http://www.w3.org/Graphics/SVG/1.1/DTD/svg11.dtd" >
<svg xmlns="http://www.w3.org/2000/svg" xmlns:xlink="http://www.w3.org/1999/xlink" version="1.1">
<metadata>
Created by FontForge 20170731 at Sun Jun 16 20:24:57 2013
 By Aleksey,,,
Copyright Andrew McCluskey 2012
</metadata>
<defs>
<font id="Vermin-Vibes-Slant" horiz-adv-x="1414" >
  <font-face 
    font-family="Vermin Vibes Slant"
    font-weight="400"
    font-stretch="normal"
    units-per-em="1024"
    panose-1="0 0 4 0 0 0 0 0 0 0"
    ascent="1024"
    descent="0"
    x-height="1024"
    cap-height="1024"
    bbox="-448 -320 1600 1024"
    underline-thickness="51"
    underline-position="26"
    unicode-range="U+0020-201D"
  />
<missing-glyph horiz-adv-x="966" 
d="M512 145v163h-163v-163h163zM674 335v163h-325v-163h325zM512 525v163h-163v-163h163zM674 715v162h-162q-68 0 -115 -47q-48 -48 -48 -115h325zM0 0v1024h1024v-1024h-1024z" />
    <glyph glyph-name=".notdef" horiz-adv-x="966" 
d="M512 145v163h-163v-163h163zM674 335v163h-325v-163h325zM512 525v163h-163v-163h163zM674 715v162h-162q-68 0 -115 -47q-48 -48 -48 -115h325zM0 0v1024h1024v-1024h-1024z" />
    <glyph glyph-name="glyph1" horiz-adv-x="0" 
 />
    <glyph glyph-name="glyph2" horiz-adv-x="896" 
 />
    <glyph glyph-name="space" unicode=" " horiz-adv-x="896" 
 />
    <glyph glyph-name="exclam" unicode="!" horiz-adv-x="454" 
d="M-384 0l128 256h320l-128 -256h-320zM-192 384l320 640h320l-320 -640h-320z" />
    <glyph glyph-name="quotedbl" unicode="&#x22;" horiz-adv-x="902" 
d="M-64 640l192 384h320l-192 -384h-320zM384 640l192 384h320l-192 -384h-320z" />
    <glyph glyph-name="percent" unicode="%" 
d="M576 0l128 256h320l-128 -256h-320zM0 768l128 256h320l-128 -256h-320zM-384 0l128 256l64 64l1152 576l128 128h320l-128 -256l-64 -64l-1152 -576l-128 -128h-320z" />
    <glyph glyph-name="quotesingle" unicode="'" horiz-adv-x="454" 
d="M-64 640l192 384h320l-192 -384h-320z" />
    <glyph glyph-name="parenleft" unicode="(" 
d="M-384 0l128 256h320l-128 -256h-320zM96 0l128 256h320l-128 -256h-320zM576 0l128 256h320l-128 -256h-320zM-192 384l128 256h320l-128 -256h-320zM288 384l128 256h320l-128 -256h-320zM768 384l128 256h320l-128 -256h-320zM0 768l128 256h320l-128 -256h-320z
M480 768l128 256h320l-128 -256h-320zM960 768l128 256h320l-128 -256h-320z" />
    <glyph glyph-name="parenright" unicode=")" 
d="M-384 0l128 256h320l-128 -256h-320zM96 0l128 256h320l-128 -256h-320zM576 0l128 256h320l-128 -256h-320zM-192 384l128 256h320l-128 -256h-320zM288 384l128 256h320l-128 -256h-320zM768 384l128 256h320l-128 -256h-320zM0 768l128 256h320l-128 -256h-320z
M480 768l128 256h320l-128 -256h-320zM960 768l128 256h320l-128 -256h-320z" />
    <glyph glyph-name="comma" unicode="," horiz-adv-x="454" 
d="M-448 -128l192 384h320l-192 -384h-320z" />
    <glyph glyph-name="period" unicode="." horiz-adv-x="454" 
d="M-384 0l128 256h320l-128 -256h-320z" />
    <glyph glyph-name="slash" unicode="/" 
d="M-384 0l128 256l64 64l1152 576l128 128h320l-128 -256l-64 -64l-1152 -576l-128 -128h-320z" />
    <glyph glyph-name="zero" unicode="0" 
d="M704 256l256 512h-640l-256 -512h640zM-384 0l512 1024h1280l-512 -1024h-1280z" />
    <glyph glyph-name="one" unicode="1" 
d="M-384 0l128 256h480l256 512h-480l128 256h800l-384 -768h480l-128 -256h-1280z" />
    <glyph glyph-name="two" unicode="2" 
d="M-384 0l320 640h960l64 128h-960l128 256h1280l-320 -640h-960l-64 -128h960l-128 -256h-1280z" />
    <glyph glyph-name="three" unicode="3" 
d="M-384 0l128 256h960l64 128h-960l128 256h960l64 128h-960l128 256h1280l-512 -1024h-1280z" />
    <glyph glyph-name="four" unicode="4" 
d="M576 0l192 384h-960l320 640h320l-192 -384h640l192 384h320l-512 -1024h-320z" />
    <glyph glyph-name="five" unicode="5" 
d="M-384 0l128 256h960l64 128h-960l320 640h1280l-128 -256h-960l-64 -128h960l-320 -640h-1280z" />
    <glyph glyph-name="six" unicode="6" 
d="M704 256l64 128h-640l-64 -128h640zM-384 0l512 1024h1280l-128 -256h-960l-64 -128h960l-320 -640h-1280z" />
    <glyph glyph-name="seven" unicode="7" 
d="M-384 0l128 256l64 64l896 448h-704l128 256h1280l-128 -256l-64 -64l-1152 -576l-128 -128h-320z" />
    <glyph glyph-name="eight" unicode="8" 
d="M704 256l64 128h-640l-64 -128h640zM896 640l64 128h-640l-64 -128h640zM-384 0l512 1024h1280l-512 -1024h-1280z" />
    <glyph glyph-name="nine" unicode="9" 
d="M896 640l64 128h-640l-64 -128h640zM-384 0l128 256h960l64 128h-960l320 640h1280l-512 -1024h-1280z" />
    <glyph glyph-name="question" unicode="?" 
d="M-384 0l128 256h320l-128 -256h-320zM-192 384l128 256h960l64 128h-960l128 256h1280l-320 -640h-1280z" />
    <glyph glyph-name="A" unicode="A" 
d="M896 640l64 128h-640l-64 -128h640zM-384 0l512 1024h1280l-512 -1024h-320l192 384h-640l-192 -384h-320z" />
    <glyph glyph-name="B" unicode="B" 
d="M640 256l-384 384h640l64 128h-640l-256 -512h576zM-384 0l512 1024h1280l-320 -640h-192l384 -384h-1664z" />
    <glyph glyph-name="C" unicode="C" 
d="M-384 0l512 1024h1280l-128 -256h-960l-256 -512h960l-128 -256h-1280z" />
    <glyph glyph-name="D" unicode="D" 
d="M704 256l128 256v256h-512l-256 -512h640zM-384 0l512 1024h992v-576l-224 -448h-1280z" />
    <glyph glyph-name="E" unicode="E" 
d="M-384 0l128 256h1280l-128 -256h-1280zM-192 384l128 256h1280l-128 -256h-1280zM0 768l128 256h1280l-128 -256h-1280z" />
    <glyph glyph-name="F" unicode="F" 
d="M-384 0l320 640h1280l-128 -256h-960l-192 -384h-320zM0 768l128 256h1280l-128 -256h-1280z" />
    <glyph glyph-name="G" unicode="G" 
d="M-384 0l512 1024h1280l-128 -256h-960l-256 -512h640l64 128h-480l128 256h800l-320 -640h-1280z" />
    <glyph glyph-name="H" unicode="H" 
d="M-384 0l512 1024h320l-192 -384h640l192 384h320l-512 -1024h-320l192 384h-640l-192 -384h-320z" />
    <glyph glyph-name="I" unicode="I" horiz-adv-x="454" 
d="M-384 0l512 1024h320l-512 -1024h-320z" />
    <glyph glyph-name="J" unicode="J" 
d="M-384 0l128 256h960l384 768h320l-512 -1024h-1280z" />
    <glyph glyph-name="K" unicode="K" 
d="M-384 0l512 1024h320l-512 -1024h-320zM1216 -320l-960 960h640l192 384h320l-320 -640h-192l704 -704h-384z" />
    <glyph glyph-name="L" unicode="L" 
d="M-384 0l512 1024h320l-384 -768h960l-128 -256h-1280z" />
    <glyph glyph-name="M" unicode="M" 
d="M-384 0l512 1024h1280l-512 -1024h-320l384 768h-160l-384 -768h-320l384 768h-160l-384 -768h-320z" />
    <glyph glyph-name="N" unicode="N" 
d="M-384 0l512 1024h64l597 -598l299 598h320l-512 -1024h-64l-598 597l-298 -597h-320z" />
    <glyph glyph-name="O" unicode="O" 
d="M704 256l256 512h-640l-256 -512h640zM-384 0l512 1024h1280l-512 -1024h-1280z" />
    <glyph glyph-name="P" unicode="P" 
d="M-384 0l512 1024h1280l-320 -640h-576l-256 256h640l64 128h-640l-384 -768h-320z" />
    <glyph glyph-name="Q" unicode="Q" 
d="M704 256l256 512h-640l-256 -512h160l192 384h320l-192 -384h160zM-384 0l512 1024h1280l-512 -1024h-1280z" />
    <glyph glyph-name="R" unicode="R" 
d="M1216 -320l-960 960h640l64 128h-640l-384 -768h-320l512 1024h1280l-320 -640h-192l704 -704h-384z" />
    <glyph glyph-name="S" unicode="S" 
d="M-384 0l128 256h960l64 128h-960l320 640h1280l-128 -256h-960l-64 -128h960l-320 -640h-1280z" />
    <glyph glyph-name="T" unicode="T" 
d="M96 0l384 768h-480l128 256h1280l-128 -256h-480l-384 -768h-320z" />
    <glyph glyph-name="U" unicode="U" 
d="M-384 0l512 1024h320l-384 -768h640l384 768h320l-512 -1024h-1280z" />
    <glyph glyph-name="V" unicode="V" 
d="M896 0l-1024 1024h384l554 -555l278 555h320l-512 -1024v0z" />
    <glyph glyph-name="W" unicode="W" 
d="M-384 0l512 1024h320l-384 -768h160l384 768h320l-384 -768h160l384 768h320l-512 -1024h-1280z" />
    <glyph glyph-name="X" unicode="X" 
d="M-384 0l512 512v512h256v-384h256l384 384h384l-512 -512v-512h-256v384h-256l-384 -384h-384z" />
    <glyph glyph-name="Y" unicode="Y" 
d="M-384 0l128 256h960l64 128h-960l320 640h320l-192 -384h640l192 384h320l-512 -1024h-1280z" />
    <glyph glyph-name="Z" unicode="Z" 
d="M-384 0l128 256l64 64l896 448h-704l128 256h1280l-128 -256l-64 -64l-896 -448h704l-128 -256h-1280z" />
    <glyph glyph-name="a" unicode="a" 
d="M896 640l64 128h-640l-64 -128h640zM-384 0l512 1024h1280l-512 -1024h-320l192 384h-640l-192 -384h-320z" />
    <glyph glyph-name="b" unicode="b" 
d="M640 256l-384 384h640l64 128h-640l-256 -512h576zM-384 0l512 1024h1280l-320 -640h-192l128 -128l-128 -256h-1280z" />
    <glyph glyph-name="c" unicode="c" 
d="M-384 0l512 1024h1280l-128 -256h-960l-256 -512h960l-128 -256h-1280z" />
    <glyph glyph-name="d" unicode="d" 
d="M704 256l128 256v256h-512l-256 -512h640zM-384 0l512 1024h992v-576l-224 -448h-1280z" />
    <glyph glyph-name="e" unicode="e" 
d="M-384 0l512 1024h1280l-128 -256h-960l-64 -128h960l-128 -256h-960l-64 -128h960l-128 -256h-1280z" />
    <glyph glyph-name="f" unicode="f" 
d="M-384 0l512 1024h1280l-128 -256h-960l-64 -128h960l-128 -256h-960l-192 -384h-320z" />
    <glyph glyph-name="g" unicode="g" 
d="M-384 0l512 1024h1280l-128 -256h-960l-256 -512h640l64 128h-480l128 256h800l-320 -640h-1280z" />
    <glyph glyph-name="h" unicode="h" 
d="M-384 0l512 1024h320l-192 -384h640l192 384h320l-512 -1024h-320l192 384h-640l-192 -384h-320z" />
    <glyph glyph-name="i" unicode="i" horiz-adv-x="454" 
d="M-384 0l512 1024h320l-512 -1024h-320z" />
    <glyph glyph-name="j" unicode="j" 
d="M-384 0l128 256h960l384 768h320l-512 -1024h-1280z" />
    <glyph glyph-name="k" unicode="k" 
d="M-384 0l512 1024h320l-512 -1024h-320zM896 0l-640 640h640l192 384h320l-320 -640h-192l128 -128l-128 -256v0z" />
    <glyph glyph-name="l" unicode="l" 
d="M-384 0l512 1024h320l-384 -768h960l-128 -256h-1280z" />
    <glyph glyph-name="m" unicode="m" 
d="M-384 0l512 1024h1280l-512 -1024h-320l384 768h-160l-384 -768h-320l384 768h-160l-384 -768h-320z" />
    <glyph glyph-name="n" unicode="n" 
d="M-384 0l512 1024h64l597 -598l299 598h320l-512 -1024h-64l-598 597l-298 -597h-320z" />
    <glyph glyph-name="o" unicode="o" 
d="M704 256l256 512h-640l-256 -512h640zM-384 0l512 1024h1280l-512 -1024h-1280z" />
    <glyph glyph-name="p" unicode="p" 
d="M-384 0l512 1024h1280l-320 -640h-576l-256 256h640l64 128h-640l-384 -768h-320z" />
    <glyph glyph-name="q" unicode="q" 
d="M704 256l256 512h-640l-256 -512h160l192 384h320l-192 -384h160zM-32 -256l128 256h-480l512 1024h1280l-512 -1024h-480l-128 -256h-320z" />
    <glyph glyph-name="r" unicode="r" 
d="M-384 0l512 1024h1280l-320 -640h-192l128 -128l-128 -256l-640 640h640l64 128h-640l-384 -768h-320z" />
    <glyph glyph-name="s" unicode="s" 
d="M-384 0l128 256h960l64 128h-960l320 640h1280l-128 -256h-960l-64 -128h960l-320 -640h-1280z" />
    <glyph glyph-name="t" unicode="t" 
d="M96 0l384 768h-480l128 256h1280l-128 -256h-480l-384 -768h-320z" />
    <glyph glyph-name="u" unicode="u" 
d="M-384 0l512 1024h320l-384 -768h640l384 768h320l-512 -1024h-1280z" />
    <glyph glyph-name="v" unicode="v" 
d="M896 0l-1024 1024h384l554 -555l278 555h320l-512 -1024v0z" />
    <glyph glyph-name="w" unicode="w" 
d="M-384 0l512 1024h320l-384 -768h160l384 768h320l-384 -768h160l384 768h320l-512 -1024h-1280z" />
    <glyph glyph-name="x" unicode="x" 
d="M-384 0l512 512v512h256v-384h256l384 384h384l-512 -512v-512h-256v384h-256l-384 -384h-384z" />
    <glyph glyph-name="y" unicode="y" 
d="M-384 0l128 256h960l64 128h-960l320 640h320l-192 -384h640l192 384h320l-512 -1024h-1280z" />
    <glyph glyph-name="z" unicode="z" 
d="M-384 0l128 256l64 64l896 448h-704l128 256h1280l-128 -256l-64 -64l-896 -448h704l-128 -256h-1280z" />
    <glyph glyph-name="quoteleft" unicode="&#x2018;" horiz-adv-x="454" 
d="M-64 640l192 384h320l-192 -384h-320z" />
    <glyph glyph-name="quoteright" unicode="&#x2019;" horiz-adv-x="454" 
d="M-64 640l192 384h320l-192 -384h-320z" />
    <glyph glyph-name="quotedblleft" unicode="&#x201c;" horiz-adv-x="902" 
d="M-64 640l192 384h320l-192 -384h-320zM384 640l192 384h320l-192 -384h-320z" />
    <glyph glyph-name="quotedblright" unicode="&#x201d;" horiz-adv-x="902" 
d="M-64 640l192 384h320l-192 -384h-320zM384 640l192 384h320l-192 -384h-320z" />
  </font>
</defs>
</svg>
